<?xml version="1.0" encoding="UTF-8"?>
<svg width="24px" height="24px" viewBox="0 0 24 24" version="1.1" xmlns="http://www.w3.org/2000/svg" xmlns:xlink="http://www.w3.org/1999/xlink">
    <title></title>
    <g id="页面-1" stroke="none" stroke-width="1" fill="none" fill-rule="evenodd">
        <g id="个人帐户设置/邮箱未激活" transform="translate(-752.000000, -364.000000)" fill="#0D8DFF">
            <g id="ico-/-24-/-files-/-folder_outlined备份-4" transform="translate(752.000000, 364.000000)">
                <path d="M12,2 C6.4771525,2 2,6.4771525 2,12 C2,17.5228475 6.4771525,22 12,22 C17.5228475,22 22,17.5228475 22,12 C22,9.3478351 20.9464316,6.80429597 19.0710678,4.92893219 C17.195704,3.0535684 14.6521649,2 12,2 Z M12,20 C7.581722,20 4,16.418278 4,12 C4,7.581722 7.581722,4 12,4 C16.418278,4 20,7.581722 20,12 C20,14.1217319 19.1571453,16.1565632 17.6568542,17.6568542 C16.1565632,19.1571453 14.1217319,20 12,20 Z M12.5,14 L11.5,14 C11.2238576,14 11,14.2238576 11,14.5 L11,15.5 C11,15.7761424 11.2238576,16 11.5,16 L12.5,16 C12.7761424,16 13,15.7761424 13,15.5 L13,14.5 C13,14.2238576 12.7761424,14 12.5,14 Z M12.68,7.99998691 L11.32,7.99998691 C11.1763101,7.9989612 11.0391188,8.05979253 10.9434165,8.16697905 C10.8477143,8.27416557 10.802753,8.41734513 10.82,8.56 L11.22,11.78 C11.2352559,11.9062413 11.3428436,12.0009185 11.47,12.0000066 L12.53,12.0000066 C12.6571564,12.0009185 12.7647441,11.9062413 12.78,11.78 L13.18,8.56 C13.197247,8.41734513 13.1522857,8.27416557 13.0565835,8.16697905 C12.9608812,8.05979253 12.8236899,7.9989612 12.68,7.99998691 Z" id="Icon-color"></path>
            </g>
        </g>
    </g>
</svg>