<?xml version="1.0" encoding="UTF-8"?>
<svg width="48px" height="48px" viewBox="0 0 48 48" version="1.1" xmlns="http://www.w3.org/2000/svg" xmlns:xlink="http://www.w3.org/1999/xlink">
    <title></title>
    <g id="页面-1" stroke="none" stroke-width="1" fill="none" fill-rule="evenodd">
        <g id="我的模型/文件tab无文件状态" transform="translate(-936.000000, -500.000000)" fill="#E5E5E5" fill-rule="nonzero">
            <g id="编组-3" transform="translate(841.000000, 500.000000)">
                <g id="ico-/-24-/-files-/-folder_outlined备份-3" transform="translate(95.000000, 0.000000)">
                    <path d="M36,4 L22.48,4 C20.8892372,4.00140042 19.3641389,4.6344601 18.24,5.76 L9.76,14.24 C8.6344601,15.3641389 8.00140042,16.8892372 8,18.48 L8,40 C8,42.209139 9.790861,44 12,44 L36,44 C38.209139,44 40,42.209139 40,40 L40,8 C40,5.790861 38.209139,4 36,4 Z M36,40 L12,40 L12,20 L22,20 C23.1045695,20 24,19.1045695 24,18 L24,8 L36,8 L36,40 Z M30,30.76 L30,29.24 C30,28.6877153 29.5522847,28.24 29,28.24 L25.76,28.24 L25.76,25 C25.76,24.4477153 25.3122847,24 24.76,24 L23.24,24 C22.6877153,24 22.24,24.4477153 22.24,25 L22.24,28.24 L19,28.24 C18.4477153,28.24 18,28.6877153 18,29.24 L18,30.76 C18,31.3122847 18.4477153,31.76 19,31.76 L22.24,31.76 L22.24,35 C22.24,35.5522847 22.6877153,36 23.24,36 L24.76,36 C25.3122847,36 25.76,35.5522847 25.76,35 L25.76,31.76 L29,31.76 C29.5522847,31.76 30,31.3122847 30,30.76 L30,30.76 Z" id="Icon-color"></path>
                </g>
            </g>
        </g>
    </g>
</svg>