<?xml version="1.0" encoding="UTF-8"?>
<svg width="40px" height="40px" viewBox="0 0 40 40" version="1.1" xmlns="http://www.w3.org/2000/svg" xmlns:xlink="http://www.w3.org/1999/xlink">
    <title></title>
    <g id="完整" stroke="none" stroke-width="1" fill="none" fill-rule="evenodd">
        <g id="首页/登陆后备份-8" transform="translate(-1636.000000, -773.000000)" fill="#FFFFFF">
            <g id="编组-11备份" transform="translate(1656.000000, 793.000000) scale(-1, 1) translate(-1656.000000, -793.000000) translate(1632.000000, 769.000000)">
                <g id="icon/24/关闭备份-2" transform="translate(4.000000, 4.000000)">
                    <path d="M13.7,21.2 C13.4655125,20.9658044 13.3336251,20.6480756 13.3333333,20.3166667 L13.3333333,19.6833333 C13.3371733,19.3526431 13.4685267,19.0362009 13.7,18.8 L22.2666667,10.25 C22.4231388,10.0922395 22.6361354,10.0035014 22.8583333,10.0035014 C23.0805313,10.0035014 23.2935278,10.0922395 23.45,10.25 L24.6333333,11.4333333 C24.7901068,11.5869393 24.8784524,11.7971838 24.8784524,12.0166667 C24.8784524,12.2361495 24.7901068,12.446394 24.6333333,12.6 L17.2166667,20 L24.6333333,27.4 C24.7910939,27.5564722 24.8798319,27.7694687 24.8798319,27.9916667 C24.8798319,28.2138646 24.7910939,28.4268612 24.6333333,28.5833333 L23.45,29.75 C23.2935278,29.9077605 23.0805313,29.9964986 22.8583333,29.9964986 C22.6361354,29.9964986 22.4231388,29.9077605 22.2666667,29.75 L13.7,21.2 Z" id="Icon-color"></path>
                </g>
            </g>
        </g>
    </g>
</svg>