<?xml version="1.0" encoding="UTF-8"?>
<svg width="24px" height="24px" viewBox="0 0 24 24" version="1.1" xmlns="http://www.w3.org/2000/svg" xmlns:xlink="http://www.w3.org/1999/xlink">
    <title>切片</title>
    <defs>
        <filter id="filter-1">
            <feColorMatrix in="SourceGraphic" type="matrix" values="0 0 0 0 0.050980 0 0 0 0 0.552941 0 0 0 0 1.000000 0 0 0 1.000000 0"></feColorMatrix>
        </filter>
    </defs>
    <g id="完整" stroke="none" stroke-width="1" fill="none" fill-rule="evenodd">
        <g id="比赛/比赛详情-排行榜-未报名（最多显示30名）" transform="translate(-980.000000, -1524.000000)">
            <g id="ico-/-24-/-arrows-/-chevron_down" transform="translate(916.000000, 1524.000000)" filter="url(#filter-1)">
                <g transform="translate(64.000000, 0.000000)">
                    <path d="M12.72,15.78 C12.5794826,15.9206925 12.3888454,15.9998249 12.19,16 L11.81,16 C11.6115859,15.997696 11.4217206,15.918884 11.28,15.78 L6.15,10.64 C6.05534367,10.5461167 6.00210084,10.4183188 6.00210084,10.285 C6.00210084,10.1516812 6.05534367,10.0238833 6.15,9.93 L6.86,9.22 C6.95216359,9.12593593 7.07831031,9.07292856 7.21,9.07292856 C7.34168969,9.07292856 7.46783641,9.12593593 7.56,9.22 L12,13.67 L16.44,9.22 C16.5338833,9.12534367 16.6616812,9.07210084 16.795,9.07210084 C16.9283188,9.07210084 17.0561167,9.12534367 17.15,9.22 L17.85,9.93 C17.9446563,10.0238833 17.9978992,10.1516812 17.9978992,10.285 C17.9978992,10.4183188 17.9446563,10.5461167 17.85,10.64 L12.72,15.78 Z" id="Icon-color" fill="#000000" fill-rule="nonzero"></path>
                </g>
            </g>
        </g>
    </g>
</svg>