<!-- Generated by IcoMoon.io -->
<svg version="1.1" xmlns="http://www.w3.org/2000/svg" width="32" height="32" viewBox="0 0 32 32">
<path fill="currentColor" d="M25.333 24.667v1.333c0 0.368-0.298 0.667-0.667 0.667h-17.333c-0.368 0-0.667-0.298-0.667-0.667v-1.333c0-0.368 0.298-0.667 0.667-0.667h17.333c0.368 0 0.667 0.298 0.667 0.667zM8.080 13.133c0.125 0.13 0.299 0.203 0.48 0.2h3.44v7.333c0 0.368 0.298 0.667 0.667 0.667h6.667c0.368 0 0.667-0.298 0.667-0.667v-7.333h3.44c0.181 0.003 0.355-0.070 0.48-0.2l0.267-0.267c0.126-0.125 0.197-0.296 0.197-0.473s-0.071-0.348-0.197-0.473l-7.72-7.72c-0.121-0.129-0.29-0.202-0.467-0.202s-0.346 0.073-0.467 0.202l-7.72 7.72c-0.126 0.125-0.197 0.296-0.197 0.473s0.071 0.348 0.197 0.473l0.267 0.267z"></path>
</svg>
