<?xml version="1.0" encoding="UTF-8"?>
<svg width="48px" height="48px" viewBox="0 0 48 48" version="1.1" xmlns="http://www.w3.org/2000/svg" xmlns:xlink="http://www.w3.org/1999/xlink">
    <title>编组 41</title>
    <g id="页面-1" stroke="none" stroke-width="1" fill="none" fill-rule="evenodd">
        <g id="产业/产业首页-电力专区" transform="translate(-1045.000000, -536.000000)">
            <g id="编组-41" transform="translate(1045.000000, 536.000000)">
                <rect id="矩形" fill="#96CDFF" x="0" y="0" width="48" height="48" rx="8"></rect>
                <g id="语言识别" transform="translate(10.000000, 11.000000)" fill="#000000" fill-rule="nonzero">
                    <path d="M26.6666667,19.3333333 C27.0085572,19.3333333 27.2903381,19.5906935 27.3288482,19.9222526 L27.3333333,20 L27.3333333,25 C27.3333333,25.5197974 26.9367413,25.9469658 26.42964,25.9954223 L26.3333333,26 L21.3333333,26 C20.9651435,26 20.6666667,25.7015231 20.6666667,25.3333333 C20.6666667,24.9914428 20.9240268,24.7096619 21.2555859,24.6711518 L21.3333333,24.6666667 L26,24.6666667 L26,20 C26,19.6581095 26.2573601,19.3763285 26.5889193,19.3378185 L26.6666667,19.3333333 Z M0.666666667,19.3333333 L0.744414087,19.3378185 C1.07597321,19.3763285 1.33333333,19.6581095 1.33333333,20 L1.33333333,20 L1.33333333,24.6666667 L6,24.6666667 L6.0777474,24.6711518 C6.40930653,24.7096619 6.66666667,24.9914428 6.66666667,25.3333333 C6.66666667,25.7015231 6.3681898,26 6,26 L6,26 L1,26 L0.903693327,25.9954223 C0.396592053,25.9469658 1.77635684e-15,25.5197974 1.77635684e-15,25 L1.77635684e-15,25 L1.77635684e-15,20 L0.00448515333,19.9222526 C0.0429952267,19.5906935 0.324776107,19.3333333 0.666666667,19.3333333 L0.666666667,19.3333333 Z M6,0 C6.3681898,0 6.66666667,0.298476833 6.66666667,0.666666667 C6.66666667,1.00855723 6.40930653,1.29033811 6.0777474,1.32884818 L6,1.33333333 L1.33333333,1.33333333 L1.33333333,6 C1.33333333,6.34189053 1.07597321,6.62367147 0.744414087,6.66218153 L0.666666667,6.66666667 C0.324776107,6.66666667 0.0429952267,6.40930653 0.00448515333,6.0777474 L1.77635684e-15,6 L1.77635684e-15,1 C1.77635684e-15,0.480202587 0.396592053,0.0530342133 0.903693327,0.00457772 L1,0 L6,0 Z M26.3333333,0 L26.42964,0.00457772 C26.9367413,0.0530342133 27.3333333,0.480202587 27.3333333,1 L27.3333333,1 L27.3333333,6 L27.3288482,6.0777474 C27.2903381,6.40930653 27.0085572,6.66666667 26.6666667,6.66666667 L26.6666667,6.66666667 L26.5889193,6.66218153 C26.2573601,6.62367147 26,6.34189053 26,6 L26,6 L26,1.33333333 L21.3333333,1.33333333 L21.2555859,1.32884818 C20.9240268,1.29033811 20.6666667,1.00855723 20.6666667,0.666666667 C20.6666667,0.298476833 20.9651435,0 21.3333333,0 L21.3333333,0 L26.3333333,0 Z M13.6955869,4 C11.6705428,4 10.0289202,5.6416226 10.0289202,7.66666667 L10.0289202,13.6666667 C10.0289202,15.6917107 11.6705428,17.3333333 13.6955869,17.3333333 C15.720631,17.3333333 17.3622535,15.6917107 17.3622535,13.6666667 L17.3622535,7.66666667 C17.3622535,5.6416226 15.720631,4 13.6955869,4 Z M13.6955869,5.33333333 C14.9842513,5.33333333 16.0289202,6.37800227 16.0289202,7.66666667 L16.0289202,13.6666667 C16.0289202,14.9553311 14.9842513,16 13.6955869,16 C12.4069225,16 11.3622535,14.9553311 11.3622535,13.6666667 L11.3622535,7.66666667 C11.3622535,6.37800227 12.4069225,5.33333333 13.6955869,5.33333333 Z M8.33333333,12.6666667 C8.67522387,12.6666667 8.9570048,12.9240268 8.99551487,13.2555859 L9,13.3333333 L9,14.1705677 C9,16.7478966 11.0893379,18.8372344 13.6666667,18.8372344 C16.1903011,18.8372344 18.2460658,16.8340455 18.3306273,14.3310009 L18.3333333,14.1705677 L18.3333333,13.5573733 C18.3333333,13.1891834 18.6318102,12.8907066 19,12.8907066 C19.3418905,12.8907066 19.6236715,13.1480667 19.6621815,13.4796258 L19.6666667,13.5573733 L19.6666667,14.1705677 C19.6666667,17.4842763 16.9803751,20.1705677 13.6666667,20.1705677 C10.4121315,20.1705677 7.76280573,17.5793587 7.66922473,14.3474759 L7.66666667,14.1705677 L7.66666667,13.3333333 C7.66666667,12.9651435 7.96514353,12.6666667 8.33333333,12.6666667 Z M14.3622535,18.8372344 L14.3622535,23.3333333 L13.0289202,23.3333333 L13.0289202,18.8372344 L14.3622535,18.8372344 Z M18.2980609,22.3333333 C18.6662508,22.3333333 18.9647276,22.6318102 18.9647276,23 C18.9647276,23.3418905 18.7073675,23.6236715 18.3758083,23.6621815 L18.2980609,23.6666667 L9.01234667,23.6666667 C8.6441568,23.6666667 8.34568,23.3681898 8.34568,23 C8.34568,22.6581095 8.60304013,22.3763285 8.93459927,22.3378185 L9.01234667,22.3333333 L18.2980609,22.3333333 Z" id="group1"></path>
                    <path d="M3,10.8666667 C2.76374486,10.8666667 2.56849451,11.0422291 2.53759345,11.2700094 L2.53333333,11.3333333 L2.53333333,14.3605781 C2.53333333,14.6183109 2.74226712,14.8272447 3,14.8272447 C3.23625514,14.8272447 3.43150549,14.6516823 3.46240655,14.4239019 L3.46666667,14.3605781 L3.46666667,11.3333333 C3.46666667,11.0756005 3.25773288,10.8666667 3,10.8666667 Z M24.3333333,10.8666667 C24.0970782,10.8666667 23.9018279,11.0422291 23.8709268,11.2700094 L23.8666667,11.3333333 L23.8666667,14.3605781 C23.8666667,14.6183109 24.0756005,14.8272447 24.3333333,14.8272447 C24.5695885,14.8272447 24.7648388,14.6516823 24.7957399,14.4239019 L24.8,14.3605781 L24.8,11.3333333 C24.8,11.0756005 24.5910662,10.8666667 24.3333333,10.8666667 Z M26.8,11.5333333 C26.5637449,11.5333333 26.3684945,11.6497925 26.3375935,11.8008903 L26.3333333,11.8428961 L26.3333333,13.8510152 C26.3333333,14.021982 26.5422671,14.160578 26.8,14.160578 C27.0362551,14.160578 27.2315055,14.0441189 27.2624065,13.8930211 L27.2666667,13.8510152 L27.2666667,11.8428961 C27.2666667,11.6719293 27.0577329,11.5333333 26.8,11.5333333 Z M0.466666667,11.5333333 C0.230411527,11.5333333 0.03516118,11.6497925 0.00426011333,11.8008903 L1.77635684e-15,11.8428961 L1.77635684e-15,13.8510152 C1.77635684e-15,14.021982 0.208933787,14.160578 0.466666667,14.160578 C0.702921807,14.160578 0.898172153,14.0441189 0.92907322,13.8930211 L0.933333333,13.8510152 L0.933333333,11.8428961 C0.933333333,11.6719293 0.724399547,11.5333333 0.466666667,11.5333333 Z M5.66666667,8.86666667 C5.43041153,8.86666667 5.2351612,9.04222907 5.20426013,9.2700094 L5.2,9.33333333 L5.2,16.3952822 C5.2,16.6530151 5.4089338,16.8619489 5.66666667,16.8619489 C5.9029218,16.8619489 6.09817213,16.6863865 6.1290732,16.4586061 L6.13333333,16.3952822 L6.13333333,9.33333333 C6.13333333,9.07560047 5.92439953,8.86666667 5.66666667,8.86666667 Z M21.4764521,8.86666667 C21.2401969,8.86666667 21.0449466,9.04222907 21.0140455,9.2700094 L21.0097854,9.33333333 L21.0097854,16.3952822 C21.0097854,16.6530151 21.2187192,16.8619489 21.4764521,16.8619489 C21.7127072,16.8619489 21.9079575,16.6863865 21.9388586,16.4586061 L21.9431187,16.3952822 L21.9431187,9.33333333 C21.9431187,9.07560047 21.7341849,8.86666667 21.4764521,8.86666667 Z" id="group2"></path>
                </g>
            </g>
        </g>
    </g>
</svg>