<!-- Generated by IcoMoon.io -->
<svg version="1.1" xmlns="http://www.w3.org/2000/svg" width="32" height="32" viewBox="0 0 32 32">
<path fill="currentColor" d="M5.382 4.492l21.179 20.817c0.141 0.139 0.141 0.363 0 0.502l-0.766 0.752c-0.141 0.139-0.369 0.139-0.51 0l-0.93-0.913 0 0.299c0 0.367-0.303 0.665-0.677 0.665h-17.592c-0.374 0-0.677-0.298-0.677-0.665v-1.33c0-0.367 0.303-0.665 0.677-0.665l16.542-0.001-3.687-3.624 0.001 0.3c0 0.321-0.232 0.59-0.54 0.652l-0.136 0.014h-6.766c-0.327 0-0.6-0.228-0.663-0.531l-0.014-0.134v-7.315h-3.491c-0.138 0.002-0.271-0.038-0.383-0.113l-0.104-0.086-0.271-0.266c-0.128-0.125-0.2-0.295-0.2-0.472 0-0.133 0.041-0.262 0.115-0.371l0.085-0.102 1.897-1.867-4.365-4.29c-0.141-0.138-0.141-0.363 0-0.502l0.766-0.752c0.141-0.138 0.369-0.138 0.51 0zM14.882 4c0.135 0 0.265 0.041 0.373 0.116l0.101 0.086 7.835 7.701c0.128 0.125 0.2 0.295 0.2 0.472 0 0.133-0.041 0.262-0.115 0.371l-0.085 0.102-0.271 0.266c-0.095 0.097-0.219 0.162-0.352 0.188l-0.136 0.012h-3.491v2.039l-7.941-7.803 3.408-3.347c0.092-0.096 0.212-0.162 0.341-0.188l0.132-0.013z"></path>
</svg>
