<?xml version="1.0" encoding="UTF-8"?>
<svg width="14px" height="14px" viewBox="0 0 14 14" version="1.1" xmlns="http://www.w3.org/2000/svg" xmlns:xlink="http://www.w3.org/1999/xlink">
    <g id="完整" stroke="none" stroke-width="1" fill="none" fill-rule="evenodd">
        <g id="大模型/悟空-画作管理-我的公开" transform="translate(-766.000000, -440.000000)" fill="#FFFFFF">
            <g id="编组-2" transform="translate(757.000000, 431.000000)">
                <g id="ico-/-24-/-ui-/-download_to备份" transform="translate(9.886039, 9.248861)">
                    <path d="M10.988961,11.251139 C11.1960678,11.251139 11.363961,11.4190322 11.363961,11.626139 L11.363961,12.376139 C11.363961,12.5832458 11.1960678,12.751139 10.988961,12.751139 L1.23896103,12.751139 C1.03185425,12.751139 0.863961031,12.5832458 0.863961031,12.376139 L0.863961031,11.626139 C0.863961031,11.4190322 1.03185425,11.251139 1.23896103,11.251139 L10.988961,11.251139 Z M3.25696103,2.707 L8.36296103,7.814 L8.36396103,9.37613898 C8.36396103,9.55735742 8.23541779,9.70855297 8.06453661,9.74352032 L7.98896103,9.75113898 L4.23896103,9.75113898 C4.03185425,9.75113898 3.86396103,9.58324577 3.86396103,9.37613898 L3.86396103,9.37613898 L3.86396103,5.25113898 L1.92896103,5.25113898 C1.82727167,5.25261359 1.72951772,5.21188278 1.65896103,5.13863898 L1.65896103,5.13863898 L1.50896103,4.98863898 C1.43796879,4.91822651 1.39803666,4.82237806 1.39803666,4.72238898 C1.39803666,4.62239991 1.43796879,4.52655146 1.50896103,4.45613898 L1.50896103,4.45613898 L3.25696103,2.707 Z M6.11396103,0 C6.21340046,0 6.30841103,0.0411310651 6.37646103,0.113638984 L6.37646103,0.113638984 L10.718961,4.45613898 C10.7899533,4.52655146 10.8298854,4.62239991 10.8298854,4.72238898 C10.8298854,4.82237806 10.7899533,4.91822651 10.718961,4.98863898 L10.718961,4.98863898 L10.568961,5.13863898 C10.4984043,5.21188278 10.4006504,5.25261359 10.298961,5.25113898 L10.298961,5.25113898 L8.36396103,5.25113898 L8.36296103,6.4 L3.96296103,2.001 L5.85146103,0.113638984 C5.90249853,0.0592580449 5.96870135,0.0225265859 6.04056393,0.00755966516 Z" id="形状结合"></path>
                    <rect id="矩形" stroke="#FFFFFF" transform="translate(6.363961, 6.500000) rotate(-45.000000) translate(-6.363961, -6.500000) " x="6.36396103" y="-1.5" width="1" height="16" rx="0.200000003"></rect>
                </g>
            </g>
        </g>
    </g>
</svg>