<!-- Generated by IcoMoon.io -->
<svg version="1.1" xmlns="http://www.w3.org/2000/svg" width="83" height="32" viewBox="0 0 83 32">
<title>untitled</title>
<path fill="#fff" d="M0.97 31.128h81.436v-30.159h-81.436z"></path>
<path fill="none" stroke="#000" stroke-linejoin="miter" stroke-linecap="butt" stroke-miterlimit="4" stroke-width="0.9697" d="M0.97 31.128h81.436v-30.159h-81.436z"></path>
<path fill="#fffe54" d="M2.571 29.201h78.173v-27.028h-78.173z"></path>
<path fill="#000" d="M1.61 30.593l0.97-0.969h78.538v-27.131l0.97-0.969v29.069z"></path>
<path fill="none" stroke="#000" stroke-linejoin="round" stroke-linecap="butt" stroke-miterlimit="4" stroke-width="0.9697" d="M1.61 30.593l0.97-0.969h78.538v-27.131l0.97-0.969v29.069z"></path>
<path fill="#000" d="M14.207 21.567v-1.131h4.525v-3.394h1.131v3.394h1.131v-2.263h1.131v2.263h3.394v-1.131h1.131v1.131h1.131v1.131h-13.576zM16.47 14.779v-1.131h1.131v1.131h1.131v2.263h-1.131v-2.263h-1.131zM15.338 12.517v-1.131h5.657v-1.131h1.131v1.131h2.263v-1.131h1.131v1.131h1.131v1.131h-11.313zM19.864 10.254v-1.131h1.131v1.131h-1.131zM22.126 18.173v-2.263h1.131v2.263h-1.131zM23.258 15.911v-2.263h1.131v2.263h-1.131z"></path>
<path fill="#000" d="M37.965 19.304v-1.131h1.131v-6.788h-2.263v11.313h-1.131v-12.444h3.394v-1.131h1.131v1.131h1.131v1.131h-1.131v7.919h-2.263zM28.914 20.436v-10.182h5.657v5.657h-4.525v3.394h2.263v1.131h-2.263v1.131h-1.131v-1.131zM33.439 19.304h1.131v1.131h-1.131v-1.131zM33.439 19.304h-1.131v-2.263h1.131v2.263zM31.177 14.779h2.263v-1.131h-3.394v1.131h1.131zM31.177 12.517h2.263v-1.131h-3.394v1.131h1.131z"></path>
<path fill="#000" d="M45.884 22.698v-1.131h1.131v1.131h-1.131zM41.358 21.567v-1.131h1.131v1.131h1.131v-4.525h-2.263v-1.131h2.263v-3.394h-2.263v-1.131h2.263v-2.263h1.131v2.263h2.263v1.131h1.131v1.131h1.131v-4.525h1.131v10.182h-1.131v1.131h-1.131v1.131h-1.131v-1.131h1.131v-1.131h1.131v-2.263h-1.131v1.131h-2.263v-1.131h2.263v-1.131h1.131v-1.131h-1.131v-1.131h-1.131v-1.131h-2.263v2.263h1.131v1.131h-1.131v6.788h-2.263v-1.131h-1.131zM52.672 22.698h-1.131v-13.576h1.131v3.394h1.131v1.131h-1.131v2.263h1.131v1.131h1.131v1.131h-1.131v-1.131h-1.131v4.525h1.131v-2.263h1.131v3.394h-2.263zM53.803 12.517v-1.131h1.131v1.131h-1.131z"></path>
<path fill="#000" d="M65.116 11.385v-1.131h1.131v1.131h1.131v1.131h1.131v1.131h-4.525v4.525h1.131v2.263h1.131v1.131h1.131v-2.263h1.131v3.394h-2.263v-1.131h-1.131v-1.131h-2.263v1.131h-1.131v1.131h-1.131v-1.131h1.131v-1.131h1.131v-1.131h1.131v-1.131h-1.131v-3.394h-2.263v1.131h1.131v1.131h-1.131v4.525h-3.394v1.131h-1.131v-6.788h1.131v-6.788h1.131v2.263h1.131v-1.131h1.131v1.131h1.131v1.131h-3.394v3.394h1.131v-1.131h1.131v-1.131h2.263v-4.525h1.131v3.394h2.263v-1.131h-1.131zM58.328 20.436h1.131v-3.394h-2.263v3.394h1.131zM65.116 18.173v-2.263h1.131v2.263h-1.131zM66.247 15.911v-1.131h1.131v1.131h-1.131z"></path>
</svg>
