<svg id="icon-circle-check" viewBox="0 0 24 24">
    <path fill="#ccc" style="fill: var(--color1, #ccc)"
        d="M12 2c-5.523 0-10 4.477-10 10s4.477 10 10 10c5.523 0 10-4.477 10-10 0-2.652-1.054-5.196-2.929-7.071s-4.419-2.929-7.071-2.929zM15.090 13.86c0.097 0.091 0.152 0.217 0.152 0.35s-0.055 0.259-0.152 0.35l-0.53 0.53c-0.091 0.097-0.217 0.152-0.35 0.152s-0.259-0.055-0.35-0.152l-1.86-1.85-1.86 1.85c-0.091 0.097-0.217 0.152-0.35 0.152s-0.259-0.055-0.35-0.152l-0.53-0.53c-0.097-0.091-0.152-0.217-0.152-0.35s0.055-0.259 0.152-0.35l1.85-1.86-1.85-1.86c-0.097-0.091-0.152-0.217-0.152-0.35s0.055-0.259 0.152-0.35l0.53-0.53c0.091-0.097 0.217-0.152 0.35-0.152s0.259 0.055 0.35 0.152l1.86 1.85 1.86-1.85c0.091-0.097 0.217-0.152 0.35-0.152s0.259 0.055 0.35 0.152l0.53 0.53c0.097 0.091 0.152 0.217 0.152 0.35s-0.055 0.259-0.152 0.35l-1.85 1.86 1.85 1.86z">
    </path>
</svg>