<svg id="icon-circle-close" viewBox="0 0 24 24">
    <path fill="#6dc335" style="fill: var(--color2, #6dc335)"
        d="M12 2c-5.523 0-10 4.477-10 10s4.477 10 10 10c5.523 0 10-4.477 10-10 0-2.652-1.054-5.196-2.929-7.071s-4.419-2.929-7.071-2.929zM16.35 9.73l-5.62 5.62c-0.091 0.097-0.217 0.152-0.35 0.152s-0.259-0.055-0.35-0.152l-2.38-2.35c-0.095-0.094-0.148-0.222-0.148-0.355s0.053-0.261 0.148-0.355l0.53-0.53c0.091-0.097 0.217-0.152 0.35-0.152s0.259 0.055 0.35 0.152l1.5 1.49 4.74-4.74c0.194-0.191 0.506-0.191 0.7 0l0.53 0.53c0.184 0.193 0.184 0.497 0 0.69z">
    </path>
</svg>