<?xml version="1.0" encoding="UTF-8"?>
<svg width="16px" height="16px" viewBox="0 0 16 16" version="1.1" xmlns="http://www.w3.org/2000/svg" xmlns:xlink="http://www.w3.org/1999/xlink">
    <title></title>
    <g id="页面-1" stroke="none" stroke-width="1" fill="none" fill-rule="evenodd">
        <g id="羲和/模型/模型搜索页面" transform="translate(-618.000000, -612.000000)">
            <g id="编组-14" transform="translate(240.000000, 284.000000)">
                <g id="编组-17" transform="translate(378.000000, 327.000000)">
                    <g id="垃圾桶,删除" transform="translate(0.000000, 1.000000)">
                        <rect id="矩形" x="0" y="0" width="16" height="16"></rect>
                        <path d="M11.7246607,2.54359927 L11.6840396,2.41079973 C11.4262523,1.57181916 10.651328,1 9.77328873,1 L6.72671127,1 C5.84867202,1 5.07374769,1.57181916 4.81596036,2.41236208 L4.77533933,2.54516161 C4.64566448,2.96543306 4.25820233,3.25134264 3.8191827,3.25134264 L1.50065911,3.25134264 C1.22412361,3.25134264 1.00070794,3.47475833 1.00070794,3.75129381 C1.00070794,4.0278293 1.22412363,4.25124498 1.50065911,4.251245 L2.25058588,4.251245 C2.38807245,4.251245 2.50056147,4.36373402 2.50056147,4.50122058 L2.50056147,15.0000976 C2.50056147,15.5516063 2.94895519,16 3.50046383,16 L12.9995362,16 C13.5510448,16 13.9994385,15.5516063 13.9994385,15.0000976 L13.9994385,4.49965823 C13.9994385,4.36217166 14.1119275,4.24968264 14.2494141,4.24968264 L14.9993409,4.24968264 C15.2758764,4.24968264 15.4992921,4.02626695 15.4992921,3.74973147 C15.4992921,3.47319598 15.2758764,3.2497803 14.9993409,3.2497803 L12.6808173,3.2497803 C12.2417977,3.2497803 11.8543355,2.96387072 11.7246607,2.54359927 Z M6.72671127,1.99990236 L9.77172639,1.99990236 C10.210746,1.99990236 10.5982082,2.28581194 10.727883,2.70608339 L10.8950542,3.2497803 L5.60494581,3.2497803 L5.77211698,2.70608339 C5.90022947,2.28581194 6.28769164,1.99990236 6.72671127,1.99990236 Z M3.75043941,14.9985353 C3.61295283,14.9985353 3.50046383,14.8860463 3.50046383,14.7485597 L3.50046383,4.49965823 C3.50046383,4.36217166 3.61295284,4.24968264 3.75043941,4.24968264 L12.7495606,4.24968264 C12.8870472,4.24968264 12.9995362,4.36217166 12.9995362,4.49965823 L12.9995362,14.7485597 C12.9995362,14.8860463 12.8870472,14.9985353 12.7495606,14.9985353 L3.75043941,14.9985353 Z" id="形状" fill="#555555" fill-rule="nonzero"></path>
                        <path d="M5.25029294,6.74943853 L5.25029294,12.748755 C5.25029294,13.0252905 5.47370863,13.2487062 5.75024412,13.2487062 C6.02677959,13.2487062 6.25019528,13.0252905 6.2501953,12.748755 L6.2501953,6.74943853 C6.2501953,6.47290303 6.02677961,6.24948736 5.75024412,6.24948736 C5.47370861,6.24948736 5.25029294,6.47290305 5.25029294,6.74943853 Z M7.75004883,6.74943853 L7.75004883,12.748755 C7.75004883,13.0252905 7.97346452,13.2487062 8.25,13.2487062 C8.52653548,13.2487062 8.74995117,13.0252905 8.74995117,12.748755 L8.74995117,6.74943853 C8.74995117,6.47290303 8.52653548,6.24948736 8.25,6.24948736 C7.97346452,6.24948736 7.75004883,6.47290305 7.75004883,6.74943853 Z M10.2498047,6.74943853 L10.2498047,12.748755 C10.2498047,13.0252905 10.4732204,13.2487062 10.7497559,13.2487062 C11.0262914,13.2487062 11.2497071,13.0252905 11.2497071,12.748755 L11.2497071,6.74943853 C11.2497071,6.47290303 11.0262914,6.24948736 10.7497559,6.24948736 C10.4732204,6.24948736 10.2498047,6.47290305 10.2498047,6.74943853 Z" id="形状" fill="#555555" fill-rule="nonzero"></path>
                    </g>
                </g>
            </g>
        </g>
    </g>
</svg>