<?xml version="1.0" encoding="UTF-8"?>
<svg width="16px" height="16px" viewBox="0 0 16 16" version="1.1" xmlns="http://www.w3.org/2000/svg" xmlns:xlink="http://www.w3.org/1999/xlink">
    <title>切片</title>
    <g id="页面-1" stroke="none" stroke-width="1" fill="none" fill-rule="evenodd">
        <g id="他人项目/项目搜索页备份-5" transform="translate(-1574.000000, -445.000000)">
            <g id="编组-17" transform="translate(1574.000000, 444.000000)">
                <g id="icon-clear" transform="translate(0.000000, 1.000000)">
                    <rect id="矩形" x="0" y="0" width="16" height="16"></rect>
                    <path d="M8.83333333,1.66666667 L7,1.66666667 C6.35566779,1.66666667 5.83333333,2.18900113 5.83333333,2.83333333 L5.83333333,6.16666667 C5.83333333,6.44280904 6.05719096,6.66666667 6.33333333,6.66666667 L9.5,6.66666667 C9.77614237,6.66666667 10,6.44280904 10,6.16666667 L10,2.83333333 C10,2.18900113 9.47766554,1.66666667 8.83333333,1.66666667 Z M8.83333333,2.66666667 L8.88601289,2.67516344 C8.95224371,2.69721148 9,2.75969537 9,2.83333333 L9,5.666 L6.833,5.666 L6.83333333,2.83333333 C6.83333333,2.74128588 6.90795254,2.66666667 7,2.66666667 L8.83333333,2.66666667 Z" id="矩形" fill="#373B42" fill-rule="nonzero"></path>
                    <path d="M13.5,5.66666667 L2.5,5.66666667 C1.85566779,5.66666667 1.33333333,6.18900113 1.33333333,6.83333333 L1.33333333,7.16666667 C1.33333333,7.81099887 1.85566779,8.33333333 2.5,8.33333333 L13.5,8.33333333 C14.1443322,8.33333333 14.6666667,7.81099887 14.6666667,7.16666667 L14.6666667,6.83333333 C14.6666667,6.18900113 14.1443322,5.66666667 13.5,5.66666667 Z M13.5,6.66666667 C13.5920475,6.66666667 13.6666667,6.74128588 13.6666667,6.83333333 L13.6666667,7.16666667 C13.6666667,7.25871412 13.5920475,7.33333333 13.5,7.33333333 L2.5,7.33333333 C2.40795254,7.33333333 2.33333333,7.25871412 2.33333333,7.16666667 L2.33333333,6.83333333 C2.33333333,6.74128588 2.40795254,6.66666667 2.5,6.66666667 L13.5,6.66666667 Z" id="矩形备份" fill="#373B42" fill-rule="nonzero"></path>
                    <path d="M2.66666667,7.33333333 C2.94280904,7.33333333 3.16666667,7.55719096 3.16666667,7.83333333 L3.16666667,13.1666667 C3.16666667,13.2587141 3.24128588,13.3333333 3.33333333,13.3333333 L12.6666667,13.3333333 C12.7587141,13.3333333 12.8333333,13.2587141 12.8333333,13.1666667 L12.8333333,9.50086473 C12.8333333,9.22472235 13.057191,9.00086473 13.3333333,9.00086473 C13.6094757,9.00086473 13.8333333,9.22472235 13.8333333,9.50086473 L13.8333333,13.1666667 C13.8333333,13.8109989 13.3109989,14.3333333 12.6666667,14.3333333 L3.33333333,14.3333333 C2.68900113,14.3333333 2.16666667,13.8109989 2.16666667,13.1666667 L2.16666667,7.83333333 C2.16666667,7.55719096 2.39052429,7.33333333 2.66666667,7.33333333 Z" id="路径" fill="#373B42" fill-rule="nonzero"></path>
                    <path d="M5.4599306,11.3271028 C5.73607297,11.3271028 5.9599306,11.5509604 5.9599306,11.8271028 L5.9599306,13.8271028 C5.9599306,14.1032452 5.73607297,14.3271028 5.4599306,14.3271028 C5.18378822,14.3271028 4.9599306,14.1032452 4.9599306,13.8271028 L4.9599306,11.8271028 C4.9599306,11.5509604 5.18378822,11.3271028 5.4599306,11.3271028 Z" id="路径-260" fill="#373B42" fill-rule="nonzero"></path>
                    <path d="M7.9599306,10.6604361 C8.23607297,10.6604361 8.4599306,10.8842938 8.4599306,11.1604361 L8.4599306,13.8271028 C8.4599306,14.1032452 8.23607297,14.3271028 7.9599306,14.3271028 C7.68378822,14.3271028 7.4599306,14.1032452 7.4599306,13.8271028 L7.4599306,11.1604361 C7.4599306,10.8842938 7.68378822,10.6604361 7.9599306,10.6604361 Z" id="路径-260备份" fill="#373B42" fill-rule="nonzero"></path>
                    <path d="M10.4599306,11.3271028 C10.736073,11.3271028 10.9599306,11.5509604 10.9599306,11.8271028 L10.9599306,13.8271028 C10.9599306,14.1032452 10.736073,14.3271028 10.4599306,14.3271028 C10.1837882,14.3271028 9.9599306,14.1032452 9.9599306,13.8271028 L9.9599306,11.8271028 C9.9599306,11.5509604 10.1837882,11.3271028 10.4599306,11.3271028 Z" id="路径-260备份-2" fill="#373B42" fill-rule="nonzero"></path>
                </g>
            </g>
        </g>
    </g>
</svg>