<?xml version="1.0" encoding="UTF-8"?>
<svg width="32px" height="32px" viewBox="0 0 32 32" version="1.1" xmlns="http://www.w3.org/2000/svg" xmlns:xlink="http://www.w3.org/1999/xlink">
    <title>编组 21</title>
    <g id="完整" stroke="none" stroke-width="1" fill="none" fill-rule="evenodd">
        <g id="大模型/紫东太初" transform="translate(-1542.000000, -3512.000000)">
            <g id="编组-21" transform="translate(1542.000000, 3512.000000)">
                <circle id="椭圆形" fill-opacity="0.5" fill="#000000" cx="16" cy="16" r="16"></circle>
                <g id="编组" transform="translate(4.000000, 4.000000)" fill="#FFFFFF">
                    <g id="Icon-color-2" transform="translate(6.002101, 6.002101)">
                        <path d="M11.8478992,10.4378992 C11.9425555,10.5317825 11.9957983,10.6595804 11.9957983,10.7928992 C11.9957983,10.9262179 11.9425555,11.0540159 11.8478992,11.1478992 L11.1478992,11.8478992 C11.0540159,11.9425555 10.9262179,11.9957983 10.7928992,11.9957983 C10.6595804,11.9957983 10.5317825,11.9425555 10.4378992,11.8478992 L5.99789916,7.40789916 L1.55789916,11.8478992 C1.46401586,11.9425555 1.33621793,11.9957983 1.20289916,11.9957983 C1.06958039,11.9957983 0.941782462,11.9425555 0.847899162,11.8478992 L0.147899162,11.1478992 C0.0532428368,11.0540159 -1.0658141e-14,10.9262179 -1.0658141e-14,10.7928992 C-1.0658141e-14,10.6595804 0.0532428368,10.5317825 0.147899162,10.4378992 L4.58789916,5.99789916 L0.147899162,1.55789916 C0.0532428368,1.46401586 -1.0658141e-14,1.33621793 -1.0658141e-14,1.20289916 C-1.0658141e-14,1.06958039 0.0532428368,0.941782462 0.147899162,0.847899162 L0.847899162,0.147899162 C0.941782462,0.0532428368 1.06958039,-1.0658141e-14 1.20289916,-1.0658141e-14 C1.33621793,-1.0658141e-14 1.46401586,0.0532428368 1.55789916,0.147899162 L5.99789916,4.58789916 L10.4378992,0.147899162 C10.5317825,0.0532428368 10.6595804,-1.0658141e-14 10.7928992,-1.0658141e-14 C10.9262179,-1.0658141e-14 11.0540159,0.0532428368 11.1478992,0.147899162 L11.8478992,0.847899162 C11.9425555,0.941782462 11.9957983,1.06958039 11.9957983,1.20289916 C11.9957983,1.33621793 11.9425555,1.46401586 11.8478992,1.55789916 L7.40789916,5.99789916 L11.8478992,10.4378992 Z" id="Icon-color"></path>
                    </g>
                </g>
            </g>
        </g>
    </g>
</svg>