<!-- Generated by IcoMoon.io -->
<svg version="1.1" xmlns="http://www.w3.org/2000/svg" width="32" height="32" viewBox="0 0 32 32">
<title>cloud</title>
<path fill="currentColor" d="M16 5.333c-4.417 0-8 3.581-8 8-3.683 0-6.667 2.985-6.667 6.667s2.984 6.667 6.667 6.667h15.333c4.049 0 7.333-3.283 7.333-7.333 0-3.864-2.991-7.023-6.783-7.305-0.624-3.796-3.912-6.695-7.884-6.695zM16 8c2.619 0 4.828 1.876 5.252 4.461l0.257 1.552c0.049 0.304 0.3 0.535 0.608 0.557l1.421 0.105c2.144 0.16 4.013 1.696 4.387 3.812 0.52 2.944-1.741 5.512-4.592 5.512h-15.175c-1.935 0-3.712-1.304-4.080-3.203-0.497-2.553 1.455-4.797 3.921-4.797h2c0.368 0 0.667-0.299 0.667-0.667v-2c0-2.941 2.392-5.333 5.333-5.333z"></path>
</svg>
