<?xml version="1.0" encoding="UTF-8"?>
<svg width="48px" height="48px" viewBox="0 0 48 48" version="1.1" xmlns="http://www.w3.org/2000/svg" xmlns:xlink="http://www.w3.org/1999/xlink">
    <title>切片</title>
    <g id="页面-1" stroke="none" stroke-width="1" fill="none" fill-rule="evenodd">
        <g id="产业/产业首页-电力专区" transform="translate(-956.000000, -3087.000000)">
            <g id="编组-43" transform="translate(252.000000, 3036.000000)">
                <g id="编组-11" transform="translate(668.000000, 51.000000)">
                    <g id="icon/MindSpore/48/总下载量" transform="translate(36.000000, 0.000000)">
                        <g id="编组" transform="translate(5.609101, 4.609101)">
                            <path d="M11.6983188,37.1401739 L28.4147246,37.1401739 L28.4147246,25.7811014 C29.955942,24.5052754 31.2366377,22.9064348 32.1383188,21.1274203 C33.1755362,19.0789565 33.7014493,16.8681739 33.7014493,14.5575652 C33.7014493,6.53008696 27.1705507,0 19.1438841,0 C11.1829565,0 4.69426087,6.42214493 4.58713043,14.357913 L0,24.9013333 L3.66515942,24.9013333 L3.66515942,32.1951304 L10.7771594,32.1951304 L10.7771594,27.969971" id="Fill-1" fill="#40ADFF"></path>
                            <path d="M10.8391652,37.1401739 L28.4142377,37.1401739 L28.4142377,25.7811014 C29.9562667,24.5052754 31.2369623,22.9064348 32.1378319,21.1274203 C33.1750493,19.0789565 33.7017739,16.8681739 33.7017739,14.5575652 C33.7017739,6.53008696 27.1708754,0 19.1433971,0 C11.1832812,0 4.69458551,6.42214493 4.58745507,14.357913 L0.000324637681,24.9013333 L3.66467246,24.9013333 L3.66467246,32.1951304 L10.8261797,32.1951304 L10.7774841,27.969971" id="Fill-3" fill="#0D8DFF"></path>
                            <polyline id="Stroke-5" stroke="#000000" stroke-width="1.5" points="18.6007652 27.4029913 18.6007652 32.1954551 32.6283594 32.1954551"></polyline>
                            <path d="M36.6289275,32.2750609 C36.6289275,33.3798791 35.7335566,34.2750609 34.6293503,34.2750609 C33.5242985,34.2750609 32.6289275,33.3798791 32.6289275,32.2750609 C32.6289275,31.1702426 33.5242985,30.2750609 34.6293503,30.2750609 C35.7335566,30.2750609 36.6289275,31.1702426 36.6289275,32.2750609 Z" id="Stroke-9" stroke="#000000" stroke-width="1.5" fill="#FFC609"></path>
                            <path d="M27.6829101,12.863687 C27.501113,12.2663536 27.2616928,11.687687 26.9662725,11.1374261 L27.4110261,9.68061449 L24.5347362,6.80107826 L23.077113,7.24664348 C22.5268522,6.95041159 21.9489971,6.71017971 21.3508522,6.5300058 L20.6342145,5.19493333 L16.563258,5.19493333 L15.8490551,6.5300058 C15.2509101,6.71017971 14.6722435,6.95041159 14.1219826,7.24664348 L12.665171,6.80107826 L9.78563478,9.68061449 L10.2312,11.1374261 C9.9374029,11.6884986 9.69798261,12.2663536 9.5169971,12.863687 L8.17056232,13.5803246 L8.17056232,17.6512812 L9.5169971,18.3654841 C9.69798261,18.963629 9.9365913,19.5422957 10.2312,20.0925565 L9.78563478,21.5493681 L12.665171,24.4289043 L14.1219826,23.9833391 C14.6730551,24.2779478 15.2517217,24.5165565 15.8490551,24.697542 L16.563258,26.0326145 L20.6342145,26.0326145 L21.3508522,24.697542 C21.9481855,24.5165565 22.5260406,24.2771362 23.077113,23.9833391 L24.5347362,24.4289043 L27.4134609,21.5493681 L26.9687072,20.0925565 C27.2641275,19.5422957 27.5043594,18.963629 27.6845333,18.3654841 L29.0309681,17.6512812 L29.0309681,13.5803246 L27.6829101,12.863687 Z" id="Fill-11" fill="#FFC609"></path>
                            <path d="M27.6829101,12.863687 C27.501113,12.2663536 27.2616928,11.687687 26.9662725,11.1374261 L27.4110261,9.68061449 L24.5347362,6.80107826 L23.077113,7.24664348 C22.5268522,6.95041159 21.9489971,6.71017971 21.3508522,6.5300058 L20.6342145,5.19493333 L16.563258,5.19493333 L15.8490551,6.5300058 C15.2509101,6.71017971 14.6722435,6.95041159 14.1219826,7.24664348 L12.665171,6.80107826 L9.78563478,9.68061449 L10.2312,11.1374261 C9.9374029,11.6884986 9.69798261,12.2663536 9.5169971,12.863687 L8.17056232,13.5803246 L8.17056232,17.6512812 L9.5169971,18.3654841 C9.69798261,18.963629 9.9365913,19.5422957 10.2312,20.0925565 L9.78563478,21.5493681 L12.665171,24.4289043 L14.1219826,23.9833391 C14.6730551,24.2779478 15.2517217,24.5165565 15.8490551,24.697542 L16.563258,26.0326145 L20.6342145,26.0326145 L21.3508522,24.697542 C21.9481855,24.5165565 22.5260406,24.2771362 23.077113,23.9833391 L24.5347362,24.4289043 L27.4134609,21.5493681 L26.9687072,20.0925565 C27.2641275,19.5422957 27.5043594,18.963629 27.6845333,18.3654841 L29.0309681,17.6512812 L29.0309681,13.5803246 L27.6829101,12.863687 Z" id="Stroke-13" stroke="#000000" stroke-width="1.5"></path>
                            <path d="M25.3194667,15.6138551 C25.3194667,19.3244638 22.3116986,22.3322319 18.6010899,22.3322319 C14.8896696,22.3322319 11.8819014,19.3244638 11.8819014,15.6138551 C11.8819014,11.9032464 14.8896696,8.89466667 18.6010899,8.89466667 C22.3116986,8.89466667 25.3194667,11.9032464 25.3194667,15.6138551" id="Fill-15" fill="#FFFFFF"></path>
                            <path d="M25.3194667,15.6138551 C25.3194667,19.3244638 22.3116986,22.3322319 18.6010899,22.3322319 C14.8896696,22.3322319 11.8819014,19.3244638 11.8819014,15.6138551 C11.8819014,11.9032464 14.8896696,8.89466667 18.6010899,8.89466667 C22.3116986,8.89466667 25.3194667,11.9032464 25.3194667,15.6138551 Z" id="Stroke-17" stroke="#000000" stroke-width="1.5"></path>
                            <path d="M18.6007652,26.9127884 L18.6007652,26.9127884 C16.5888232,26.9127884 14.9583304,25.2822957 14.9583304,23.2703536 L14.9583304,20.6188754 L22.2432,20.6188754 L22.2432,23.2703536 C22.2432,25.2822957 20.6127072,26.9127884 18.6007652,26.9127884" id="Fill-19" fill="#FFFFFF"></path>
                            <path d="M18.6007652,26.9127884 L18.6007652,26.9127884 C16.5888232,26.9127884 14.9583304,25.2822957 14.9583304,23.2703536 L14.9583304,20.6188754 L22.2432,20.6188754 L22.2432,23.2703536 C22.2432,25.2822957 20.6127072,26.9127884 18.6007652,26.9127884 Z" id="Stroke-21" stroke="#000000" stroke-width="1.5"></path>
                            <line x1="18.6007652" y1="20.9102377" x2="18.6007652" y2="15.6137739" id="Stroke-23" stroke="#000000" stroke-width="1.5"></line>
                            <path d="M20.4670029,15.4805544 C20.4670029,16.585367 19.5716054,17.4801739 18.4670029,17.4801739 C17.3624004,17.4801739 16.4670029,16.585367 16.4670029,15.4805544 C16.4670029,14.3757417 17.3624004,13.4801739 18.4670029,13.4801739 C19.5716054,13.4801739 20.4670029,14.3757417 20.4670029,15.4805544 Z" id="Stroke-27" stroke="#000000" stroke-width="1.5" fill="#FFFFFF"></path>
                            <path d="M11.6983188,37.1401739 L28.4147246,37.1401739 L28.4147246,25.7811014 C29.955942,24.5052754 31.2366377,22.9064348 32.1383188,21.1274203 C33.1755362,19.0789565 33.7014493,16.8681739 33.7014493,14.5575652 C33.7014493,6.53008696 27.1705507,0 19.1438841,0 C11.1829565,0 4.69426087,6.42214493 4.58713043,14.357913 L0,24.9013333 L3.66515942,24.9013333 L3.66515942,32.1951304 L10.7771594,32.1951304 L10.7771594,27.969971" id="Stroke-29" stroke="#000000" stroke-width="1.5" stroke-linejoin="round"></path>
                            <path d="M13.9620754,37.219942 C13.9620754,38.3247603 13.0660483,39.219942 11.9620754,39.219942 C10.8572571,39.219942 9.96207536,38.3247603 9.96207536,37.219942 C9.96207536,36.1151238 10.8572571,35.219942 11.9620754,35.219942 C13.0660483,35.219942 13.9620754,36.1151238 13.9620754,37.219942 Z" id="Stroke-33" stroke="#000000" stroke-width="1.5" fill="#FFC609"></path>
                        </g>
                    </g>
                </g>
            </g>
        </g>
    </g>
</svg>