<?xml version="1.0" encoding="UTF-8"?>
<svg width="16px" height="16px" viewBox="0 0 16 16" version="1.1" xmlns="http://www.w3.org/2000/svg" xmlns:xlink="http://www.w3.org/1999/xlink">
    <title>切片</title>
    <g id="完整" stroke="none" stroke-width="1" fill="none" fill-rule="evenodd">
        <g id="我的项目/训练-训练列表" transform="translate(-420.000000, -746.000000)" fill="#33B3FF">
            <g id="ico-/-24-/-files-/-files_outlined备份-8" transform="translate(420.000000, 746.000000)">
                <path d="M8,1.33333333 C4.31810167,1.33333333 1.33333333,4.31810167 1.33333333,8 C1.33333333,11.6818983 4.31810167,14.6666667 8,14.6666667 C11.6818983,14.6666667 14.6666667,11.6818983 14.6666667,8 C14.6666667,6.23189007 13.9642877,4.53619732 12.7140452,3.28595479 C11.4638027,2.03571227 9.76810993,1.33333333 8,1.33333333 Z M10.6666667,8.33333333 C10.6666667,8.51742825 10.5174282,8.66666667 10.3333333,8.66666667 L8.66666667,8.66666667 L8.66666667,10.3333333 C8.66666667,10.5174282 8.51742825,10.6666667 8.33333333,10.6666667 L7.66666667,10.6666667 C7.48257175,10.6666667 7.33333333,10.5174282 7.33333333,10.3333333 L7.33333333,8.66666667 L5.66666667,8.66666667 C5.48257175,8.66666667 5.33333333,8.51742825 5.33333333,8.33333333 L5.33333333,7.66666667 C5.33333333,7.48257175 5.48257175,7.33333333 5.66666667,7.33333333 L7.33333333,7.33333333 L7.33333333,5.66666667 C7.33333333,5.48257175 7.48257175,5.33333333 7.66666667,5.33333333 L8.33333333,5.33333333 C8.51742825,5.33333333 8.66666667,5.48257175 8.66666667,5.66666667 L8.66666667,7.33333333 L10.3333333,7.33333333 C10.5174282,7.33333333 10.6666667,7.48257175 10.6666667,7.66666667 L10.6666667,8.33333333 Z" id="Icon-color"></path>
            </g>
        </g>
    </g>
</svg>