<?xml version="1.0" encoding="UTF-8"?>
<svg width="48px" height="48px" viewBox="0 0 48 48" version="1.1" xmlns="http://www.w3.org/2000/svg" xmlns:xlink="http://www.w3.org/1999/xlink">
    <title>编组 48</title>
    <g id="完整" stroke="none" stroke-width="1" fill="none" fill-rule="evenodd">
        <g id="产业/产业首页" transform="translate(-1053.000000, -536.000000)">
            <g id="编组" transform="translate(252.000000, 496.000000)">
                <g id="编组-48" transform="translate(801.000000, 40.000000)">
                    <rect id="矩形" fill-opacity="0.2" fill="#999999" x="0" y="0" width="48" height="48" rx="8"></rect>
                    <g id="编组" transform="translate(8.000000, 6.109060)">
                        <rect id="矩形备份-3" x="0" y="2.84691231" width="32" height="29.0880554"></rect>
                        <path d="M23.2608719,14.5896833 L22.1676596,18.7869524 C22.0183516,19.3602039 21.570064,19.8074932 20.996481,19.9555227 L9.00649336,23.0498814 C8.13399089,23.2750556 7.24414814,22.7502923 7.01897396,21.8777898 C6.95021499,21.6113633 6.9499534,21.3318747 7.01821352,21.06532 L10.1030035,9.01926216 C10.2508203,8.44203957 10.7015445,7.99130084 11.2787623,7.84346531 L23.3186567,4.75983873 C24.1915719,4.53626995 25.0804478,5.06266924 25.3040166,5.93558446 C25.3725955,6.20334784 25.3720242,6.48414463 25.3023563,6.75162673 L24.7004016,9.06276601 L24.7004016,9.06276601" id="路径" stroke="#999999" stroke-width="1.2" stroke-linecap="round" stroke-linejoin="round" transform="translate(16.166667, 13.906433) rotate(45.000000) translate(-16.166667, -13.906433) "></path>
                        <path d="M23.2608719,21.5586965 L22.1676596,25.7559657 C22.0183516,26.3292172 21.570064,26.7765065 20.996481,26.924536 L9.00649336,30.0188947 C8.13399089,30.2440689 7.24414814,29.7193056 7.01897396,28.8468031 C6.95021499,28.5803766 6.9499534,28.300888 7.01821352,28.0343332 L10.1030035,15.9882754 C10.2508203,15.4110528 10.7015445,14.9603141 11.2787623,14.8124786 L23.3186567,11.728852 C24.1915719,11.5052832 25.0804478,12.0316825 25.3040166,12.9045977 C25.3725955,13.1723611 25.3720242,13.4531579 25.3023563,13.72064 L24.7004016,16.0317793 L24.7004016,16.0317793" id="路径备份" stroke="#999999" stroke-width="1.2" stroke-linecap="round" stroke-linejoin="round" transform="translate(16.166667, 20.875447) scale(-1, -1) rotate(45.000000) translate(-16.166667, -20.875447) "></path>
                        <path d="M14.2414839,15.348719 L18.4430653,14.4819701 C18.6233638,14.4447761 18.7996763,14.5607852 18.8368702,14.7410837 C18.8460365,14.7855172 18.8460356,14.8313542 18.8368677,14.8757874 L17.9709779,19.072399 C17.9443935,19.2012426 17.8445143,19.3023981 17.7160186,19.3306162 L13.4475155,20.2679946 C13.2677053,20.3074815 13.0899298,20.1937271 13.0504428,20.0139168 C13.0401218,19.9669184 13.0400985,19.9182425 13.0503744,19.8712342 L13.9831859,15.6039931 C14.0113065,15.4753527 14.1125213,15.3753228 14.2414839,15.348719 Z" id="矩形" stroke="#999999" stroke-width="1.2" stroke-linecap="round" stroke-linejoin="round" transform="translate(15.939244, 17.379613) rotate(45.000000) translate(-15.939244, -17.379613) "></path>
                        <line x1="16.0047821" y1="12.7291899" x2="16" y2="6.17991866" id="路径-15" stroke="#999999" stroke-width="1.2" stroke-linecap="round" stroke-linejoin="round"></line>
                        <line x1="16.0047821" y1="28.7882204" x2="16" y2="22.2389492" id="路径-15备份" stroke="#999999" stroke-width="1.2" stroke-linecap="round" stroke-linejoin="round"></line>
                    </g>
                </g>
            </g>
        </g>
    </g>
</svg>