<?xml version="1.0" encoding="UTF-8"?>
<svg width="48px" height="48px" viewBox="0 0 48 48" version="1.1" xmlns="http://www.w3.org/2000/svg" xmlns:xlink="http://www.w3.org/1999/xlink">
    <title>编组 36</title>
    <g id="页面-1" stroke="none" stroke-width="1" fill="none" fill-rule="evenodd">
        <g id="产业/产业首页-电力专区" transform="translate(-317.000000, -536.000000)">
            <g id="编组" transform="translate(252.000000, 496.000000)">
                <g id="编组-36" transform="translate(65.000000, 40.000000)">
                    <rect id="矩形" fill="#96CDFF" x="0" y="0" width="48" height="48" rx="8"></rect>
                    <g id="视频结构化" transform="translate(9.000000, 13.000000)" fill="#000000" fill-rule="nonzero">
                        <path d="M22.6666667,21 C23.0348565,21 23.3333333,21.2984769 23.3333333,21.6666667 C23.3333333,22.0085572 23.0759732,22.2903381 22.7444141,22.3288482 L22.6666667,22.3333333 L6.66666667,22.3333333 C6.29847687,22.3333333 6,22.0348565 6,21.6666667 C6,21.3247761 6.25736013,21.0429952 6.58891927,21.0044851 L6.66666667,21 L22.6666667,21 Z M28.6666667,0 L0.666666667,0 C0.298476833,0 0,0.298476833 0,0.666666667 L0,18.6666667 C0,19.0348565 0.298476833,19.3333333 0.666666667,19.3333333 L28.6666667,19.3333333 C29.0348565,19.3333333 29.3333333,19.0348565 29.3333333,18.6666667 L29.3333333,0.666666667 C29.3333333,0.298476833 29.0348565,0 28.6666667,0 Z M28,1.33333333 L28,18 L1.33333333,18 L1.33333333,1.33333333 L28,1.33333333 Z" id="group1"></path>
                        <path d="M14.466675,4.66666667 C16.3810576,4.66666667 18.2664308,5.44873747 19.9357433,6.7262832 C19.9832608,6.76264893 20.0304559,6.79933987 20.0772874,6.83630953 L20.0772874,6.83630953 L20.3535814,7.06109867 C20.5344276,7.2126908 20.7081331,7.3672514 20.8720548,7.52180053 L20.8720548,7.52180053 L21.110269,7.75324313 C21.8009154,8.44531 22.266675,9.10697067 22.266675,9.46666667 C22.266675,9.82636267 21.8009154,10.4880233 21.110269,11.1800902 L21.110269,11.1800902 L20.8720548,11.4115328 C20.7081331,11.5660819 20.5344276,11.7206425 20.3535814,11.8722347 L20.3535814,11.8722347 L20.0772874,12.0970238 L19.9357433,12.2070501 C18.2664308,13.4845959 16.3810576,14.2666667 14.466675,14.2666667 C12.5522924,14.2666667 10.6669192,13.4845959 8.99760676,12.2070501 C8.95008922,12.1706844 8.90289416,12.1339935 8.85606269,12.0970238 L8.85606269,12.0970238 L8.57976862,11.8722347 C8.39892249,11.7206425 8.22521696,11.5660819 8.06129529,11.4115328 L8.06129529,11.4115328 L7.82308109,11.1800902 C7.13243469,10.4880233 6.66667502,9.82636267 6.66667502,9.46666667 C6.66667502,9.10697067 7.13243469,8.44531 7.82308109,7.75324313 L7.82308109,7.75324313 L8.06129529,7.52180053 C8.22521696,7.3672514 8.39892249,7.2126908 8.57976862,7.06109867 L8.57976862,7.06109867 L8.85606269,6.83630953 L8.99760676,6.7262832 C10.6669192,5.44873747 12.5522924,4.66666667 14.466675,4.66666667 Z M14.466675,5.6 C12.7828213,5.6 11.0844289,6.3045094 9.56484382,7.4674668 C9.52453642,7.4983146 9.48442302,7.52955347 9.44454836,7.56111527 L9.44454836,7.56111527 L9.20852236,7.7538138 C9.16978136,7.78639387 9.13136842,7.8191602 9.09332836,7.85204453 L9.09332836,7.85204453 L8.86991922,8.0502204 L8.65760342,8.24795073 C8.62326116,8.28068653 8.58947042,8.31326727 8.55627609,8.34562453 L8.55627609,8.34562453 L8.36462362,8.53654107 L8.10867369,8.80569233 C8.08256022,8.8341084 8.05726662,8.8619596 8.03283756,8.88917767 L8.03283756,8.88917767 L7.89699536,9.04434253 L7.78404802,9.18103487 L7.69614129,9.29597713 C7.63391529,9.3817894 7.60000836,9.44153107 7.60000836,9.46666667 C7.60000836,9.4968294 7.64883429,9.57682487 7.73683042,9.69190367 L7.73683042,9.69190367 L7.83752569,9.81813073 L7.96218869,9.964469 L8.10867369,10.127641 L8.36462362,10.3967923 C8.39525389,10.4279828 8.42656982,10.4595333 8.45852676,10.4913755 L8.45852676,10.4913755 L8.65760342,10.6853826 L8.86991922,10.8831129 C8.90628922,10.9161962 8.94312142,10.949298 8.98037122,10.9823501 L8.98037122,10.9823501 L9.20852236,11.1795195 L9.44454836,11.3722181 L9.56484382,11.4658665 C11.0844289,12.6288239 12.7828213,13.3333333 14.466675,13.3333333 C16.1505288,13.3333333 17.8489212,12.6288239 19.3685062,11.4658665 C19.4088136,11.4350187 19.448927,11.4037799 19.4888017,11.3722181 L19.4888017,11.3722181 L19.7248277,11.1795195 C19.7635687,11.1469395 19.8019816,11.1141731 19.8400217,11.0812888 L19.8400217,11.0812888 L20.0634308,10.8831129 L20.2757466,10.6853826 C20.3100889,10.6526468 20.3438796,10.6200661 20.377074,10.5877088 L20.377074,10.5877088 L20.5687264,10.3967923 L20.8246764,10.127641 C20.8507898,10.0992249 20.8760834,10.0713737 20.9005125,10.0441557 L20.9005125,10.0441557 L21.0363547,9.8889908 L21.149302,9.75229847 L21.2372088,9.6373562 C21.2994348,9.55154393 21.3333417,9.49180227 21.3333417,9.46666667 C21.3333417,9.43650393 21.2845158,9.35650847 21.1965196,9.24142967 L21.1965196,9.24142967 L21.0958244,9.1152026 L20.9711614,8.96886433 L20.8246764,8.80569233 L20.5687264,8.53654107 C20.5380962,8.50535053 20.5067802,8.47380007 20.4748233,8.44195787 L20.4748233,8.44195787 L20.2757466,8.24795073 L20.0634308,8.0502204 C20.0270608,8.01713713 19.9902286,7.98403533 19.9529788,7.95098327 L19.9529788,7.95098327 L19.7248277,7.7538138 L19.4888017,7.56111527 L19.3685062,7.4674668 C17.8489212,6.3045094 16.1505288,5.6 14.466675,5.6 Z M14.466675,7.33333333 C15.6448825,7.33333333 16.6000084,8.2884592 16.6000084,9.46666667 C16.6000084,10.6448741 15.6448825,11.6 14.466675,11.6 C13.2884676,11.6 12.3333417,10.6448741 12.3333417,9.46666667 C12.3333417,8.2884592 13.2884676,7.33333333 14.466675,7.33333333 Z M14.466675,8.26666667 C13.8039334,8.26666667 13.266675,8.803925 13.266675,9.46666667 C13.266675,10.1294083 13.8039334,10.6666667 14.466675,10.6666667 C15.1294167,10.6666667 15.666675,10.1294083 15.666675,9.46666667 C15.666675,8.803925 15.1294167,8.26666667 14.466675,8.26666667 Z" id="group2"></path>
                    </g>
                </g>
            </g>
        </g>
    </g>
</svg>