<?xml version="1.0" encoding="UTF-8"?>
<svg width="24px" height="24px" viewBox="0 0 24 24" version="1.1" xmlns="http://www.w3.org/2000/svg" xmlns:xlink="http://www.w3.org/1999/xlink">
    <title>切片</title>
    <g id="完整" stroke="none" stroke-width="1" fill="none" fill-rule="evenodd">
        <g id="我的数据集/文件" transform="translate(-264.000000, -385.000000)" fill="#004A8C">
            <g id="ico-/-24-/-files-/-folder_outlined" transform="translate(264.000000, 385.000000)">
                <path d="M4,15 L4,13 C4,12.4477153 4.44771525,12 5,12 L7,12 C7.55228475,12 8,12.4477153 8,13 L8,15 C8,15.5522847 7.55228475,16 7,16 L5,16 C4.44771525,16 4,15.5522847 4,15 Z M11,16 L13,16 C13.5522847,16 14,15.5522847 14,15 L14,5 C14,4.44771525 13.5522847,4 13,4 L11,4 C10.4477153,4 10,4.44771525 10,5 L10,15 C10,15.5522847 10.4477153,16 11,16 Z M17,16 L19,16 C19.5522847,16 20,15.5522847 20,15 L20,9 C20,8.44771525 19.5522847,8 19,8 L17,8 C16.4477153,8 16,8.44771525 16,9 L16,15 C16,15.5522847 16.4477153,16 17,16 Z M21.5,18 L2.5,18 C2.22385763,18 2,18.2238576 2,18.5 L2,19.5 C2,19.7761424 2.22385763,20 2.5,20 L21.5,20 C21.7761424,20 22,19.7761424 22,19.5 L22,18.5 C22,18.2238576 21.7761424,18 21.5,18 Z" id="Icon-color"></path>
            </g>
        </g>
    </g>
</svg>