<?xml version="1.0" encoding="UTF-8"?>
<svg width="32px" height="32px" viewBox="0 0 32 32" version="1.1" xmlns="http://www.w3.org/2000/svg" xmlns:xlink="http://www.w3.org/1999/xlink">
    <title>切片</title>
    <g id="页面-1" stroke="none" stroke-width="1" fill="none" fill-rule="evenodd">
        <g id="我的项目/无文件状态" transform="translate(-1377.000000, -651.000000)" fill="#E5E5E5" fill-rule="nonzero">
            <g id="ico-/-24-/-files-/-folder_outlined备份-3" transform="translate(1377.000000, 651.000000)">
                <path d="M5.33333333,20 L5.33333333,17.3333333 C5.33333333,16.5969537 5.930287,16 6.66666667,16 L9.33333333,16 C10.069713,16 10.6666667,16.5969537 10.6666667,17.3333333 L10.6666667,20 C10.6666667,20.7363797 10.069713,21.3333333 9.33333333,21.3333333 L6.66666667,21.3333333 C5.930287,21.3333333 5.33333333,20.7363797 5.33333333,20 Z M14.6666667,21.3333333 L17.3333333,21.3333333 C18.069713,21.3333333 18.6666667,20.7363797 18.6666667,20 L18.6666667,6.66666667 C18.6666667,5.930287 18.069713,5.33333333 17.3333333,5.33333333 L14.6666667,5.33333333 C13.930287,5.33333333 13.3333333,5.930287 13.3333333,6.66666667 L13.3333333,20 C13.3333333,20.7363797 13.930287,21.3333333 14.6666667,21.3333333 Z M22.6666667,21.3333333 L25.3333333,21.3333333 C26.069713,21.3333333 26.6666667,20.7363797 26.6666667,20 L26.6666667,12 C26.6666667,11.2636203 26.069713,10.6666667 25.3333333,10.6666667 L22.6666667,10.6666667 C21.930287,10.6666667 21.3333333,11.2636203 21.3333333,12 L21.3333333,20 C21.3333333,20.7363797 21.930287,21.3333333 22.6666667,21.3333333 Z M28.6666667,24 L3.33333333,24 C2.9651435,24 2.66666667,24.2984768 2.66666667,24.6666667 L2.66666667,26 C2.66666667,26.3681898 2.9651435,26.6666667 3.33333333,26.6666667 L28.6666667,26.6666667 C29.0348565,26.6666667 29.3333333,26.3681898 29.3333333,26 L29.3333333,24.6666667 C29.3333333,24.2984768 29.0348565,24 28.6666667,24 Z" id="Icon-color"></path>
            </g>
        </g>
    </g>
</svg>