<?xml version="1.0" encoding="UTF-8"?>
<svg width="16px" height="16px" viewBox="0 0 16 16" version="1.1" xmlns="http://www.w3.org/2000/svg" xmlns:xlink="http://www.w3.org/1999/xlink">
    <title>切片</title>
    <g id="完整" stroke="none" stroke-width="1" fill="none" fill-rule="evenodd">
        <g id="比赛/比赛详情-我的团队（未登录，未报名时不显示）--自己的团队" transform="translate(-1418.000000, -778.000000)" fill="#999999">
            <g id="Group-20" transform="translate(292.000000, 599.000000)">
                <g id="ico-/-24-/-files-/-folder_outlined备份" transform="translate(1126.000000, 179.000000)">
                    <path d="M4.00067184,2.99732354 C4.00067184,2.07832712 4.74711484,1.33333333 5.66789894,1.33333333 C6.58868304,1.33333333 7.33512604,2.07832712 7.33512604,2.99732354 C7.33512604,3.91631995 6.58868304,4.66131374 5.66789894,4.66131374 C5.22572282,4.66131374 4.80165709,4.48600099 4.48899135,4.1739423 C4.17632562,3.8618836 4.00067184,3.43864118 4.00067184,2.99732354 Z M9.26244057,8.355372 L8.59554973,7.09073944 C8.26092294,6.42770986 7.58536463,6.00470336 6.84162682,5.99250581 L4.49417106,5.99250581 C3.73839915,5.99227603 3.04700096,6.41712385 2.70690361,7.09073944 L2.07335731,8.355372 C1.96934285,8.56138613 1.97962897,8.806465 2.10054183,9.00307542 C2.2214547,9.19968583 2.43575033,9.31978818 2.66689016,9.32048631 L8.66890772,9.32048631 C8.90004756,9.31978818 9.11434318,9.19968583 9.23525605,9.00307542 C9.35616892,8.806465 9.36645503,8.56138613 9.26244057,8.355372 Z M10.3361348,4.66132718 C11.2569189,4.66132718 12.0033619,3.91631995 12.0033619,2.99732354 C12.0033619,2.07832712 11.2569189,1.33333333 10.3361348,1.33333333 C9.41535072,1.33333333 8.66889426,2.07832712 8.66889426,2.99732354 C8.66712613,3.43918389 8.84220774,3.86346022 9.15526051,4.1759052 C9.46831328,4.48835018 9.89341494,4.66309187 10.3361348,4.66132718 Z M13.9306765,8.355372 L13.2971302,7.09073944 C12.9570328,6.41712385 12.2656346,5.99227603 11.5098627,5.99250581 L9.50919018,5.99250581 C9.63122729,6.15095712 9.73838243,6.32029003 9.82929778,6.49835893 L10.4628441,7.75633552 C10.7040096,8.24416671 10.7353211,8.80908265 10.5495399,9.32048631 L13.3371436,9.32048631 C13.5682834,9.31978818 13.7825791,9.19968583 13.9034919,9.00307542 C14.0244048,8.806465 14.0346909,8.56138613 13.9306765,8.355372 Z M11.6699165,10.6516785 L9.07571113,10.6516785 C8.9423079,10.6535488 8.82286334,10.7346032 8.77206508,10.8577309 C8.72126681,10.9808586 8.7488947,11.1223546 8.84229934,11.2174351 L9.81595997,12.1958614 C9.00214775,13.0974227 7.76117281,13.4854253 6.5774346,13.2084171 C5.39369638,12.9314089 4.45485705,12.033305 4.1273811,10.8646692 C4.07661101,10.7332003 3.94839241,10.6478872 3.8072735,10.6516785 L3.14038266,10.6516785 C3.03869397,10.6511467 2.94255307,10.6978936 2.88029523,10.7781417 C2.81932192,10.8576561 2.79507741,10.9592854 2.81360615,11.0576921 C3.20506649,12.7461822 4.50320527,14.0782757 6.18346264,14.5156919 C7.86372,14.9531081 9.64838382,14.4235513 10.8162962,13.1410078 L11.4831871,13.8066039 C11.5758841,13.9069972 11.7214226,13.9391437 11.847907,13.887163 C11.9743913,13.8351823 12.0550526,13.7100756 12.0500443,13.5736453 L12.0500443,10.9844765 C12.0468099,10.8889472 12.0041366,10.7990059 11.9321409,10.7359743 C11.8601451,10.6729427 11.7652372,10.6424332 11.6699165,10.6516785 Z" id="Icon-color"></path>
                </g>
            </g>
        </g>
    </g>
</svg>