<!-- Generated by IcoMoon.io -->
<svg version="1.1" xmlns="http://www.w3.org/2000/svg" width="24" height="24" viewBox="0 0 24 24">
  <title>icon-dialog</title>
  <path fill="currentColor"
    d="M20 3h-16c-1.105 0-2 0.895-2 2v12c0 1.105 0.895 2 2 2h5.090c0.262 0.001 0.514 0.105 0.7 0.29l1.49 1.49c0.141 0.141 0.331 0.22 0.53 0.22h0.38c0.199 0 0.389-0.079 0.53-0.22l1.49-1.49c0.186-0.185 0.438-0.289 0.7-0.29h5.090c1.105 0 2-0.895 2-2v-12c0-1.105-0.895-2-2-2zM20 17h-5.090c-0.795 0.001-1.558 0.317-2.12 0.88l-0.79 0.79-0.79-0.79c-0.562-0.563-1.325-0.879-2.12-0.88h-5.090v-12h16v12zM6.5 14h7c0.276 0 0.5-0.224 0.5-0.5v-1c0-0.276-0.224-0.5-0.5-0.5h-7c-0.276 0-0.5 0.224-0.5 0.5v1c0 0.276 0.224 0.5 0.5 0.5zM6.5 10h11c0.276 0 0.5-0.224 0.5-0.5v-1c0-0.276-0.224-0.5-0.5-0.5h-11c-0.276 0-0.5 0.224-0.5 0.5v1c0 0.276 0.224 0.5 0.5 0.5z">
  </path>
</svg>