<?xml version="1.0" encoding="UTF-8"?>
<svg width="24px" height="24px" viewBox="0 0 24 24" version="1.1" xmlns="http://www.w3.org/2000/svg" xmlns:xlink="http://www.w3.org/1999/xlink">
    <title>切片</title>
    <g id="完整" stroke="none" stroke-width="1" fill="none" fill-rule="evenodd">
        <g id="大模型/鹏程盘古" transform="translate(-356.000000, -3026.000000)" fill="#555555" fill-rule="nonzero">
            <g id="编组-3" transform="translate(252.000000, 586.000000)">
                <g transform="translate(80.000000, 2416.000000)" id="icon/24/copy">
                    <g transform="translate(24.000000, 24.000000)">
                        <path d="M17,17 L17,3 C17,1.8954305 16.1045695,1 15,1 L9.24,1 C8.4446186,1.00070021 7.68206943,1.31723005 7.12,1.88 L2.88,6.12 C2.31723005,6.68206943 2.00070021,7.4446186 2,8.24 L2,17 C2,18.1045695 2.8954305,19 4,19 L15,19 C16.1045695,19 17,18.1045695 17,17 Z M4,9 L9,9 C9.55228475,9 10,8.55228475 10,8 L10,3 L15,3 L15,17 L4,17 L4,9 Z M12.5,12 L6.5,12 C6.22385763,12 6,12.2238576 6,12.5 L6,13.5 C6,13.7761424 6.22385763,14 6.5,14 L12.5,14 C12.7761424,14 13,13.7761424 13,13.5 L13,12.5 C13,12.2238576 12.7761424,12 12.5,12 Z M19,5 L19,19 C19,20.1045695 18.1045695,21 17,21 L6,21 C6,22.1045695 6.8954305,23 8,23 L17,23 C19.209139,23 21,21.209139 21,19 L21,7 C21,5.8954305 20.1045695,5 19,5 Z" id="Icon-color"></path>
                    </g>
                </g>
            </g>
        </g>
    </g>
</svg>