<svg id="icon-edit-file" viewBox="0 0 24 24">
    <path fill="currentColor"
        d="M21 11.5v7.5c0 1.105-0.895 2-2 2h-14c-1.105 0-2-0.895-2-2v-14c0-1.105 0.895-2 2-2h7.5c0.276 0 0.5 0.224 0.5 0.5v1c0 0.276-0.224 0.5-0.5 0.5h-7.5v14h14v-7.5c0-0.276 0.224-0.5 0.5-0.5h1c0.276 0 0.5 0.224 0.5 0.5zM20.71 3.71l-0.42-0.42c-0.186-0.185-0.438-0.289-0.7-0.29h-0.3c-0.262 0.001-0.514 0.105-0.7 0.29l-1.8 1.8c-0.191 0.194-0.191 0.506 0 0.7l1.42 1.42c0.194 0.191 0.506 0.191 0.7 0l1.8-1.8c0.185-0.186 0.289-0.438 0.29-0.7v-0.3c-0.001-0.262-0.105-0.514-0.29-0.7zM7.83 14.29l-0.79 2c-0.075 0.186-0.031 0.398 0.11 0.54v0c0.142 0.142 0.354 0.185 0.54 0.11l2-0.79c0.254-0.099 0.486-0.248 0.68-0.44l6.63-6.56c0.191-0.194 0.191-0.506 0-0.7l-1.45-1.45c-0.194-0.191-0.506-0.191-0.7 0l-6.58 6.61c-0.192 0.194-0.341 0.426-0.44 0.68z">
    </path>
</svg>