<?xml version="1.0" encoding="UTF-8"?>
<svg width="48px" height="48px" viewBox="0 0 48 48" version="1.1" xmlns="http://www.w3.org/2000/svg" xmlns:xlink="http://www.w3.org/1999/xlink">
    <title>编组 36</title>
    <g id="页面-1" stroke="none" stroke-width="1" fill="none" fill-rule="evenodd">
        <g id="产业/产业首页" transform="translate(-345.000000, -536.000000)">
            <g id="编组" transform="translate(252.000000, 496.000000)">
                <g id="编组-36" transform="translate(93.000000, 40.000000)">
                    <rect id="矩形" fill="#96CDFF" x="0" y="0" width="48" height="48" rx="8"></rect>
                    <g id="编组" transform="translate(8.000000, 8.000000)">
                        <rect id="矩形备份" x="0" y="0" width="32" height="32"></rect>
                        <path d="M16.5980675,3.32845083 L27.1913238,9.14612778 C27.5887183,9.36437159 27.8356805,9.78175416 27.8356805,10.2351334 L27.8356805,21.7648666 C27.8356805,22.2182458 27.5887183,22.6356284 27.1913238,22.8538722 L16.5980675,28.6715492 C16.2255929,28.8761074 15.7744071,28.8761074 15.4019325,28.6715492 L4.80867618,22.8538722 C4.41128171,22.6356284 4.16431948,22.2182458 4.16431948,21.7648666 L4.16431948,10.2351334 C4.16431948,9.78175416 4.41128171,9.36437159 4.80867618,9.14612778 L15.4019325,3.32845083 C15.7744071,3.12389264 16.2255929,3.12389264 16.5980675,3.32845083 Z" id="多边形" stroke="#161616" stroke-width="1.2" stroke-linejoin="round"></path>
                        <polyline id="路径-17" stroke="#161616" stroke-width="1.2" stroke-linejoin="round" points="15.9734922 20 15.9734922 15.0816529 20.7064763 13.3633133"></polyline>
                        <line x1="11.3260353" y1="15.0816529" x2="16.0154963" y2="13.3633133" id="路径" stroke="#161616" stroke-width="1.2" stroke-linejoin="round" transform="translate(13.670766, 14.222483) scale(-1, 1) translate(-13.670766, -14.222483) "></line>
                        <circle id="椭圆形备份-2" stroke="#161616" stroke-width="1.2" stroke-linejoin="round" cx="16" cy="22.3333333" r="2.33333333"></circle>
                        <circle id="椭圆形备份-3" stroke="#161616" stroke-width="1.2" stroke-linejoin="round" cx="9.66666667" cy="12.6666667" r="2.33333333"></circle>
                        <circle id="椭圆形备份-4" stroke="#161616" stroke-width="1.2" stroke-linejoin="round" cx="22.3333333" cy="12.6666667" r="2.33333333"></circle>
                    </g>
                </g>
            </g>
        </g>
    </g>
</svg>