<!-- Generated by IcoMoon.io -->
<svg version="1.1" xmlns="http://www.w3.org/2000/svg" width="32" height="32" viewBox="0 0 32 32">
<path fill="currentColor" d="M5.838 4.2c-0.121-0.129-0.29-0.202-0.466-0.202s-0.345 0.073-0.466 0.202l-0.706 0.707c-0.129 0.121-0.202 0.29-0.202 0.467s0.073 0.346 0.202 0.467l3.465 3.493c-2.255 1.509-3.976 3.693-4.917 6.24v0c-0.050 0.137-0.077 0.281-0.080 0.427-0.001 0.142 0.026 0.282 0.080 0.413v0c2.166 5.412 7.419 8.949 13.245 8.92 2.157-0.013 4.283-0.509 6.223-1.453l3.931 3.92c0.121 0.129 0.29 0.202 0.466 0.202s0.345-0.073 0.466-0.202l0.706-0.707c0.129-0.121 0.202-0.29 0.202-0.467s-0.073-0.346-0.202-0.467l-21.947-21.96zM15.992 22.667c-4.509-0.010-8.614-2.6-10.567-6.667 0.887-1.963 2.339-3.615 4.171-4.747l2.878 2.88c-0.73 1.53-0.417 3.354 0.781 4.552s3.021 1.512 4.55 0.781l2.345 2.347c-1.324 0.529-2.732 0.818-4.157 0.853zM29.317 15.6v0c-2.728-6.784-10.136-10.41-17.163-8.4l2.252 2.253c0.525-0.079 1.055-0.12 1.586-0.12 4.509 0.010 8.614 2.6 10.567 6.667-0.534 1.248-1.323 2.37-2.319 3.293l1.892 1.893c1.395-1.315 2.459-2.941 3.105-4.747v0c0.057-0.139 0.084-0.289 0.080-0.44v0c0.022-0.132 0.022-0.268 0-0.4z"></path>
</svg>
