<?xml version="1.0" standalone="no"?><!DOCTYPE svg PUBLIC "-//W3C//DTD SVG 1.1//EN" "http://www.w3.org/Graphics/SVG/1.1/DTD/svg11.dtd"><svg t="1682304347923" class="icon" viewBox="0 0 1024 1024" version="1.1" xmlns="http://www.w3.org/2000/svg" p-id="1151" width="200" height="200" xmlns:xlink="http://www.w3.org/1999/xlink"><path d="M938.154667 499.2A454.101333 454.101333 0 0 0 511.744 213.333333a454.101333 454.101333 0 0 0-423.850667 284.586667A42.666667 42.666667 0 0 0 85.333333 512c0 4.522667 0.853333 9.045333 2.56 13.226667A454.144 454.144 0 0 0 511.744 810.666667a454.101333 454.101333 0 0 0 423.850667-284.586667 34.56 34.56 0 0 0 2.56-14.08 39.68 39.68 0 0 0 0-12.8zM511.744 725.333333a376.064 376.064 0 0 1-338.133333-213.333333 374.784 374.784 0 0 1 676.266666 0 376.064 376.064 0 0 1-338.133333 213.333333z m0-298.666666a85.333333 85.333333 0 1 1-0.042667 170.624 85.333333 85.333333 0 0 1 0-170.624z m0-85.333334a170.624 170.624 0 0 0-170.581333 170.666667 170.624 170.624 0 1 0 341.12 0c0-94.293333-76.373333-170.666667-170.538667-170.666667z" p-id="1152" fill="currentColor"></path></svg>