<?xml version="1.0" encoding="UTF-8"?>
<svg width="24px" height="24px" viewBox="0 0 24 24" version="1.1" xmlns="http://www.w3.org/2000/svg" xmlns:xlink="http://www.w3.org/1999/xlink">
    <g id="页面-1" stroke="none" stroke-width="1" fill="none" fill-rule="evenodd">
        <g id="大模型/画作管理" transform="translate(-740.000000, -572.000000)" fill="#FFFFFF">
            <g id="编组-2" transform="translate(716.000000, 469.000000)">
                <g id="编组-11备份" transform="translate(16.000000, 95.000000)">
                    <g id="ico-/-24-/-ui-/-download_to备份" transform="translate(8.000000, 8.000000)">
                        <path d="M4.37855068,3.15 C4.2878726,3.05332277 4.16126898,2.99848135 4.02876381,2.99848135 C3.89625864,2.99848135 3.76965503,3.05332277 3.67897695,3.15 L3.14929969,3.68 C3.05268134,3.77073333 2.99787332,3.89741409 2.99787332,4.03 C2.99787332,4.16258591 3.05268134,4.28926667 3.14929969,4.38 L5.74771641,7 C4.05624023,8.13210308 2.76554335,9.77008196 2.05996346,11.68 L2.05996346,11.68 C2.02263982,11.7826729 2.00238359,11.8907719 1.99998995,12 C1.99947104,12.1062688 2.01984591,12.2116031 2.05996346,12.31 L2.05996346,12.31 C3.68477833,16.3690887 7.62404986,19.0219846 11.9939104,19 C13.6115257,18.990547 15.2064117,18.6180662 16.6610666,17.91 L19.6092702,20.85 C19.6999483,20.9466772 19.8265519,21.0015186 19.9590571,21.0015186 C20.0915622,21.0015186 20.2181658,20.9466772 20.3088439,20.85 L20.8385212,20.32 C20.9351395,20.2292667 20.9899476,20.1025859 20.9899476,19.97 C20.9899476,19.8374141 20.9351395,19.7107333 20.8385212,19.62 L4.37855068,3.15 Z M11.9939104,17 C8.61239363,16.9923837 5.53329177,15.0497746 4.06873946,12 C4.73384071,10.5280959 5.82307696,9.28846526 7.19683342,8.44 L9.35551808,10.6 C8.80794557,11.7472258 9.04251575,13.1152341 9.9409478,14.0142136 C10.8393798,14.913193 12.2065551,15.1479062 13.3530823,14.6 L15.1120105,16.36 C14.1189337,16.7571204 13.0630367,16.9738467 11.9939104,17 Z M21.9878209,11.7 L21.9878209,11.7 C19.9420619,6.611959 14.3855629,3.89245016 9.11566423,5.4 L10.8046351,7.09 C11.1982679,7.03041424 11.5957988,7.00033056 11.9939104,7 C15.3754272,7.00761633 18.4545291,8.95022543 19.9190814,12 C19.5189591,12.9362455 18.9264843,13.7777997 18.180141,14.47 L19.5992763,15.89 C20.6454113,14.9038757 21.4433657,13.6839407 21.9278574,12.33 L21.9278574,12.33 C21.9706365,12.225391 21.9910622,12.1129814 21.9878209,12 L21.9878209,12 C22.0040463,11.900659 22.0040463,11.799341 21.9878209,11.7 Z" id="Icon-color"></path>
                    </g>
                </g>
            </g>
        </g>
    </g>
</svg>