<?xml version="1.0" encoding="UTF-8"?>
<svg width="16px" height="16px" viewBox="0 0 16 16" version="1.1" xmlns="http://www.w3.org/2000/svg" xmlns:xlink="http://www.w3.org/1999/xlink">
    <title>切片</title>
    <g id="页面-1" stroke="none" stroke-width="1" fill="none" fill-rule="evenodd">
        <g id="我的项目/训练-训练列表" transform="translate(-420.000000, -608.000000)" fill="#E4160F">
            <g id="Group-20" transform="translate(240.000000, 373.000000)">
                <g id="编组-13" transform="translate(0.000000, 14.000000)">
                    <g id="ico-/-24-/-files-/-files_outlined备份-5" transform="translate(180.000000, 221.000000)">
                        <path d="M8,1.33333333 C4.31810167,1.33333333 1.33333333,4.31810167 1.33333333,8 C1.33333333,11.6818983 4.31810167,14.6666667 8,14.6666667 C11.6818983,14.6666667 14.6666667,11.6818983 14.6666667,8 C14.6666667,6.23189007 13.9642877,4.53619732 12.7140452,3.28595479 C11.4638027,2.03571227 9.76810993,1.33333333 8,1.33333333 Z M10.06,9.24 C10.1244515,9.30048889 10.1610124,9.38494273 10.1610124,9.47333333 C10.1610124,9.56172394 10.1244515,9.64617778 10.06,9.70666667 L9.70666667,10.06 C9.64617778,10.1244515 9.56172394,10.1610124 9.47333333,10.1610124 C9.38494273,10.1610124 9.30048889,10.1244515 9.24,10.06 L8,8.82666667 L6.76,10.06 C6.69951111,10.1244515 6.61505727,10.1610124 6.52666667,10.1610124 C6.43827606,10.1610124 6.35382222,10.1244515 6.29333333,10.06 L5.94,9.70666667 C5.87554852,9.64617778 5.83898757,9.56172394 5.83898757,9.47333333 C5.83898757,9.38494273 5.87554852,9.30048889 5.94,9.24 L7.17333333,8 L5.94,6.76 C5.87554852,6.69951111 5.83898757,6.61505727 5.83898757,6.52666667 C5.83898757,6.43827606 5.87554852,6.35382222 5.94,6.29333333 L6.29333333,5.94 C6.35382222,5.87554852 6.43827606,5.83898757 6.52666667,5.83898757 C6.61505727,5.83898757 6.69951111,5.87554852 6.76,5.94 L8,7.17333333 L9.24,5.94 C9.30048889,5.87554852 9.38494273,5.83898757 9.47333333,5.83898757 C9.56172394,5.83898757 9.64617778,5.87554852 9.70666667,5.94 L10.06,6.29333333 C10.1244515,6.35382222 10.1610124,6.43827606 10.1610124,6.52666667 C10.1610124,6.61505727 10.1244515,6.69951111 10.06,6.76 L8.82666667,8 L10.06,9.24 Z" id="Icon-color"></path>
                    </g>
                </g>
            </g>
        </g>
    </g>
</svg>