<?xml version="1.0" encoding="UTF-8"?>
<svg width="20px" height="20px" viewBox="0 0 20 20" version="1.1" xmlns="http://www.w3.org/2000/svg" xmlns:xlink="http://www.w3.org/1999/xlink">
    <g id="完整" stroke="none" stroke-width="1" fill="none" fill-rule="evenodd">
        <g id="大模型/悟空-画作管理-我的公开" transform="translate(-961.000000, -443.000000)" fill="#FFFFFF">
            <g id="ico-/-24-/-actions-/-heart_outlined" transform="translate(961.000000, 443.000000)">
                <path d="M4.16666667,16.25 C4.16666667,16.4801186 3.98011865,16.6666667 3.75,16.6666667 L2.08333333,16.6666667 C1.85321469,16.6666667 1.66666667,16.4801186 1.66666667,16.25 L1.66666667,8.75 C1.66666667,8.51988135 1.85321469,8.33333333 2.08333333,8.33333333 L3.75,8.33333333 C3.98011865,8.33333333 4.16666667,8.51988135 4.16666667,8.75 L4.16666667,16.25 Z M16.6666667,8.33333333 L12.5,8.33333333 L13.7916667,5.74166667 C14.0540744,5.22621175 14.183008,4.65317346 14.1666667,4.075 L14.1666667,3.75 C14.1666667,3.05964406 13.6070226,2.5 12.9166667,2.5 L12.8,2.5 C12.6224021,2.50131903 12.4651613,2.61506765 12.4083333,2.78333333 L11.9083333,4.26666667 C11.7532043,4.72955511 11.4029258,5.10115489 10.95,5.28333333 L10.5916667,5.425 C9.93755328,5.69311528 9.38385359,6.1593887 9.00833333,6.75833333 L7.99166667,8.425 C7.68647424,8.91330908 7.15083578,9.20948564 6.575,9.20833333 L5.83333333,9.20833333 L5.83333333,15.875 L6.325,15.875 C7.0725185,15.8644364 7.79408858,16.1488727 8.33333333,16.6666667 L8.33333333,16.6666667 C8.86582883,17.1997078 9.5882186,17.4994546 10.3416667,17.5 L15.5416667,17.5 C16.221632,17.4972563 16.8317496,17.0817167 17.0833333,16.45 L17.975,14.225 C18.2104875,13.6336725 18.3320666,13.0031578 18.3333333,12.3666667 L18.3333333,10 C18.3333333,9.07952542 17.5871412,8.33333333 16.6666667,8.33333333 Z" id="Icon-color"></path>
            </g>
        </g>
    </g>
</svg>