<?xml version="1.0" encoding="UTF-8"?>
<svg width="16px" height="16px" viewBox="0 0 16 16" version="1.1" xmlns="http://www.w3.org/2000/svg" xmlns:xlink="http://www.w3.org/1999/xlink">
    <title>切片</title>
    <g id="页面-1" stroke="none" stroke-width="1" fill="none" fill-rule="evenodd">
        <g id="我的项目/训练-训练列表" transform="translate(-420.000000, -441.000000)" fill="#6DC335">
            <g id="Group-20" transform="translate(240.000000, 373.000000)">
                <g id="编组-13" transform="translate(0.000000, 14.000000)">
                    <g id="ico-/-24-/-files-/-files_outlined备份-2" transform="translate(180.000000, 54.000000)">
                        <path d="M8,1.33333333 C4.31810167,1.33333333 1.33333333,4.31810167 1.33333333,8 C1.33333333,11.6818983 4.31810167,14.6666667 8,14.6666667 C11.6818983,14.6666667 14.6666667,11.6818983 14.6666667,8 C14.6666667,6.23189007 13.9642877,4.53619732 12.7140452,3.28595479 C11.4638027,2.03571227 9.76810993,1.33333333 8,1.33333333 Z M10.9,6.48666667 L7.15333333,10.2333333 C7.09284445,10.2977848 7.00839061,10.3343458 6.92,10.3343458 C6.83160939,10.3343458 6.74715555,10.2977848 6.68666667,10.2333333 L5.1,8.66666667 C5.03689578,8.6040778 5.00140056,8.51887918 5.00140056,8.43 C5.00140056,8.34112082 5.03689578,8.2559222 5.1,8.19333333 L5.45333333,7.84 C5.51382222,7.77554852 5.59827606,7.73898757 5.68666667,7.73898757 C5.77505727,7.73898757 5.85951111,7.77554852 5.92,7.84 L6.92,8.83333333 L10.08,5.67333333 C10.2096145,5.54628571 10.4170522,5.54628571 10.5466667,5.67333333 L10.9,6.02666667 C11.0227514,6.15543276 11.0227514,6.35790057 10.9,6.48666667 Z" id="Icon-color"></path>
                    </g>
                </g>
            </g>
        </g>
    </g>
</svg>