<?xml version="1.0" encoding="UTF-8"?>
<svg width="24px" height="24px" viewBox="0 0 24 24" version="1.1" xmlns="http://www.w3.org/2000/svg" xmlns:xlink="http://www.w3.org/1999/xlink">
    <g id="页面-1" stroke="none" stroke-width="1" fill="none" fill-rule="evenodd">
        <g id="我的项目/无文件状态" transform="translate(-1576.000000, -132.000000)" fill="#0D8DFF">
            <g id="控件/按钮/文本+面备份-2" transform="translate(1536.000000, 120.000000)">
                <g id="ico-/-24-/-arrows-/-arrow_forward" transform="translate(40.000000, 12.000000)">
                    <path d="M21.99158,17.018486 C21.9803242,15.5644164 20.9316606,14.3271554 19.5017879,14.0809161 C18.0719152,13.8346768 16.6713448,14.6501537 16.1764804,16.017064 L14.997474,16.017064 C13.8938345,16.017064 12.999158,15.1203602 12.999158,14.0142201 C12.9947511,13.2731131 12.7171847,12.5597919 12.2198148,12.0113761 L12.2198148,12.0113761 C11.6549061,11.3783333 10.8490531,11.014514 10.001684,11.0099542 L7.82351957,11.0099542 C7.33689336,9.63044865 5.9294495,8.80294824 4.49059521,9.05037598 C3.05174092,9.29780373 2,10.5481896 2,12.0113761 C2,13.4745627 3.05174092,14.7249485 4.49059521,14.9723763 C5.9294495,15.219804 7.33689336,14.3923036 7.82351957,13.0127981 L10.001684,13.0127981 C10.5535037,13.0127981 11.000842,13.46115 11.000842,14.0142201 C11.000842,16.2265004 12.7901951,18.0199079 14.997474,18.0199079 L16.1764804,18.0199079 C16.6713448,19.3868182 18.0719152,20.2022951 19.5017879,19.9560558 C20.9316606,19.7098165 21.9803242,18.4725555 21.99158,17.018486 Z M12.999158,10.3289872 C12.999158,10.2188308 12.999158,10.1186886 12.999158,10.0085322 C12.999158,8.90239203 13.8938345,8.00568826 14.997474,8.00568826 L16.1764804,8.00568826 C16.6631066,9.38519377 18.0705505,10.2126942 19.5094048,9.96526644 C20.9482591,9.7178387 22,8.46745285 22,7.0042663 C22,5.54107975 20.9482591,4.2906939 19.5094048,4.04326616 C18.0705505,3.79583842 16.6631066,4.62333882 16.1764804,6.00284433 L14.997474,6.00284433 C13.037006,6.00779493 11.36956,7.43724309 11.0607915,9.37763636 C11.7709969,9.54202072 12.4341209,9.86748217 12.999158,10.3289872 Z" id="Icon-color"></path>
                </g>
            </g>
        </g>
    </g>
</svg>