<?xml version="1.0" encoding="UTF-8"?>
<svg width="48px" height="48px" viewBox="0 0 48 48" version="1.1" xmlns="http://www.w3.org/2000/svg" xmlns:xlink="http://www.w3.org/1999/xlink">
    <title>编组 48</title>
    <g id="页面-1" stroke="none" stroke-width="1" fill="none" fill-rule="evenodd">
        <g id="产业/产业首页-电力专区" transform="translate(-1369.000000, -536.000000)">
            <g id="编组-48" transform="translate(1369.000000, 536.000000)">
                <rect id="矩形" fill="#96CDFF" x="0" y="0" width="48" height="48" rx="8"></rect>
                <g id="深度学习-(1)" transform="translate(10.000000, 10.000000)" fill="#000000" fill-rule="nonzero">
                    <path d="M16.8213714,1.762469 L16.653376,1.81801117 C19.5264313,0.839823717 21.6428421,1.53720336 22.8398383,3.80075382 C23.7020259,3.8095661 24.849022,4.41052044 25.6513157,5.31329198 C26.7807168,6.58413718 27.1797655,8.29098565 26.595448,10.2329139 L26.5704356,10.3109108 L26.635262,10.4149281 C29.0696844,14.3975854 25.96435,18.3100559 20.5405658,16.9055595 C19.8125704,17.9397215 18.8693612,18.8248329 17.7866422,19.5425743 C19.8445428,21.3884606 19.4119267,23.6769896 16.6788049,25.1615401 C16.6904123,25.262879 16.6964961,25.3665894 16.6964961,25.4717208 C16.6964961,26.9444801 15.5025888,28.1383875 14.0298294,28.1383875 C12.5570701,28.1383875 11.3631628,26.9444801 11.3631628,25.4717208 C11.3631628,23.9989615 12.5570701,22.8050541 14.0298294,22.8050541 C14.9194156,22.8050541 15.707263,23.2406493 16.1917135,23.9101815 C18.0838498,22.847554 18.2222042,21.5845921 16.6863392,20.357561 L16.5651023,20.2635775 L16.5511428,20.2659249 L16.5304484,20.2700559 C14.2843119,21.3997283 11.6305692,21.8940436 9.0932969,21.6265901 C5.8512313,21.0890785 4.59494003,19.4568132 5.63442943,17.0821003 C5.33263083,16.9676772 5.0224555,16.8043452 4.69697343,16.5883155 C4.62406828,16.5290671 4.55434223,16.4691013 4.48778264,16.4084386 C4.40626059,16.452905 4.31302515,16.4798905 4.21349846,16.4853121 C1.5036032,16.6329301 -0.628676187,13.4083738 0.169567846,9.03742198 L0.210489513,8.82503898 L0.233254653,8.74121485 C0.81552622,7.04336585 1.62725379,6.01296712 2.69289099,5.77880185 L2.7111023,5.77491078 C2.93331825,4.53001475 3.38841475,3.45259992 4.07816677,2.55119974 L4.22956305,2.36073981 C4.9920631,1.43701967 6.44514877,0.77629661 7.8880853,0.770180757 L8.06834883,0.772854017 C8.81980177,0.798468557 9.5300185,0.994307037 10.1764889,1.36147387 C12.758087,-0.592569736 15.0437938,-0.42957389 16.8213714,1.762469 Z M14.0298294,24.1383875 C13.2934498,24.1383875 12.6964961,24.7353411 12.6964961,25.4717208 C12.6964961,26.2081005 13.2934498,26.8050541 14.0298294,26.8050541 C14.7662091,26.8050541 15.3631628,26.2081005 15.3631628,25.4717208 C15.3631628,24.7353411 14.7662091,24.1383875 14.0298294,24.1383875 Z M11.2751097,2.21092587 C11.7677746,2.72055766 12.2031815,3.36182377 12.562789,4.13796929 C12.7175738,4.47204327 12.5722312,4.86834158 12.2381572,5.02312638 C11.9040832,5.17791118 11.5077849,5.03256852 11.3530001,4.69849458 C10.5477876,2.96059412 9.37822937,2.15161121 8.0229263,2.10541342 C6.93072677,2.06818396 5.78543457,2.5703708 5.25782523,3.20953582 C4.54924401,4.06793675 4.11362348,5.15221838 3.95400535,6.47787665 C3.91468443,6.80444418 3.6445904,7.04950972 3.32320688,7.06417405 L3.24821268,7.06340038 C2.6390273,7.02319212 2.06234887,7.60475185 1.55502491,9.00213405 L1.5091023,9.13224412 L1.47864846,9.29050398 C0.897461826,12.4820046 2.07362527,14.7103161 3.57080235,15.0968551 C3.12883995,13.8526498 3.68527209,12.42738 5.16634717,10.9402401 L5.3040053,10.8044228 L6.23224483,11.7615796 C4.49865503,13.4427949 4.34368357,14.5830959 5.48474177,15.514604 C6.2114301,15.9943871 6.73665617,16.0617074 7.4192681,15.8536228 C7.5127607,15.8251229 7.61052623,15.7913079 7.7192001,15.7500429 L7.99562903,15.6391612 L8.56643937,15.3950606 C9.82491463,14.8604456 10.7518352,14.6432499 12.0211155,14.7398167 L12.3706009,14.7717983 L12.8271452,14.8064769 L13.0909696,14.8193675 C13.8377253,14.8445945 14.1961712,14.7446027 14.548216,14.4055937 L14.665851,14.2835821 C14.7053329,14.2398567 14.7452597,14.1930243 14.7861552,14.1429289 L14.9784919,13.8949473 C15.5465479,13.1342328 15.437293,12.1493354 15.1404062,11.8431345 L15.100658,11.8071185 L15.9246619,10.758884 C16.8161047,11.459636 17.0749593,13.3158903 16.046828,14.6927166 C15.1098119,15.9475257 14.4484012,16.2346991 12.6779816,16.1297555 L12.3087006,16.1037091 C12.1804045,16.0933979 12.0467692,16.0815145 11.9073845,16.0682294 C10.9726991,15.9972087 10.2736297,16.1402975 9.31405497,16.5283409 L8.46236077,16.8891763 C8.2158777,16.9910521 8.01062023,17.0672647 7.8080533,17.1290144 C7.5377591,17.2114098 7.27518603,17.2648161 7.01532017,17.2862055 C6.08632297,19.0103807 6.7308355,19.883442 9.2720879,20.3058934 C11.5833594,20.5490477 14.0114535,20.0729814 16.0397232,19.018704 L16.0387224,19.0153835 L16.0524086,19.0121 C18.4129188,17.7813072 20.2295354,15.7664687 20.6858496,13.1904084 L20.718902,12.9867636 L22.0379502,13.1814165 C21.904642,14.0847675 21.6354036,14.9277942 21.2539294,15.7047815 C25.4241455,16.6004834 27.3829346,13.7717749 25.2888604,10.7925183 C25.1633638,10.6139732 25.1332016,10.3853087 25.2081093,10.1803291 C25.8088406,8.53647012 25.5394661,7.19460432 24.6546768,6.19900565 C24.2857256,5.78384758 23.814887,5.46676918 23.4287178,5.28766638 C23.4830643,5.47100798 23.5325412,5.66026265 23.5780979,5.85578965 C23.6616463,6.21437492 23.4386848,6.57279512 23.0800995,6.65634352 C22.7215142,6.73989192 22.363094,6.51693045 22.2795456,6.15834512 C21.6037255,3.25776038 20.1347329,2.23792882 17.6064196,2.91997474 C17.7891538,3.23886075 17.9652702,3.58363523 18.1341373,3.95414204 C18.2868362,4.28917457 18.1390256,4.68455905 17.8039931,4.83725792 C17.4689606,4.98995685 17.0735761,4.84214625 16.9208772,4.5071137 C15.4345444,1.24599115 13.679301,0.533779237 11.2751097,2.21092587 Z" id="group1"></path>
                    <path d="M21.6964961,9.00505412 C22.8747036,9.00505412 23.8298294,9.96017998 23.8298294,11.1383875 C23.8298294,12.3165949 22.8747036,13.2717208 21.6964961,13.2717208 C20.5182886,13.2717208 19.5631628,12.3165949 19.5631628,11.1383875 C19.5631628,9.96017998 20.5182886,9.00505412 21.6964961,9.00505412 Z M21.6964961,9.93838745 C21.0337544,9.93838745 20.4964961,10.4756457 20.4964961,11.1383875 C20.4964961,11.8011291 21.0337544,12.3383875 21.6964961,12.3383875 C22.3592378,12.3383875 22.8964961,11.8011291 22.8964961,11.1383875 C22.8964961,10.4756457 22.3592378,9.93838745 21.6964961,9.93838745 Z M7.02982943,7.67172078 C8.2080369,7.67172078 9.16316277,8.62684665 9.16316277,9.80505412 C9.16316277,10.9832616 8.2080369,11.9383875 7.02982943,11.9383875 C5.85162197,11.9383875 4.8964961,10.9832616 4.8964961,9.80505412 C4.8964961,8.62684665 5.85162197,7.67172078 7.02982943,7.67172078 Z M14.3631628,7.67172078 C15.5413702,7.67172078 16.4964961,8.62684665 16.4964961,9.80505412 C16.4964961,10.9832616 15.5413702,11.9383875 14.3631628,11.9383875 C13.1849553,11.9383875 12.2298294,10.9832616 12.2298294,9.80505412 C12.2298294,8.62684665 13.1849553,7.67172078 14.3631628,7.67172078 Z M7.02982943,8.60505412 C6.3670877,8.60505412 5.82982943,9.14231238 5.82982943,9.80505412 C5.82982943,10.4677958 6.3670877,11.0050541 7.02982943,11.0050541 C7.6925711,11.0050541 8.22982943,10.4677958 8.22982943,9.80505412 C8.22982943,9.14231238 7.6925711,8.60505412 7.02982943,8.60505412 Z M14.3631628,8.60505412 C13.700421,8.60505412 13.1631628,9.14231238 13.1631628,9.80505412 C13.1631628,10.4677958 13.700421,11.0050541 14.3631628,11.0050541 C15.0259044,11.0050541 15.5631628,10.4677958 15.5631628,9.80505412 C15.5631628,9.14231238 15.0259044,8.60505412 14.3631628,8.60505412 Z" id="group2"></path>
                </g>
            </g>
        </g>
    </g>
</svg>