<?xml version="1.0" encoding="UTF-8"?>
<svg width="24px" height="24px" viewBox="0 0 24 24" version="1.1" xmlns="http://www.w3.org/2000/svg" xmlns:xlink="http://www.w3.org/1999/xlink">
    <title>切片</title>
    <g id="完整" stroke="none" stroke-width="1" fill="none" fill-rule="evenodd">
        <g id="比赛/比赛详情-我的团队（未登录，未报名时不显示）--自己的团队" transform="translate(-316.000000, -612.000000)" fill="#002FA7" fill-rule="nonzero">
            <g id="ico-/-24-/-files-/-folder_outlined" transform="translate(316.000000, 612.000000)">
                <path d="M5.00109959,8 C5.00109959,6.34314575 6.34461484,5 8.0019249,5 C9.65923496,5 11.0027502,6.34314575 11.0027502,8 C11.0027502,9.65685425 9.65923496,11 8.0019249,11 C6.34461484,11 5.00109959,9.65685425 5.00109959,8 Z M16.0041257,11 C17.6614358,11 19.0049511,9.65685425 19.0049511,8 C19.0049511,6.34314575 17.6614358,5 16.0041257,5 C14.3468157,5 13.0033004,6.34314575 13.0033004,8 C13.0033004,9.65685425 14.3468157,11 16.0041257,11 Z M22.8960212,17.55 L21.4556251,14.66 C20.9482965,13.644067 19.9106992,13.0015529 18.7748878,13 L14.7737874,13 C14.9568318,13.2380591 15.1175547,13.492467 15.2539194,13.76 L16.7043183,16.66 C17.0632291,17.3901107 17.1101601,18.234637 16.8343541,19 L22.0057764,19 C22.3524649,18.9989511 22.6738887,18.8185078 22.8552469,18.5231178 C23.0366051,18.2277279 23.0520334,17.8595182 22.8960212,17.55 Z M13.4534242,14.66 C12.9444868,13.6408424 11.902099,12.9977614 10.7626842,12.9999942 L5.24116561,12.9999942 C4.10175083,12.9977614 3.05936296,13.6408424 2.55042558,14.66 L1.11002943,17.55 C0.954017276,17.8595182 0.969445505,18.2277279 1.15080372,18.5231178 C1.33216193,18.8185078 1.65358571,18.9989511 2.00027427,18.9999942 L14.0035755,18.9999942 C14.3502641,18.9989511 14.6716879,18.8185078 14.8530461,18.5231178 C15.0344043,18.2277279 15.0498325,17.8595182 14.8938204,17.55 L13.4534242,14.66 Z" id="Icon-color"></path>
            </g>
        </g>
    </g>
</svg>