<?xml version="1.0" encoding="UTF-8"?>
<svg width="24px" height="24px" viewBox="0 0 24 24" version="1.1" xmlns="http://www.w3.org/2000/svg" xmlns:xlink="http://www.w3.org/1999/xlink">
    <g id="页面-1" stroke="none" stroke-width="1" fill="none" fill-rule="evenodd">
        <g id="大模型/画作管理" transform="translate(-969.000000, -572.000000)" fill="#FFFFFF">
            <g id="编组-2" transform="translate(716.000000, 469.000000)">
                <g id="编组-13" transform="translate(245.000000, 95.000000)">
                    <g id="ico-/-24-/-actions-/-heart_outlined" transform="translate(8.000000, 8.000000)">
                        <path d="M22,8.5 C22,5.46243388 19.5375661,3 16.5,3 C14.7819016,3.05353575 13.1586346,3.8002386 12,5.07 C10.8413654,3.8002386 9.21809836,3.05353575 7.5,3 C4.46243388,3 2,5.46243388 2,8.5 C2,12.42 6.75,16.75 9,19 L11.28,21.28 C11.4205174,21.4206925 11.6111546,21.5 11.81,21.5 L12.19,21.5 C12.3888454,21.5 12.5794826,21.4206925 12.72,21.28 L15,19 C17.25,16.75 22,12.42 22,8.5 Z" id="Icon-color"></path>
                    </g>
                </g>
            </g>
        </g>
    </g>
</svg>