<!-- Generated by IcoMoon.io -->
<svg version="1.1" xmlns="http://www.w3.org/2000/svg" width="24" height="24" viewBox="0 0 24 24">
<title>icon-home</title>
<path fill="#999" d="M12.17 5l6.54 6.54c0.185 0.186 0.289 0.438 0.29 0.7v6.76h-3v-6c0-0.552-0.448-1-1-1h-6c-0.552 0-1 0.448-1 1v6h-3v-6.76c0.001-0.262 0.105-0.514 0.29-0.7l6.54-6.54h0.34zM12.59 3h-1.18c-0.262 0.001-0.514 0.105-0.7 0.29l-6.83 6.83c-0.563 0.562-0.879 1.325-0.88 2.12v7.76c0 0.552 0.448 1 1 1h5c0.552 0 1-0.448 1-1v-5.75c0-0.138 0.112-0.25 0.25-0.25h3.5c0.138 0 0.25 0.112 0.25 0.25v5.75c0 0.552 0.448 1 1 1h5c0.552 0 1-0.448 1-1v-7.76c-0.001-0.795-0.317-1.558-0.88-2.12l-6.83-6.83c-0.186-0.185-0.438-0.289-0.7-0.29z"></path>
</svg>
