<?xml version="1.0" encoding="UTF-8"?>
<svg width="24px" height="24px" viewBox="0 0 24 24" version="1.1" xmlns="http://www.w3.org/2000/svg" xmlns:xlink="http://www.w3.org/1999/xlink">
    <title></title>
    <g id="完整" stroke="none" stroke-width="1" fill="none" fill-rule="evenodd">
        <g id="个人中心/个人主页-关注缺省页" transform="translate(-288.000000, -637.000000)" fill="#555555" fill-rule="nonzero">
            <g id="个人中心菜单/我的消息" transform="translate(240.000000, 284.000000)">
                <g id="ico-/-24-/-ui-/-lock_open_outlined备份-4" transform="translate(48.000000, 353.000000)">
                    <path d="M21.71,10.71 L14.29,3.29 C14.1037394,3.10525584 13.8523399,3.00110462 13.59,3 L10.41,3 C10.1476601,3.00110462 9.89626064,3.10525584 9.71,3.29 L2.29,10.71 C2.10525584,10.8962606 2.00110462,11.1476601 2,11.41 L2,12.5 C2,12.7761424 2.22385763,13 2.5,13 L4,13 L4,20 C4,20.5522847 4.44771525,21 5,21 L10,21 C10.5522847,21 11,20.5522847 11,20 L11,15.25 C11,15.1119288 11.1119288,15 11.25,15 L12.75,15 C12.8880712,15 13,15.1119288 13,15.25 L13,20 C13,20.5522847 13.4477153,21 14,21 L19,21 C19.5522847,21 20,20.5522847 20,20 L20,13 L21.5,13 C21.7761424,13 22,12.7761424 22,12.5 L22,11.41 C21.9988954,11.1476601 21.8947442,10.8962606 21.71,10.71 Z M18,19 L15,19 L15,14 C15,13.4477153 14.5522847,13 14,13 L10,13 C9.44771525,13 9,13.4477153 9,14 L9,19 L6,19 L6,9.83 L10.83,5 L13.17,5 L18,9.83 L18,19 Z" id="Icon-color"></path>
                </g>
            </g>
        </g>
    </g>
</svg>