<?xml version="1.0" encoding="UTF-8"?>
<svg width="48px" height="48px" viewBox="0 0 48 48" version="1.1" xmlns="http://www.w3.org/2000/svg" xmlns:xlink="http://www.w3.org/1999/xlink">
    <title>编组 48</title>
    <g id="页面-1" stroke="none" stroke-width="1" fill="none" fill-rule="evenodd">
        <g id="产业/产业首页-工业" transform="translate(-1407.000000, -536.000000)">
            <g id="编组-48" transform="translate(1407.000000, 536.000000)">
                <rect id="矩形" fill="#96CDFF" x="0" y="0" width="48" height="48" rx="8"></rect>
                <g id="文化" transform="translate(8.000000, 8.000000)">
                    <rect id="矩形" x="0" y="0" width="32" height="32"></rect>
                    <path d="M15.6891553,4.10889699 L2.29802927,7.77510482 C1.87919446,7.88872657 1.55232778,8.21940195 1.44090337,8.64106967 C1.26908756,9.29127872 1.65249674,9.9605578 2.30120774,10.1354509 L15.6851394,13.8899834 C15.9025677,13.9486343 16.1255195,13.9471847 16.3363185,13.8874063 L29.7124479,10.1316877 C30.1220094,10.0155464 30.4400143,9.6948573 30.5544623,9.28565258 C30.7355886,8.63804159 30.3618881,7.96333071 29.7158554,7.77898479 L16.3382034,4.11313668 C16.1262336,4.05265094 15.9018932,4.05118448 15.6891553,4.10889699 Z M2.61355887,8.93287817 L16.004685,5.26667033 L29.3926459,8.93462137 C29.3954688,8.93546129 29.4027022,8.94852119 29.3988106,8.96243549 C29.3966118,8.97029723 29.3915907,8.9753608 29.3865601,8.97678736 L16.0033815,12.7329679 L2.61944988,8.97843543 C2.60474964,8.9744402 2.59739341,8.96159916 2.60108124,8.94764317 C2.6032313,8.9395066 2.60839997,8.9342777 2.61355887,8.93287817 Z" id="路径" fill="#000000" fill-rule="nonzero"></path>
                    <path d="M6.66666667,10.7333333 C6.97254745,10.7333333 7.22496785,10.9622244 7.26199181,11.2580706 L7.26666667,11.3333333 L7.26666667,24.362 L7.31238166,24.3862462 C10.1781634,25.8902111 13.0533918,26.6696389 15.9435394,26.7295868 L16.304886,26.7333333 C19.2135384,26.7333333 22.3162923,26.0054344 25.6142809,24.5438441 L26.0666667,24.3386667 L26.0666667,20.8114233 C26.0666667,20.5055425 26.2955578,20.2531221 26.5914039,20.2160982 L26.6666667,20.2114233 C26.9725475,20.2114233 27.2249679,20.4403144 27.2619918,20.7361606 L27.2666667,20.8114233 L27.2666667,24.7210885 C27.2666667,24.9528497 27.1331885,25.1638871 26.9237861,25.2632043 C23.1757447,27.0408581 19.6356354,27.9333333 16.304886,27.9333333 C12.9651424,27.9333333 9.65423625,27.035979 6.37912558,25.2477004 C6.21057588,25.1556687 6.0977618,24.989539 6.07219187,24.802415 L6.06666667,24.7210885 L6.06666667,11.3333333 C6.06666667,11.0019625 6.33529582,10.7333333 6.66666667,10.7333333 Z M26.7,10.7333333 C27.0058808,10.7333333 27.2583012,10.9622244 27.2953251,11.2580706 L27.3,11.3333333 L27.3,17.3333333 C27.3,17.6647042 27.0313708,17.9333333 26.7,17.9333333 C26.3941192,17.9333333 26.1416988,17.7044422 26.1046749,17.4085961 L26.1,17.3333333 L26.1,11.3333333 C26.1,11.0019625 26.3686292,10.7333333 26.7,10.7333333 Z" id="形状" fill="#000000" fill-rule="nonzero"></path>
                    <path d="M21.9144078,15.3107009 L20.8005103,18.1456855 C20.65228,18.5229472 20.7534359,18.9649767 21.0640385,19.2276888 C22.1982764,20.1870431 23.4179923,20.1767682 24.3548898,19.1450373 C24.5838208,18.8929338 24.6573314,18.5310985 24.554476,18.2067251 L24.4295858,17.815104 L24.1972839,17.1004999 L24.037933,16.6234318 L23.8917566,16.1982515 L23.8010217,15.9419398 L23.6763605,15.6021904 L23.5608181,15.3041316 C23.2538884,14.5395809 22.2155029,14.5443827 21.9144078,15.3107009 Z M21.9806667,18.4233333 L22.7306667,16.514 L22.9014546,17.0086449 L23.0575939,17.4761102 L23.2873453,18.182902 L23.3686667,18.4373333 L23.3220227,18.4813271 C22.9354782,18.8204493 22.5353906,18.8208994 22.0325457,18.462663 L21.9806667,18.4233333 Z" id="路径" fill="#000000" fill-rule="nonzero"></path>
                    <path d="M14.0950141,9.1510882 C14.1879229,8.85965895 14.4826705,8.68868813 14.775785,8.74327426 L14.8489118,8.76168072 L22.8489118,11.3121126 C23.0728524,11.3835057 23.2320814,11.5778889 23.2616877,11.8064384 L23.2666667,11.8837652 L23.2666667,16 C23.2666667,16.3313708 22.9980375,16.6 22.6666667,16.6 C22.3607859,16.6 22.1083655,16.3711089 22.0713415,16.0752627 L22.0666667,16 L22.0666667,12.322 L14.4844215,9.90498595 C14.1929923,9.81207714 14.0220215,9.51732949 14.0766076,9.22421504 L14.0950141,9.1510882 Z" id="路径-9" fill="#000000" fill-rule="nonzero"></path>
                </g>
            </g>
        </g>
    </g>
</svg>