<?xml version="1.0" encoding="UTF-8"?>
<svg width="20px" height="20px" viewBox="0 0 20 20" version="1.1" xmlns="http://www.w3.org/2000/svg" xmlns:xlink="http://www.w3.org/1999/xlink">
    <title>切片</title>
    <g id="页面-1" stroke="none" stroke-width="1" fill="none" fill-rule="evenodd">
        <g id="他人模型/模型卡片" transform="translate(-419.000000, -198.000000)" fill="#555555">
            <g id="编组-7" transform="translate(0.000000, 80.000000)">
                <g id="编组-4" transform="translate(252.000000, 117.000000)">
                    <g id="ico-/-24-/-actions-/-time备份" transform="translate(167.000000, 1.000000)">
                        <path d="M14.1666667,3.33333333 L14.1666667,9.225 L8.74166667,14.6583333 L2.84166667,8.75833333 L8.275,3.33333333 L14.1666667,3.33333333 L14.1666667,3.33333333 Z M14.9,1.66666614 L8.275,1.66666614 C7.83079618,1.66631469 7.40483032,1.8433005 7.09166667,2.15833333 L1.075,8.175 C0.751897004,8.50003121 0.751897004,9.02496879 1.075,9.35 L8.15,16.425 C8.47503121,16.748103 8.99996879,16.748103 9.325,16.425 L15.3416667,10.4083333 C15.6566995,10.0951697 15.8336853,9.66920382 15.8333339,9.225 L15.8333339,2.6 C15.8302638,2.37936085 15.7439448,2.16802816 15.5916667,2.00833333 L15.4916667,1.90833333 C15.3319718,1.75605523 15.1206392,1.66973624 14.9,1.66666614 Z M12.5,6.66666667 C12.5,5.74619208 11.7538079,5 10.8333333,5 C9.91285875,5 9.16666667,5.74619208 9.16666667,6.66666667 C9.16666667,7.58714125 9.91285875,8.33333333 10.8333333,8.33333333 C11.7538079,8.33333333 12.5,7.58714125 12.5,6.66666667 Z M18.925,5.34166667 L18.825,5.24166667 C18.6653052,5.08938856 18.4539725,5.00306957 18.2333333,5 L17.5,5 L17.5,9.91666667 C17.500352,10.3608705 17.3233662,10.7868363 17.0083333,11.1 L10.6916667,17.4083333 L11.4333333,18.15 C11.677348,18.3937111 12.072652,18.3937111 12.3166667,18.15 L18.15,12.3166667 C18.8005812,11.687811 19.1675623,10.8214951 19.1666683,9.91666667 L19.1666683,5.93333333 C19.1635971,5.71269418 19.0772781,5.50136149 18.925,5.34166667 L18.925,5.34166667 Z" id="Icon-color"></path>
                    </g>
                </g>
            </g>
        </g>
    </g>
</svg>