<?xml version="1.0" encoding="UTF-8"?>
<svg width="48px" height="48px" viewBox="0 0 48 48" version="1.1" xmlns="http://www.w3.org/2000/svg" xmlns:xlink="http://www.w3.org/1999/xlink">
    <g id="页面-1" stroke="none" stroke-width="1" fill="none" fill-rule="evenodd">
        <g id="产业/产业首页" transform="translate(-1407.000000, -536.000000)">
            <g id="编组" transform="translate(252.000000, 496.000000)">
                <g id="编组-41" transform="translate(1155.000000, 40.000000)">
                    <rect id="矩形" fill="#96CDFF" x="0" y="0" width="48" height="48" rx="8"></rect>
                    <g id="编组" transform="translate(8.000000, 8.000000)">
                        <rect id="矩形备份-2" x="0" y="0" width="32" height="32"></rect>
                        <polyline id="路径-24备份" stroke="#161616" stroke-width="1.2" stroke-linecap="round" stroke-linejoin="round" transform="translate(25.587890, 16.000000) scale(-1, 1) translate(-25.587890, -16.000000) " points="28.8424476 10.3333333 22.3333333 16.0308065 28.8424476 21.6666667"></polyline>
                        <polyline id="路径-24备份-2" stroke="#161616" stroke-width="1.2" stroke-linecap="round" stroke-linejoin="round" points="9.84244756 10.3333333 3.33333333 16.0308065 9.84244756 21.6666667"></polyline>
                        <polyline id="路径-16" stroke="#161616" stroke-width="1.2" stroke-linecap="round" stroke-linejoin="round" points="19.3066654 7.68547882 10 15.7149199 14.0287325 19.6534353 16.7155686 17.1164309"></polyline>
                        <polyline id="路径-16备份" stroke="#161616" stroke-width="1.2" stroke-linecap="round" stroke-linejoin="round" transform="translate(17.834452, 18.153837) scale(-1, -1) translate(-17.834452, -18.153837) " points="22.6485991 11.6666667 13.0203049 20.702492 17.0490375 24.6410074 19.7358735 22.104003"></polyline>
                        <circle id="椭圆形" stroke="#161616" stroke-width="1.2" stroke-linecap="round" stroke-linejoin="round" cx="20.6666667" cy="5.66666667" r="2.33333333"></circle>
                        <circle id="椭圆形备份" stroke="#161616" stroke-width="1.2" stroke-linecap="round" stroke-linejoin="round" cx="11.3333333" cy="26.3333333" r="2.33333333"></circle>
                    </g>
                </g>
            </g>
        </g>
    </g>
</svg>