<!-- Generated by IcoMoon.io -->
<svg version="1.1" xmlns="http://www.w3.org/2000/svg" width="36" height="32" viewBox="0 0 36 32">
<path fill="currentColor" stroke="#999" stroke-linejoin="miter" stroke-linecap="butt" stroke-miterlimit="4" stroke-width="1.8824" d="M6.682 27.765c0 0.433-0.358 0.784-0.8 0.784h-3.2c-0.442 0-0.8-0.351-0.8-0.784v-14.118c0-0.433 0.358-0.784 0.8-0.784h3.2c0.442 0 0.8 0.351 0.8 0.784v14.118zM30.682 12.863h-8l2.48-4.878c0.504-0.97 0.751-2.049 0.72-3.137v-0.612c0-1.3-1.075-2.353-2.4-2.353h-0.224c-0.341 0.002-0.643 0.217-0.752 0.533l-0.96 2.792c-0.298 0.871-0.97 1.571-1.84 1.914l-0.688 0.267c-1.256 0.505-2.319 1.382-3.040 2.51l-1.952 3.137c-0.586 0.919-1.614 1.477-2.72 1.475h-1.424v12.549h0.944c1.435-0.020 2.821 0.516 3.856 1.49v0c1.022 1.003 2.409 1.568 3.856 1.569h9.984c1.306-0.005 2.477-0.787 2.96-1.976l1.712-4.188c0.452-1.113 0.686-2.3 0.688-3.498v-4.455c0-1.733-1.433-3.137-3.2-3.137z"></path>
</svg>
