<?xml version="1.0" encoding="UTF-8"?>
<svg width="19px" height="17px" viewBox="0 0 19 17" version="1.1" xmlns="http://www.w3.org/2000/svg" xmlns:xlink="http://www.w3.org/1999/xlink">
    <title></title>
    <g id="完整" stroke="none" stroke-width="1" fill="none" fill-rule="evenodd">
        <g id="大模型/悟空-AI画集备份" transform="translate(-869.000000, -642.000000)" stroke="#999999">
            <g id="ico-/-24-/-actions-/-heart_outlined" transform="translate(870.000000, 643.000000)">
                <path d="M2.55,13.75 C2.55,13.9801186 2.35972102,14.1666667 2.125,14.1666667 L0.425,14.1666667 C0.190278981,14.1666667 0,13.9801186 0,13.75 L0,6.25 C0,6.01988135 0.190278981,5.83333333 0.425,5.83333333 L2.125,5.83333333 C2.35972102,5.83333333 2.55,6.01988135 2.55,6.25 L2.55,13.75 Z M15.3,5.83333333 L11.05,5.83333333 L12.3675,3.24166667 C12.6351559,2.72621175 12.7666682,2.15317346 12.75,1.575 L12.75,1.25 C12.75,0.559644063 12.1791631,0 11.475,0 L11.356,0 C11.1748501,0.00131903086 11.0144646,0.115067647 10.9565,0.283333333 L10.4465,1.76666667 C10.2882683,2.22955511 9.93098428,2.60115489 9.469,2.78333333 L9.1035,2.925 C8.43630434,3.19311528 7.87153066,3.6593887 7.4885,4.25833333 L6.4515,5.925 C6.14020373,6.41330908 5.5938525,6.70948564 5.0065,6.70833333 L4.25,6.70833333 L4.25,13.375 L4.7515,13.375 C5.51396887,13.3644364 6.24997035,13.6488727 6.8,14.1666667 L6.8,14.1666667 C7.3431454,14.6997078 8.07998298,14.9994546 8.8485,15 L14.1525,15 C14.8460646,14.9972563 15.4683846,14.5817167 15.725,13.95 L16.6345,11.725 C16.8746973,11.1336725 16.9987079,10.5031578 17,9.86666667 L17,7.5 C17,6.57952542 16.2388841,5.83333333 15.3,5.83333333 Z" id="Icon-color"></path>
            </g>
        </g>
    </g>
</svg>