<!-- Generated by IcoMoon.io -->
<svg version="1.1" xmlns="http://www.w3.org/2000/svg" width="32" height="32" viewBox="0 0 32 32">
<title>liked1</title>
<path fill="currentColor" d="M6.667 26c0 0.368-0.298 0.667-0.667 0.667h-2.667c-0.368 0-0.667-0.298-0.667-0.667v-12c0-0.368 0.298-0.667 0.667-0.667h2.667c0.368 0 0.667 0.298 0.667 0.667v12zM26.667 13.333h-6.667l2.067-4.147c0.42-0.825 0.626-1.742 0.6-2.667v-0.52c0-1.105-0.895-2-2-2h-0.187c-0.284 0.002-0.536 0.184-0.627 0.453l-0.8 2.373c-0.248 0.741-0.809 1.335-1.533 1.627l-0.573 0.227c-1.047 0.429-1.933 1.175-2.533 2.133l-1.627 2.667c-0.488 0.781-1.345 1.255-2.267 1.253h-1.187v10.667h0.787c1.196-0.017 2.351 0.438 3.213 1.267v0c0.852 0.853 2.008 1.332 3.213 1.333h8.32c1.088-0.004 2.064-0.669 2.467-1.68l1.427-3.56c0.377-0.946 0.571-1.955 0.573-2.973v-3.787c0-1.473-1.194-2.667-2.667-2.667z"></path>
</svg>
