<!-- Generated by IcoMoon.io -->
<svg version="1.1" xmlns="http://www.w3.org/2000/svg" width="32" height="32" viewBox="0 0 32 32">
<path fill="currentColor" d="M22 4c-2.291 0.071-4.455 1.067-6 2.76-1.545-1.693-3.709-2.689-6-2.76-4.050 0-7.333 3.283-7.333 7.333 0 5.227 6.333 11 9.333 14l3.040 3.040c0.187 0.188 0.442 0.293 0.707 0.293h0.507c0.265 0 0.519-0.106 0.707-0.293l3.040-3.040c3-3 9.333-8.773 9.333-14 0-4.050-3.283-7.333-7.333-7.333zM18.933 22.667l-2.933 2.893-2.933-2.893c-2.707-2.667-7.733-7.653-7.733-11.333 0-2.577 2.089-4.667 4.667-4.667v0c2.010 0.183 3.829 1.266 4.947 2.947 0.194 0.244 0.488 0.386 0.8 0.387h0.6c0.209-0.002 0.406-0.1 0.533-0.267 1.136-1.745 3.007-2.874 5.080-3.067v0c1.245-0.011 2.442 0.476 3.326 1.353s1.381 2.069 1.381 3.314c0 3.68-5.027 8.667-7.733 11.333z"></path>
</svg>
