<!-- Generated by IcoMoon.io -->
<svg version="1.1" xmlns="http://www.w3.org/2000/svg" width="24" height="24" viewBox="0 0 24 24">
<title>icon-location</title>
<path fill="#999" d="M14 10c0 1.105-0.895 2-2 2s-2-0.895-2-2c0-1.105 0.895-2 2-2s2 0.895 2 2zM12 4c-3.314 0-6 2.686-6 6 0 2.8 1.18 3.74 2.82 5 1.379 0.932 2.478 2.221 3.18 3.73 0.705-1.507 1.804-2.795 3.18-3.73 1.64-1.26 2.82-2.2 2.82-5 0-3.314-2.686-6-6-6v0zM12 2c4.418 0 8 3.582 8 8 0 6.22-5.050 6.17-6.26 9.78l-0.51 1.54c-0.143 0.425-0.552 0.703-1 0.68h-0.56c-0.448 0.023-0.857-0.255-1-0.68l-0.51-1.54c-1.11-3.61-6.16-3.56-6.16-9.78 0-4.418 3.582-8 8-8z"></path>
</svg>
