<!-- Generated by IcoMoon.io -->
<svg version="1.1" xmlns="http://www.w3.org/2000/svg" width="32" height="32" viewBox="0 0 32 32">
<title>luojia-select</title>
<path fill="currentColor" d="M20.667 17.333h-3.333v3.333c0 0.368-0.298 0.667-0.667 0.667h-1.333c-0.368 0-0.667-0.298-0.667-0.667v-3.333h-3.333c-0.368 0-0.667-0.298-0.667-0.667v-1.333c0-0.368 0.298-0.667 0.667-0.667h3.333v-3.333c0-0.368 0.298-0.667 0.667-0.667h1.333c0.368 0 0.667 0.298 0.667 0.667v3.333h3.333c0.368 0 0.667 0.298 0.667 0.667v1.333c0 0.368-0.298 0.667-0.667 0.667zM4.667 12h1.333c0.368 0 0.667-0.298 0.667-0.667v-4.667h4.667c0.368 0 0.667-0.298 0.667-0.667v-1.333c0-0.368-0.298-0.667-0.667-0.667h-4.667c-1.473 0-2.667 1.194-2.667 2.667v4.667c0 0.368 0.298 0.667 0.667 0.667zM11.333 25.333h-4.667v-4.667c0-0.368-0.298-0.667-0.667-0.667h-1.333c-0.368 0-0.667 0.298-0.667 0.667v4.667c0 1.473 1.194 2.667 2.667 2.667h4.667c0.368 0 0.667-0.298 0.667-0.667v-1.333c0-0.368-0.298-0.667-0.667-0.667zM25.333 4h-4.667c-0.368 0-0.667 0.298-0.667 0.667v1.333c0 0.368 0.298 0.667 0.667 0.667h4.667v4.667c0 0.368 0.298 0.667 0.667 0.667h1.333c0.368 0 0.667-0.298 0.667-0.667v-4.667c0-1.473-1.194-2.667-2.667-2.667zM27.333 20h-1.333c-0.368 0-0.667 0.298-0.667 0.667v4.667h-4.667c-0.368 0-0.667 0.298-0.667 0.667v1.333c0 0.368 0.298 0.667 0.667 0.667h4.667c1.473 0 2.667-1.194 2.667-2.667v-4.667c0-0.368-0.298-0.667-0.667-0.667z"></path>
</svg>
