<?xml version="1.0" encoding="UTF-8"?>
<svg width="16px" height="16px" viewBox="0 0 16 16" version="1.1" xmlns="http://www.w3.org/2000/svg" xmlns:xlink="http://www.w3.org/1999/xlink">
    <g id="完整" stroke="none" stroke-width="1" fill="none" fill-rule="evenodd">
        <g id="大模型/武汉luojia-在线体验2备份" transform="translate(-1463.000000, -802.000000)" fill="#FFFFFF">
            <g id="编组-5" transform="translate(1364.000000, 793.000000)">
                <g id="编组-3备份-2" transform="translate(99.000000, 8.000000)">
                    <g id="icon/24/关闭备份-4" transform="translate(8.000000, 9.000000) rotate(-360.000000) translate(-8.000000, -9.000000) translate(0.000000, 1.000000)">
                        <path d="M14.6666667,8.00000009 C14.6666667,11.3137085 11.9803752,14.000032 8.66666667,14.000032 C7.43493894,14.0040446 6.23255333,13.6242212 5.22666667,12.9133333 C5.14629589,12.8554308 5.09517301,12.7653571 5.08666667,12.6666667 C5.07871186,12.5705805 5.11275116,12.4757567 5.18,12.4066667 L5.66,11.92 C5.77267745,11.8084921 5.94829953,11.7917662 6.08,11.88 C6.84413441,12.3950333 7.7451706,12.6690598 8.66666667,12.6666667 C11.2439955,12.6666667 13.3333333,10.5773288 13.3333333,8.00000009 C13.3333333,5.42267117 11.2439955,3.33333333 8.66666667,3.33333333 C6.08933783,3.33333333 4,5.42267117 4,8.00000009 L5.57333333,8.00000009 C5.66372388,7.99868924 5.75061627,8.0348944 5.81333333,8.1 L5.94666667,8.23333333 C6.00977088,8.2959222 6.04526611,8.38112082 6.04526611,8.47 C6.04526611,8.55887918 6.00977088,8.6440778 5.94666667,8.70666667 L3.59333333,11.0666667 C3.46145755,11.1945222 3.25187578,11.1945222 3.12,11.0666667 L0.766666667,8.70666667 C0.70356245,8.6440778 0.668067225,8.55887918 0.668067225,8.47 C0.668067225,8.38112082 0.70356245,8.2959222 0.766666667,8.23333333 L0.9,8.1 C0.96271706,8.0348944 1.04960946,7.99868924 1.14,8.00000009 L2.66666667,8.00000009 C2.66666672,4.68629154 5.3529582,2.00000009 8.66666667,2.00000009 C11.9803751,2.00000009 14.6666667,4.68629154 14.6666667,8.00000009 L14.6666667,8.00000009 Z M8.92,4.66666667 L8.41333333,4.66666667 C8.22923842,4.66666667 8.08,4.81590508 8.08,5 L8.08,8.10666667 C8.08327716,8.19414682 8.11891241,8.27729575 8.18,8.34 L10.3733333,10.5333333 C10.4359222,10.5964376 10.5211208,10.6319328 10.61,10.6319328 C10.6988792,10.6319328 10.7840778,10.5964376 10.8466667,10.5333333 L11.2,10.18 C11.2631042,10.1174111 11.2985994,10.0322125 11.2985994,9.94333333 C11.2985994,9.85445415 11.2631042,9.76925553 11.2,9.70666667 L9.25333333,7.76 L9.25333333,5 C9.25333333,4.9115945 9.21821439,4.82680987 9.15570226,4.76429774 C9.09319013,4.70178561 9.0084055,4.66666667 8.92,4.66666667 Z" id="Icon-color"></path>
                    </g>
                </g>
            </g>
        </g>
    </g>
</svg>