<?xml version="1.0" encoding="UTF-8"?>
<svg width="16px" height="16px" viewBox="0 0 16 16" version="1.1" xmlns="http://www.w3.org/2000/svg" xmlns:xlink="http://www.w3.org/1999/xlink">
    <g id="完整" stroke="none" stroke-width="1" fill="none" fill-rule="evenodd">
        <g id="大模型/武汉luojia-在线体验2备份" transform="translate(-1569.000000, -801.000000)" fill="#FFFFFF">
            <g id="编组-7" transform="translate(1561.000000, 793.000000)">
                <g id="icon/24/关闭备份-5" transform="translate(8.000000, 8.000000)">
                    <path d="M14.3333333,7.33333333 L13.2866667,7.33333333 C12.9806097,4.91987312 11.0801269,3.0193903 8.66666667,2.71333333 L8.66666667,1.66666667 C8.66666667,1.48257175 8.51742825,1.33333333 8.33333333,1.33333333 L7.66666667,1.33333333 C7.48257175,1.33333333 7.33333333,1.48257175 7.33333333,1.66666667 L7.33333333,2.71333333 C4.91987312,3.0193903 3.0193903,4.91987312 2.71333333,7.33333333 L1.66666667,7.33333333 C1.48257175,7.33333333 1.33333333,7.48257175 1.33333333,7.66666667 L1.33333333,8.33333333 C1.33333333,8.51742825 1.48257175,8.66666667 1.66666667,8.66666667 L2.71333333,8.66666667 C3.0193903,11.0801269 4.91987312,12.9806097 7.33333333,13.2866667 L7.33333333,14.3333333 C7.33333333,14.5174282 7.48257175,14.6666667 7.66666667,14.6666667 L8.33333333,14.6666667 C8.51742825,14.6666667 8.66666667,14.5174282 8.66666667,14.3333333 L8.66666667,13.2866667 C11.0801269,12.9806097 12.9806097,11.0801269 13.2866667,8.66666667 L14.3333333,8.66666667 C14.5174282,8.66666667 14.6666667,8.51742825 14.6666667,8.33333333 L14.6666667,7.66666667 C14.6666667,7.48257175 14.5174282,7.33333333 14.3333333,7.33333333 Z M8,12 C5.790861,12 4,10.209139 4,8 C4,5.790861 5.790861,4 8,4 C10.209139,4 12,5.790861 12,8 C12,9.06086596 11.5785726,10.0782816 10.8284271,10.8284271 C10.0782816,11.5785726 9.06086596,12 8,12 Z" id="Icon-color"></path>
                </g>
            </g>
        </g>
    </g>
</svg>