<?xml version="1.0" encoding="UTF-8"?>
<svg width="16px" height="16px" viewBox="0 0 16 16" version="1.1" xmlns="http://www.w3.org/2000/svg" xmlns:xlink="http://www.w3.org/1999/xlink">
    <g id="完整" stroke="none" stroke-width="1" fill="none" fill-rule="evenodd">
        <g id="大模型/武汉luojia-在线体验2备份-2" transform="translate(-271.000000, -801.000000)" fill="#FFFFFF">
            <g id="编组-7备份-2" transform="translate(267.000000, 793.000000)">
                <g id="icon/24/关闭备份-5" transform="translate(4.000000, 8.000000)">
                    <path d="M10.3333333,8.66666667 L8.66666667,8.66666667 L8.66666667,10.3333333 C8.66666667,10.5174282 8.51742825,10.6666667 8.33333333,10.6666667 L7.66666667,10.6666667 C7.48257175,10.6666667 7.33333333,10.5174282 7.33333333,10.3333333 L7.33333333,8.66666667 L5.66666667,8.66666667 C5.48257175,8.66666667 5.33333333,8.51742825 5.33333333,8.33333333 L5.33333333,7.66666667 C5.33333333,7.48257175 5.48257175,7.33333333 5.66666667,7.33333333 L7.33333333,7.33333333 L7.33333333,5.66666667 C7.33333333,5.48257175 7.48257175,5.33333333 7.66666667,5.33333333 L8.33333333,5.33333333 C8.51742825,5.33333333 8.66666667,5.48257175 8.66666667,5.66666667 L8.66666667,7.33333333 L10.3333333,7.33333333 C10.5174282,7.33333333 10.6666667,7.48257175 10.6666667,7.66666667 L10.6666667,8.33333333 C10.6666667,8.51742825 10.5174282,8.66666667 10.3333333,8.66666667 Z M2.33333333,6 L3,6 C3.18409492,6 3.33333333,5.85076158 3.33333333,5.66666667 L3.33333333,3.33333333 L5.66666667,3.33333333 C5.85076158,3.33333333 6,3.18409492 6,3 L6,2.33333333 C6,2.14923842 5.85076158,2 5.66666667,2 L3.33333333,2 C2.59695367,2 2,2.59695367 2,3.33333333 L2,5.66666667 C2,5.85076158 2.14923842,6 2.33333333,6 Z M5.66666667,12.6666667 L3.33333333,12.6666667 L3.33333333,10.3333333 C3.33333333,10.1492384 3.18409492,10 3,10 L2.33333333,10 C2.14923842,10 2,10.1492384 2,10.3333333 L2,12.6666667 C2,13.4030463 2.59695367,14 3.33333333,14 L5.66666667,14 C5.85076158,14 6,13.8507616 6,13.6666667 L6,13 C6,12.8159051 5.85076158,12.6666667 5.66666667,12.6666667 Z M12.6666667,2 L10.3333333,2 C10.1492384,2 10,2.14923842 10,2.33333333 L10,3 C10,3.18409492 10.1492384,3.33333333 10.3333333,3.33333333 L12.6666667,3.33333333 L12.6666667,5.66666667 C12.6666667,5.85076158 12.8159051,6 13,6 L13.6666667,6 C13.8507616,6 14,5.85076158 14,5.66666667 L14,3.33333333 C14,2.59695367 13.4030463,2 12.6666667,2 Z M13.6666667,10 L13,10 C12.8159051,10 12.6666667,10.1492384 12.6666667,10.3333333 L12.6666667,12.6666667 L10.3333333,12.6666667 C10.1492384,12.6666667 10,12.8159051 10,13 L10,13.6666667 C10,13.8507616 10.1492384,14 10.3333333,14 L12.6666667,14 C13.4030463,14 14,13.4030463 14,12.6666667 L14,10.3333333 C14,10.1492384 13.8507616,10 13.6666667,10 Z" id="Icon-color"></path>
                </g>
            </g>
        </g>
    </g>
</svg>