<!-- Generated by IcoMoon.io -->
<svg version="1.1" xmlns="http://www.w3.org/2000/svg" width="32" height="32" viewBox="0 0 32 32">
<title>luojia-history</title>
<path fill="currentColor" d="M29.333 16c0 6.627-5.373 12-12 12-2.463 0.008-4.868-0.752-6.88-2.173-0.161-0.116-0.263-0.296-0.28-0.493-0.016-0.192 0.052-0.382 0.187-0.52l0.96-0.973c0.225-0.223 0.577-0.256 0.84-0.080 1.528 1.030 3.33 1.578 5.173 1.573 5.155 0 9.333-4.179 9.333-9.333s-4.179-9.333-9.333-9.333c-5.155 0-9.333 4.179-9.333 9.333h3.147c0.181-0.003 0.355 0.070 0.48 0.2l0.267 0.267c0.126 0.125 0.197 0.296 0.197 0.473s-0.071 0.348-0.197 0.473l-4.707 4.72c-0.264 0.256-0.683 0.256-0.947 0l-4.707-4.72c-0.126-0.125-0.197-0.296-0.197-0.473s0.071-0.348 0.197-0.473l0.267-0.267c0.125-0.13 0.299-0.203 0.48-0.2h3.053c0-6.627 5.373-12 12-12s12 5.373 12 12v0zM17.84 9.333h-1.013c-0.368 0-0.667 0.298-0.667 0.667v6.213c0.007 0.175 0.078 0.341 0.2 0.467l4.387 4.387c0.125 0.126 0.296 0.197 0.473 0.197s0.348-0.071 0.473-0.197l0.707-0.707c0.126-0.125 0.197-0.296 0.197-0.473s-0.071-0.348-0.197-0.473l-3.893-3.893v-5.52c0-0.177-0.070-0.346-0.195-0.471s-0.295-0.195-0.471-0.195z"></path>
</svg>
