<!-- Generated by IcoMoon.io -->
<svg version="1.1" xmlns="http://www.w3.org/2000/svg" width="32" height="32" viewBox="0 0 32 32">
<title>luojia-start</title>
<path fill="currentColor" d="M28.667 14.667h-2.093c-0.612-4.827-4.413-8.628-9.24-9.24v-2.093c0-0.368-0.298-0.667-0.667-0.667h-1.333c-0.368 0-0.667 0.298-0.667 0.667v2.093c-4.827 0.612-8.628 4.413-9.24 9.24h-2.093c-0.368 0-0.667 0.298-0.667 0.667v1.333c0 0.368 0.298 0.667 0.667 0.667h2.093c0.612 4.827 4.413 8.628 9.24 9.24v2.093c0 0.368 0.298 0.667 0.667 0.667h1.333c0.368 0 0.667-0.298 0.667-0.667v-2.093c4.827-0.612 8.628-4.413 9.24-9.24h2.093c0.368 0 0.667-0.298 0.667-0.667v-1.333c0-0.368-0.298-0.667-0.667-0.667zM16 24c-4.418 0-8-3.582-8-8s3.582-8 8-8c4.418 0 8 3.582 8 8 0 2.122-0.843 4.157-2.343 5.657s-3.535 2.343-5.657 2.343z"></path>
</svg>
