<?xml version="1.0" encoding="UTF-8"?>
<svg width="14px" height="10px" viewBox="0 0 14 10" version="1.1" xmlns="http://www.w3.org/2000/svg" xmlns:xlink="http://www.w3.org/1999/xlink">
    <g id="完整" stroke="none" stroke-width="1" fill="none" fill-rule="evenodd">
        <g id="大模型/武汉luojia-在线体验2备份-2" transform="translate(-1373.000000, -804.000000)" fill="#FFFFFF">
            <g id="编组-5" transform="translate(1364.000000, 793.000000)">
                <g id="编组-3备份" transform="translate(9.333320, 8.000000)">
                    <g id="编组-3" transform="translate(0.000000, 3.332956)">
                        <path d="M13.3252271,4.46704386 L13.3252271,4.46704386 C12.2388197,1.74468366 9.59205644,-0.0297282612 6.6626201,0.00037719432 C3.75267118,-0.0164544976 1.1274322,1.74622292 0.0399887811,4.44704386 L0.0399887811,4.44704386 C0.0143800592,4.51760217 0.000864777044,4.59198152 6.44530701e-06,4.66704386 C-0.000339497732,4.73788971 0.0132437513,4.80811259 0.0399887811,4.87371053 L0.0399887811,4.87371053 C1.1231987,7.57976968 3.74937971,9.3483669 6.6626201,9.33371053 C9.57256903,9.35054222 12.197808,7.58786481 13.2852514,4.88704386 L13.2852514,4.88704386 C13.3137708,4.81730455 13.3273879,4.7423648 13.3252271,4.66704386 L13.3252271,4.66704386 C13.336044,4.6008165 13.336044,4.53327122 13.3252271,4.46704386 Z M6.6626201,8.00037719 C4.40827556,7.99529964 2.35554099,6.7002269 1.37917278,4.66704386 C2.3521664,2.63103172 4.40717892,1.33503824 6.6626201,1.33503824 C8.91806128,1.33503824 10.9730738,2.63103172 11.9460674,4.66704386 C10.9696992,6.7002269 8.91696464,7.99529964 6.6626201,8.00037719 Z M6.6626201,2.66704386 C5.55872324,2.66704386 4.66383801,3.56247436 4.66383801,4.66704386 C4.66383801,5.77161336 5.55872324,6.66704386 6.6626201,6.66704386 C7.76651697,6.66704386 8.66140219,5.77161336 8.66140219,4.66704386 C8.66140219,3.56247436 7.76651697,2.66704386 6.6626201,2.66704386 Z" id="形状结合"></path>
                    </g>
                </g>
            </g>
        </g>
    </g>
</svg>