<!-- Generated by IcoMoon.io -->
<svg id="icon-ico--24--ui--format_bullets" viewBox="0 0 24 24">
    <path fill="currentColor" style="fill: var(--color1, #555)"
        d="M21 5.5v1c0 0.276-0.224 0.5-0.5 0.5h-11c-0.276 0-0.5-0.224-0.5-0.5v-1c0-0.276 0.224-0.5 0.5-0.5h11c0.276 0 0.5 0.224 0.5 0.5zM20.5 11h-11c-0.276 0-0.5 0.224-0.5 0.5v1c0 0.276 0.224 0.5 0.5 0.5h11c0.276 0 0.5-0.224 0.5-0.5v-1c0-0.276-0.224-0.5-0.5-0.5zM20.5 17h-11c-0.276 0-0.5 0.224-0.5 0.5v1c0 0.276 0.224 0.5 0.5 0.5h11c0.276 0 0.5-0.224 0.5-0.5v-1c0-0.276-0.224-0.5-0.5-0.5zM5 4c-1.105 0-2 0.895-2 2s0.895 2 2 2c1.105 0 2-0.895 2-2 0-0.53-0.211-1.039-0.586-1.414s-0.884-0.586-1.414-0.586zM5 10c-1.105 0-2 0.895-2 2s0.895 2 2 2c1.105 0 2-0.895 2-2s-0.895-2-2-2zM5 16c-1.105 0-2 0.895-2 2s0.895 2 2 2c1.105 0 2-0.895 2-2s-0.895-2-2-2z">
    </path>
</svg>
