<?xml version="1.0" encoding="UTF-8"?>
<svg width="48px" height="48px" viewBox="0 0 48 48" version="1.1" xmlns="http://www.w3.org/2000/svg" xmlns:xlink="http://www.w3.org/1999/xlink">
    <title>活动</title>
    <defs>
        <rect id="path-1" x="0" y="0" width="48" height="48"></rect>
        <polygon id="path-3" points="0 0 34.7259043 0 34.7259043 31.7648819 0 31.7648819"></polygon>
        <polygon id="path-5" points="0 0 34.7259043 0 34.7259043 31.7648819 0 31.7648819"></polygon>
        <linearGradient x1="50%" y1="0%" x2="50%" y2="100%" id="linearGradient-7">
            <stop stop-color="#D0E1FF" offset="0%"></stop>
            <stop stop-color="#A9C5FB" offset="100%"></stop>
        </linearGradient>
        <path d="M32.5457697,31.7648819 L2.18010916,31.7648819 C0.976059112,31.7648819 -2.54852375e-05,30.7874774 -2.54852375e-05,29.5817991 L-2.54852375e-05,2.1830828 C-2.54852375e-05,0.977404538 0.976059112,0 2.18010916,0 L32.5457697,0 C33.7498197,0 34.7259043,0.977404538 34.7259043,2.1830828 L34.7259043,29.5817991 C34.7259043,30.7874774 33.7498197,31.7648819 32.5457697,31.7648819" id="path-8"></path>
        <polygon id="path-9" points="0 0 34.7259043 0 34.7259043 8.2375042 0 8.2375042"></polygon>
        <linearGradient x1="50%" y1="0%" x2="50%" y2="100%" id="linearGradient-11">
            <stop stop-color="#90C3FF" offset="0%"></stop>
            <stop stop-color="#5790FF" offset="100%"></stop>
        </linearGradient>
        <polygon id="path-12" points="0 0 4.10949455 0 4.10949455 6.06420821 0 6.06420821"></polygon>
        <linearGradient x1="50%" y1="0%" x2="50%" y2="100%" id="linearGradient-14">
            <stop stop-color="#EDF4FF" offset="0%"></stop>
            <stop stop-color="#D7E6FF" offset="100%"></stop>
        </linearGradient>
        <polygon id="path-15" points="0 0 4.10949455 0 4.10949455 6.06420821 0 6.06420821"></polygon>
        <polygon id="path-17" points="0 0 4.10949455 0 4.10949455 6.06420821 0 6.06420821"></polygon>
        <linearGradient x1="85.0212204%" y1="0%" x2="10.3308858%" y2="83.4814829%" id="linearGradient-19">
            <stop stop-color="#D0D2FA" offset="0%"></stop>
            <stop stop-color="#A898FF" offset="100%"></stop>
        </linearGradient>
        <linearGradient x1="50%" y1="0%" x2="50%" y2="100%" id="linearGradient-20">
            <stop stop-color="#ABE9FF" offset="0%"></stop>
            <stop stop-color="#6CD9FF" offset="100%"></stop>
        </linearGradient>
    </defs>
    <g id="页面-1" stroke="none" stroke-width="1" fill="none" fill-rule="evenodd">
        <g id="产业/产业首页-电力专区" transform="translate(-1382.000000, -2516.000000)">
            <g id="编组" transform="translate(252.000000, 2500.000000)">
                <g id="活动" transform="translate(1130.000000, 16.000000)">
                    <mask id="mask-2" fill="white">
                        <use xlink:href="#path-1"></use>
                    </mask>
                    <g id="矩形"></g>
                    <g id="编组" mask="url(#mask-2)">
                        <g transform="translate(1.000000, 4.000000)">
                            <g id="编组" stroke-width="1" fill="none" fill-rule="evenodd" transform="translate(0.000000, 6.064157)">
                                <mask id="mask-4" fill="white">
                                    <use xlink:href="#path-3"></use>
                                </mask>
                                <g id="Clip-2"></g>
                                <path d="M32.5457697,31.7648819 L2.18010916,31.7648819 C0.976059112,31.7648819 -2.54852375e-05,30.7874774 -2.54852375e-05,29.5817991 L-2.54852375e-05,2.1830828 C-2.54852375e-05,0.977404538 0.976059112,0 2.18010916,0 L32.5457697,0 C33.7498197,0 34.7259043,0.977404538 34.7259043,2.1830828 L34.7259043,29.5817991 C34.7259043,30.7874774 33.7498197,31.7648819 32.5457697,31.7648819" id="Fill-1" fill="#B5F2FF" mask="url(#mask-4)"></path>
                            </g>
                            <g id="编组" stroke-width="1" fill="none" fill-rule="evenodd" transform="translate(0.000000, 4.042767)">
                                <mask id="mask-6" fill="white">
                                    <use xlink:href="#path-5"></use>
                                </mask>
                                <g id="Clip-4"></g>
                                <g id="Fill-3" mask="url(#mask-6)">
                                    <use fill="#D3D6F6" xlink:href="#path-8"></use>
                                    <use fill="url(#linearGradient-7)" xlink:href="#path-8"></use>
                                </g>
                            </g>
                            <g id="编组" stroke-width="1" fill="none" fill-rule="evenodd" transform="translate(0.000000, 4.042805)">
                                <mask id="mask-10" fill="white">
                                    <use xlink:href="#path-9"></use>
                                </mask>
                                <g id="Clip-6"></g>
                                <path d="M34.7259043,8.2375042 L-2.54852375e-05,8.2375042 L-2.54852375e-05,2.1830828 C-2.54852375e-05,0.977404538 0.976059112,0 2.18010916,0 L32.5457697,0 C33.7498197,0 34.7259043,0.977404538 34.7259043,2.1830828 L34.7259043,8.2375042 Z" id="Fill-5" fill="url(#linearGradient-11)" mask="url(#mask-10)"></path>
                            </g>
                            <path d="M7.15370618,10.2513914 L7.15370618,10.2513914 C6.01897598,10.2513914 5.0989589,9.33025778 5.0989589,8.19386551 L5.0989589,6.24467077 C5.0989589,5.10840609 6.01897598,4.1871449 7.15370618,4.1871449 L7.15370618,4.1871449 C8.28843638,4.1871449 9.20845345,5.10840609 9.20845345,6.24467077 L9.20845345,8.19386551 C9.20845345,9.33025778 8.28843638,10.2513914 7.15370618,10.2513914" id="Fill-7" fill="#518DFF" fill-rule="evenodd"></path>
                            <path d="M7.15370618,8.15780617 L7.15370618,8.15780617 C6.01897598,8.15780617 5.0989589,7.23667258 5.0989589,6.1002803 L5.0989589,4.15108556 C5.0989589,3.01482089 6.01897598,2.09355969 7.15370618,2.09355969 L7.15370618,2.09355969 C8.28843638,2.09355969 9.20845345,3.01482089 9.20845345,4.15108556 L9.20845345,6.1002803 C9.20845345,7.23667258 8.28843638,8.15780617 7.15370618,8.15780617" id="Fill-9" fill="#C5D9FE" fill-rule="evenodd"></path>
                            <g id="编组" stroke-width="1" fill="none" fill-rule="evenodd" transform="translate(5.098959, 0.000000)">
                                <mask id="mask-13" fill="white">
                                    <use xlink:href="#path-12"></use>
                                </mask>
                                <g id="Clip-12"></g>
                                <path d="M2.05474728,6.06420821 L2.05474728,6.06420821 C0.920017075,6.06420821 0,5.14307461 0,4.00668233 L0,2.05748759 C0,0.921222917 0.920017075,-3.82795511e-05 2.05474728,-3.82795511e-05 L2.05474728,-3.82795511e-05 C3.18947748,-3.82795511e-05 4.10949455,0.921222917 4.10949455,2.05748759 L4.10949455,4.00668233 C4.10949455,5.14307461 3.18947748,6.06420821 2.05474728,6.06420821" id="Fill-11" fill="url(#linearGradient-14)" mask="url(#mask-13)"></path>
                            </g>
                            <path d="M17.3629522,10.2513914 L17.3629522,10.2513914 C16.228222,10.2513914 15.3082049,9.33025778 15.3082049,8.19386551 L15.3082049,6.24467077 C15.3082049,5.10840609 16.228222,4.1871449 17.3629522,4.1871449 L17.3629522,4.1871449 C18.4976824,4.1871449 19.4176994,5.10840609 19.4176994,6.24467077 L19.4176994,8.19386551 C19.4176994,9.33025778 18.4976824,10.2513914 17.3629522,10.2513914" id="Fill-13" fill="#518DFF" fill-rule="evenodd"></path>
                            <path d="M17.3629522,8.15780617 L17.3629522,8.15780617 C16.228222,8.15780617 15.3082049,7.23667258 15.3082049,6.1002803 L15.3082049,4.15108556 C15.3082049,3.01482089 16.228222,2.09355969 17.3629522,2.09355969 L17.3629522,2.09355969 C18.4976824,2.09355969 19.4176994,3.01482089 19.4176994,4.15108556 L19.4176994,6.1002803 C19.4176994,7.23667258 18.4976824,8.15780617 17.3629522,8.15780617" id="Fill-15" fill="#C5D9FE" fill-rule="evenodd"></path>
                            <g id="编组" stroke-width="1" fill="none" fill-rule="evenodd" transform="translate(15.308205, 0.000000)">
                                <mask id="mask-16" fill="white">
                                    <use xlink:href="#path-15"></use>
                                </mask>
                                <g id="Clip-18"></g>
                                <path d="M2.05474728,6.06420821 L2.05474728,6.06420821 C0.920017075,6.06420821 0,5.14307461 0,4.00668233 L0,2.05748759 C0,0.921222917 0.920017075,-3.82795511e-05 2.05474728,-3.82795511e-05 L2.05474728,-3.82795511e-05 C3.18947748,-3.82795511e-05 4.10949455,0.921222917 4.10949455,2.05748759 L4.10949455,4.00668233 C4.10949455,5.14307461 3.18947748,6.06420821 2.05474728,6.06420821" id="Fill-17" fill="url(#linearGradient-14)" mask="url(#mask-16)"></path>
                            </g>
                            <path d="M27.5721982,10.2513914 L27.5721982,10.2513914 C26.437468,10.2513914 25.5174509,9.33025778 25.5174509,8.19386551 L25.5174509,6.24467077 C25.5174509,5.10840609 26.437468,4.1871449 27.5721982,4.1871449 L27.5721982,4.1871449 C28.7069284,4.1871449 29.6269454,5.10840609 29.6269454,6.24467077 L29.6269454,8.19386551 C29.6269454,9.33025778 28.7069284,10.2513914 27.5721982,10.2513914" id="Fill-19" fill="#518DFF" fill-rule="evenodd"></path>
                            <path d="M27.5721982,8.15780617 L27.5721982,8.15780617 C26.437468,8.15780617 25.5174509,7.23667258 25.5174509,6.1002803 L25.5174509,4.15108556 C25.5174509,3.01482089 26.437468,2.09355969 27.5721982,2.09355969 L27.5721982,2.09355969 C28.7069284,2.09355969 29.6269454,3.01482089 29.6269454,4.15108556 L29.6269454,6.1002803 C29.6269454,7.23667258 28.7069284,8.15780617 27.5721982,8.15780617" id="Fill-21" fill="#C5D9FE" fill-rule="evenodd"></path>
                            <g id="编组" stroke-width="1" fill="none" fill-rule="evenodd" transform="translate(25.517451, 0.000000)">
                                <mask id="mask-18" fill="white">
                                    <use xlink:href="#path-17"></use>
                                </mask>
                                <g id="Clip-24"></g>
                                <path d="M2.05474728,6.06420821 L2.05474728,6.06420821 C0.920017075,6.06420821 0,5.14307461 0,4.00668233 L0,2.05748759 C0,0.921222917 0.920017075,-3.82795511e-05 2.05474728,-3.82795511e-05 L2.05474728,-3.82795511e-05 C3.18947748,-3.82795511e-05 4.10949455,0.921222917 4.10949455,2.05748759 L4.10949455,4.00668233 C4.10949455,5.14307461 3.18947748,6.06420821 2.05474728,6.06420821" id="Fill-23" fill="url(#linearGradient-14)" mask="url(#mask-18)"></path>
                            </g>
                            <polygon id="Fill-25" fill="#FFFFFF" fill-rule="evenodd" opacity="0.547479539" points="3.78595946 21.1781616 9.89107554 21.1781616 9.89107554 15.0647897 3.78595946 15.0647897"></polygon>
                            <polygon id="Fill-27" fill="#FFFFFF" fill-rule="evenodd" opacity="0.547479539" points="14.3103432 21.1781616 20.4154592 21.1781616 20.4154592 15.0647897 14.3103432 15.0647897"></polygon>
                            <polygon id="Fill-28" fill="#FFFFFF" fill-rule="evenodd" opacity="0.547479539" points="24.8348543 21.1781616 30.9399704 21.1781616 30.9399704 15.0647897 24.8348543 15.0647897"></polygon>
                            <polygon id="Fill-29" fill="#FFFFFF" fill-rule="evenodd" opacity="0.547479539" points="3.78595946 30.8401755 9.89107554 30.8401755 9.89107554 24.7268036 3.78595946 24.7268036"></polygon>
                            <polygon id="Fill-30" fill="#FFFFFF" fill-rule="evenodd" opacity="0.547479539" points="14.3103432 30.8401755 20.4154592 30.8401755 20.4154592 24.7268036 14.3103432 24.7268036"></polygon>
                            <polygon id="Fill-31" fill="#FFFFFF" fill-rule="evenodd" opacity="0.547479539" points="24.8348543 30.8401755 30.9399704 30.8401755 30.9399704 24.7268036 24.8348543 24.7268036"></polygon>
                            <path d="M45.0192516,28.7124067 C45.0192516,30.205054 44.7014507,31.6231838 44.1308362,32.9017208 C42.5283245,36.5057405 38.91936,39.0177722 34.7258916,39.0177722 C29.0417916,39.0177722 24.4325316,34.4041931 24.4325316,28.7124067 C24.4325316,25.2831969 26.1056374,22.2448213 28.6769705,20.3711649 C30.3755615,19.1338422 32.4663704,18.4051272 34.7258916,18.4051272 C40.4099915,18.4051272 45.0192516,23.0187063 45.0192516,28.7124067" id="Fill-32" fill-opacity="0.6" fill="#DFF4FB" fill-rule="evenodd"></path>
                            <path d="M45.0192516,28.7124067 C45.0192516,30.205054 44.7014507,31.6231838 44.1308362,32.9017208 C42.4341565,34.141085 40.3433476,34.8696725 38.0838265,34.8696725 C32.3978151,34.8696725 27.7904665,30.256221 27.7904665,24.5644345 C27.7904665,23.0716596 28.1082674,21.6517435 28.6769705,20.3711649 C30.3755615,19.1338422 32.4663704,18.4051272 34.7258916,18.4051272 C40.4099915,18.4051272 45.0192516,23.0187063 45.0192516,28.7124067" id="Fill-33" fill="#FBFBFB" fill-rule="evenodd"></path>
                            <path d="M34.7260063,19.3869721 C29.591368,19.3869721 25.4140828,23.5699063 25.4140828,28.711488 C25.4140828,33.8529421 29.591368,38.0358762 34.7260063,38.0358762 C39.8605171,38.0358762 44.0378024,33.8529421 44.0378024,28.711488 C44.0378024,23.5699063 39.8605171,19.3869721 34.7260063,19.3869721 M34.7260063,40 C28.509902,40 23.4526114,34.9359982 23.4526114,28.711488 C23.4526114,22.4871054 28.509902,17.422976 34.7260063,17.422976 C40.9421106,17.422976 45.9991462,22.4871054 45.9991462,28.711488 C45.9991462,34.9359982 40.9421106,40 34.7260063,40" id="Fill-34" fill="url(#linearGradient-19)" fill-rule="evenodd"></path>
                            <path d="M42.9923597,35.8321352 C42.7889875,35.8321352 42.5838313,35.768974 42.4079832,35.6381855 C41.9733325,35.3145957 41.8829873,34.6995709 42.2061401,34.2642048 C43.4049657,32.6494458 44.0385287,30.7297263 44.0385287,28.7125215 C44.0385287,26.6940408 43.4049657,24.7735557 42.2061401,23.1586691 C41.8829873,22.723303 41.9733325,22.1082782 42.4079832,21.7846884 C42.8423791,21.4610986 43.4568281,21.5516935 43.7801084,21.9868044 C45.2323846,23.9430171 46,26.2686274 46,28.7125215 C46,31.1548845 45.2323846,33.4798568 43.7801084,35.4360695 C43.5876948,35.695222 43.2919387,35.8321352 42.9923597,35.8321352" id="Fill-35" fill="#8A77FE" fill-rule="evenodd"></path>
                            <path d="M26.4594617,35.8321352 C26.1598827,35.8321352 25.8641266,35.695222 25.671713,35.4360695 C24.2194368,33.4798568 23.4518214,31.1548845 23.4518214,28.7125215 C23.4518214,26.2686274 24.2194368,23.9430171 25.671713,21.9868044 C25.9947384,21.5516935 26.6090601,21.4610986 27.0438382,21.7846884 C27.4784889,22.1082782 27.5688341,22.723303 27.2456813,23.1586691 C26.0468557,24.7735557 25.4132927,26.6940408 25.4132927,28.7125215 C25.4132927,30.7297263 26.0468557,32.6494458 27.2456813,34.2642048 C27.5688341,34.6995709 27.4784889,35.3145957 27.0438382,35.6381855 C26.8679901,35.768974 26.6628339,35.8321352 26.4594617,35.8321352" id="Fill-36" fill="#8A77FE" fill-rule="evenodd"></path>
                            <path d="M28.2060899,24.8261716 C28.4501834,24.5029835 28.8920744,24.4172756 29.2355955,24.6103416 L29.3266216,24.6699388 L35.535,29.359 L40.3493143,27.7181026 C40.7326619,27.5874245 41.1465827,27.7642945 41.3227133,28.1167988 L41.3646517,28.2171918 C41.4953299,28.6005394 41.3184598,29.0144602 40.9659555,29.1905908 L40.8655625,29.2325292 L35.2482284,31.147405 L28.3623227,25.9467033 C28.0097539,25.6804195 27.9398061,25.1787404 28.2060899,24.8261716 Z" id="Stroke-37" fill="url(#linearGradient-20)" fill-rule="nonzero"></path>
                        </g>
                    </g>
                </g>
            </g>
        </g>
    </g>
</svg>