<?xml version="1.0" encoding="UTF-8"?>
<svg width="48px" height="48px" viewBox="0 0 48 48" version="1.1" xmlns="http://www.w3.org/2000/svg" xmlns:xlink="http://www.w3.org/1999/xlink">
    <title>切片</title>
    <g id="完整" stroke="none" stroke-width="1" fill="none" fill-rule="evenodd">
        <g id="大模型/紫东太初-在线体验" transform="translate(-693.000000, -955.000000)" fill="#E5E5E5" fill-rule="nonzero">
            <g id="编组-2" transform="translate(298.000000, 955.000000)">
                <g id="ico-/-24-/-files-/-folder_outlined备份-3" transform="translate(395.000000, 0.000000)">
                    <path d="M40,8 L8,8 C5.790861,8 4,9.790861 4,12 L4,36 C4,38.209139 5.790861,40 8,40 L40,40 C42.209139,40 44,38.209139 44,36 L44,12 C44,9.790861 42.209139,8 40,8 Z M40.0002087,33.66 C40.0055042,33.9268658 39.9019158,34.1844303 39.713173,34.373173 C39.5244303,34.5619158 39.2668658,34.6655042 39,34.6602112 C38.6837153,34.6666254 38.3844705,34.517003 38.2,34.26 L29.3,22.4 C29.1065461,22.1554203 28.8118392,22.0127717 28.5,22.0127717 C28.1881608,22.0127717 27.8934539,22.1554203 27.7,22.4 L22,29.82 C21.8091284,30.0693767 21.5140243,30.2169287 21.2,30.22 C20.9054375,30.2203165 20.6263558,30.0881199 20.44,29.86 L17.48,26.36 C17.2874156,26.1287449 17.0009245,25.9965183 16.7,26 C16.3970558,26.0069836 16.1122236,26.145748 15.92,26.38 L9.78,34.26 C9.59533651,34.5036364 9.30567414,34.6447539 9,34.64 C8.7331342,34.6455042 8.47556973,34.5419158 8.28682698,34.353173 C8.09808423,34.1644303 7.99449584,33.9068658 7.99979133,33.64 L7.99979133,12 L40.0002087,12 L40.0002087,33.66 Z M16,19 C16,17.3431458 17.3431458,16 19,16 C20.6568542,16 22,17.3431458 22,19 C22,20.6568542 20.6568542,22 19,22 C17.3431458,22 16,20.6568542 16,19 Z" id="Icon-color"></path>
                </g>
            </g>
        </g>
    </g>
</svg>