<?xml version="1.0" encoding="UTF-8"?>
<svg width="24px" height="24px" viewBox="0 0 24 24" version="1.1" xmlns="http://www.w3.org/2000/svg" xmlns:xlink="http://www.w3.org/1999/xlink">
    <title></title>
    <defs>
        <filter id="filter-1">
            <feColorMatrix in="SourceGraphic" type="matrix" values="0 0 0 0 0.000000 0 0 0 0 0.184314 0 0 0 0 0.654902 0 0 0 1.000000 0"></feColorMatrix>
        </filter>
    </defs>
    <g id="页面-1" stroke="none" stroke-width="1" fill="none" fill-rule="evenodd">
        <g id="我的模型/文件" transform="translate(-264.000000, -385.000000)">
            <g id="ico-/-24-/-files-/-folder_outlined" transform="translate(264.000000, 385.000000)" filter="url(#filter-1)">
                <g>
                    <path d="M20.73,7.12 L20.59,6.87 C20.4094391,6.56768636 20.1547422,6.31643129 19.85,6.14 L13.14,2.27 C12.8361604,2.09374649 12.4912598,2.00062334 12.14,2 L11.85,2 C11.4987402,2.00062334 11.1538396,2.09374649 10.85,2.27 L4.14,6.15 C3.8369747,6.32525513 3.58525513,6.5769747 3.41,6.88 L3.27,7.13 C3.09374649,7.43383964 3.00062334,7.77874021 3,8.13 L3,15.88 C3.00062334,16.2312598 3.09374649,16.5761604 3.27,16.88 L3.41,17.13 C3.58978965,17.4295137 3.84048626,17.6802104 4.14,17.86 L10.86,21.73 C11.1623036,21.9099123 11.508226,22.0033114 11.86,22.0000851 L12.14,22.0000851 C12.4912598,21.9993767 12.8361604,21.9062535 13.14,21.73 L19.85,17.85 C20.1560449,17.6787058 20.4087058,17.4260449 20.58,17.12 L20.73,16.87 C20.9041167,16.5652744 20.9970843,16.2209499 21,15.87 L21,8.12 C20.9993767,7.76874021 20.9062535,7.42383964 20.73,7.12 Z M11.85,4 L12.14,4 L18,7.38 L12,10.84 L6,7.38 L11.85,4 Z M18.85,16.12 L13,19.5 L13,12.58 L19,9.11 L19,15.87 L18.85,16.12 Z" id="Icon-color" fill="#000000" fill-rule="nonzero"></path>
                </g>
            </g>
        </g>
    </g>
</svg>