<?xml version="1.0" encoding="UTF-8"?>
<svg width="80px" height="84px" viewBox="0 0 80 84" version="1.1" xmlns="http://www.w3.org/2000/svg" xmlns:xlink="http://www.w3.org/1999/xlink">
    <title>模型管理</title>
    <g id="页面-1" stroke="none" stroke-width="1" fill="none" fill-rule="evenodd" opacity="0.19831032">
        <g id="羲和/模型/模型搜索页面" transform="translate(-1088.000000, -472.000000)" fill-rule="nonzero">
            <g id="编组-4" transform="translate(728.000000, 372.000000)">
                <g id="模型管理" transform="translate(360.000000, 100.000000)">
                    <path d="M38.3681683,0.116612429 L38.6160456,0.226231109 L73.3073807,18.5233538 C74.2749122,19.0336554 74.6506773,20.2414798 74.146676,21.2211054 C73.6786746,22.1307576 72.6166627,22.5237844 71.6926746,22.166714 L71.4822299,22.0708916 L37.6908642,4.24600002 L3.95061728,21.524 L3.95061728,59.326 L9.94043016,62.9518526 C10.6725646,62.413415 11.5564283,62.0736182 12.5148134,62.0106354 L12.8395062,62 C15.5668383,62 17.7777778,64.2385762 17.7777778,67 C17.7777778,67.2271661 17.7628154,67.4507939 17.7338343,67.6699283 L37.574321,79.6799999 L73.0864198,58.936 L73.0847802,39.5832306 C71.3415524,38.8112952 70.1234568,37.0496766 70.1234568,35 C70.1234568,32.2385762 72.3343962,30 75.0617284,30 C77.7890605,30 80,32.2385762 80,35 C80,37.0504544 78.7809796,38.8126324 77.0366918,39.584109 L77.037037,60.093591 C77.037037,60.7289508 76.7393568,61.321379 76.243731,61.6960408 L76.0487874,61.8259896 L38.5440749,83.7323985 C38.0012275,84.0494745 37.3472658,84.0844839 36.7804273,83.8389913 L36.5434084,83.7166113 L15.6801592,71.0904621 C14.8767435,71.6634879 13.8969379,72 12.8395062,72 C10.1121741,72 7.90123457,69.7614237 7.90123457,67 C7.90123457,66.7976099 7.91311109,66.5980283 7.93619698,66.4019309 L0.961701175,62.1781498 L0.943014499,62.1670284 C0.894463901,62.1368382 0.847301077,62.1045824 0.801645412,62.0703816 L0.961701175,62.1781498 C0.892512474,62.1362682 0.826769541,62.0907762 0.764566756,62.0420538 C0.725729975,62.0113788 0.68790159,61.9792696 0.6513168,61.945793 C0.633361244,61.9298912 0.616381017,61.9138234 0.599727348,61.8974968 L0.578554509,61.875752 C0.50252322,61.7987704 0.432661235,61.7155422 0.369783862,61.6268932 C0.30713444,61.5388626 0.252611595,61.4466452 0.205806163,61.350957 C0.180225383,61.2993596 0.156803694,61.2459896 0.135679388,61.1914518 C0.130796227,61.1776062 0.125524109,61.1634974 0.120410568,61.1493334 C0.0771341037,61.0309024 0.0452670222,60.9082114 0.025148563,60.7815422 C0.0222026272,60.76158 0.0193636148,60.7420642 0.0168083358,60.7225042 C0.0155296988,60.7137196 0.0143767901,60.7042602 0.0132893432,60.6947808 L0.00493637531,60.6052434 C0.00278198519,60.5753242 0.00128902716,60.5453336 0,60.515295 L0,20.2971228 C0,19.6267128 0.331099101,19.0069796 0.871523753,18.6384558 L1.08375729,18.5124266 L36.8119188,0.215303869 C37.2987672,-0.0340211909 37.8617557,-0.0666503909 38.3681683,0.116612429 Z" id="group1" fill="#FFFFFF"></path>
                    <path d="M68.393236,25.3658722 C68.7076863,25.9925404 68.5118811,26.7459772 67.9621677,27.1409116 L67.7867929,27.2481514 L38.9133177,42.0997004 L38.9135802,71.9999999 C38.9135802,72.7731985 38.2945171,73.3999999 37.5308642,73.3999999 C36.830849,73.3999999 36.2523295,72.8733127 36.1607708,72.1899717 L36.1481481,71.9999999 L36.1481481,42.072 L9.21546724,27.2296278 C8.60572113,26.893568 8.34553531,26.1603752 8.57757468,25.5196234 L8.66209592,25.3306606 C8.99400697,24.7132926 9.71814795,24.4498544 10.3509893,24.6847944 L10.5376192,24.7703722 L37.5503548,39.6597004 L66.5341948,24.7518486 C67.2150195,24.4016294 68.0473406,24.6765372 68.393236,25.3658722 Z" id="group2" fill="#FF7F0D"></path>
                </g>
            </g>
        </g>
    </g>
</svg>