<?xml version="1.0" encoding="UTF-8"?>
<svg width="48px" height="48px" viewBox="0 0 48 48" version="1.1" xmlns="http://www.w3.org/2000/svg" xmlns:xlink="http://www.w3.org/1999/xlink">
    <title></title>
    <g id="页面-1" stroke="none" stroke-width="1" fill="none" fill-rule="evenodd">
        <g id="他人模型/模型卡片无文件" transform="translate(-704.000000, -509.000000)" fill="#E5E5E5" fill-rule="nonzero">
            <g id="ico-/-24-/-files-/-folder_outlined" transform="translate(704.000000, 509.000000)">
                <path d="M41.46,14.24 L41.18,13.74 C40.8188782,13.1353727 40.3094843,12.6328626 39.7,12.28 L26.28,4.54 C25.6723207,4.18749298 24.9825196,4.00124668 24.28,4 L23.7,4 C22.9974804,4.00124668 22.3076793,4.18749298 21.7,4.54 L8.28,12.3 C7.6739494,12.6505103 7.17051025,13.1539494 6.82,13.76 L6.54,14.26 C6.18749298,14.8676793 6.00124668,15.5574804 6,16.26 L6,31.76 C6.00124668,32.4625196 6.18749298,33.1523207 6.54,33.76 L6.82,34.26 C7.1795793,34.8590275 7.68097253,35.3604207 8.28,35.72 L21.72,43.46 C22.3246072,43.8198247 23.016452,44.0066228 23.72,44.0001702 L24.28,44.0001702 C24.9825196,43.9987533 25.6723207,43.812507 26.28,43.46 L39.7,35.7 C40.3120897,35.3574116 40.8174116,34.8520897 41.16,34.24 L41.46,33.74 C41.8082334,33.1305488 41.9941686,32.4418998 42,31.74 L42,16.24 C41.9987533,15.5374804 41.812507,14.8476793 41.46,14.24 Z M23.7,8 L24.28,8 L36,14.76 L24,21.68 L12,14.76 L23.7,8 Z M37.7,32.24 L26,39 L26,25.16 L38,18.22 L38,31.74 L37.7,32.24 Z" id="Icon-color"></path>
            </g>
        </g>
    </g>
</svg>