<svg id="icon-modelzoo-upload" viewBox="0 0 32 32">
<path fill="currentColor" d="M26.667 5.333h-21.333c-1.473 0-2.667 1.194-2.667 2.667v16c0 1.473 1.194 2.667 2.667 2.667h21.333c1.473 0 2.667-1.194 2.667-2.667v-16c0-1.473-1.194-2.667-2.667-2.667zM26.667 22.44c0.004 0.178-0.066 0.35-0.191 0.475s-0.298 0.195-0.475 0.191c-0.211 0.004-0.41-0.095-0.533-0.267l-5.933-7.907c-0.129-0.163-0.325-0.258-0.533-0.258s-0.404 0.095-0.533 0.258l-3.8 4.947c-0.127 0.166-0.324 0.265-0.533 0.267-0.196 0-0.382-0.088-0.507-0.24l-1.973-2.333c-0.128-0.154-0.319-0.242-0.52-0.24-0.202 0.005-0.392 0.097-0.52 0.253l-4.093 5.253c-0.123 0.162-0.316 0.256-0.52 0.253-0.178 0.004-0.35-0.065-0.475-0.191s-0.195-0.298-0.191-0.475v-14.427h21.334v14.44zM10.667 12.667c0-1.105 0.895-2 2-2s2 0.895 2 2c0 1.105-0.895 2-2 2s-2-0.895-2-2z"></path>
</svg>