<?xml version="1.0" encoding="UTF-8"?>
<svg width="24px" height="24px" viewBox="0 0 24 24" version="1.1" xmlns="http://www.w3.org/2000/svg" xmlns:xlink="http://www.w3.org/1999/xlink">
    <title>ico / 24 / other / moon_vs_outlined@1x</title>
    <g id="ico-/-24-/-other-/-moon_vs_outlined" stroke="none" stroke-width="1" fill="none" fill-rule="evenodd">
        <path d="M7.98258884,4.77241355 C8.19372641,7.69079838 9.45083677,10.434682 11.5225888,12.4991401 C13.5805865,14.5573863 16.3106372,15.804568 19.2125888,16.0121984 C17.4699489,18.9665993 14.0750896,20.5243521 10.7012687,19.9176718 C7.32744777,19.3109915 4.68666753,16.6679103 4.08051538,13.2911498 C3.47436323,9.91438919 5.03075992,6.51657187 7.98258884,4.77241355 L7.98258884,4.77241355 Z M9.39258884,2 L9.25258884,2 L9.25258884,2 C4.5890375,3.41278706 1.57277736,7.92688512 2.04937629,12.7802399 C2.52597522,17.6335946 6.36260416,21.4735665 11.2117338,21.9505807 C16.0608634,22.4275949 20.5710317,19.4087066 21.9825888,14.7410919 L21.9825888,14.7410919 C22.0306399,14.559893 21.981441,14.366714 21.8525888,14.2306475 L21.7625888,14.1405691 C21.6590342,14.0470044 21.5217046,13.9999822 21.3825888,14.0104558 L21.3225888,14.0104558 C20.9179345,14.0620256 20.5105066,14.0887655 20.1025888,14.0905255 C17.1849541,14.0918171 14.406719,12.8413115 12.4716731,10.6557899 C10.5366273,8.47026832 9.63041082,5.55940062 9.98258884,2.66057507 C9.99414007,2.50553982 9.93965355,2.35284462 9.83258884,2.24020912 L9.74258884,2.1501307 C9.64966393,2.05673688 9.52424612,2.00293956 9.39258884,2 Z" id="Icon-color" fill="#000000" fill-rule="nonzero"></path>
    </g>
</svg>