<?xml version="1.0" encoding="UTF-8"?>
<svg width="24px" height="24px" viewBox="0 0 24 24" version="1.1" xmlns="http://www.w3.org/2000/svg" xmlns:xlink="http://www.w3.org/1999/xlink">
    <title>ico / 24 / other / moon_vs@1x</title>
    <g id="ico-/-24-/-other-/-moon_vs" stroke="none" stroke-width="1" fill="none" fill-rule="evenodd">
        <path d="M22,14.7480811 C20.5872129,19.4116324 16.0731149,22.4278926 11.2197601,21.9512937 C6.36640537,21.4746947 2.52643351,17.6380658 2.04941931,12.7889362 C1.57240511,7.93980653 4.59129337,3.42963825 9.25890814,2.0180811 L9.25890814,2.0180811 C9.44010695,1.97003007 9.63328597,2.01922891 9.76935251,2.1480811 L9.85943093,2.2380811 C9.96658892,2.35061855 10.0211229,2.50318082 10.0095616,2.6580811 C9.62373931,5.76600918 10.691142,8.87839896 12.903636,11.0967781 C15.1161301,13.3151573 18.2274473,14.3926025 21.3394249,14.0180811 C21.4944602,14.0065299 21.6471554,14.0610164 21.7597909,14.1680811 L21.8498693,14.2580811 C21.9788338,14.3940292 22.0280755,14.58704 21.9799826,14.7680811 L22,14.7480811 Z" id="Icon-color" fill="#000000" fill-rule="nonzero"></path>
    </g>
</svg>