<?xml version="1.0" encoding="UTF-8"?>
<svg width="24px" height="24px" viewBox="0 0 24 24" version="1.1" xmlns="http://www.w3.org/2000/svg" xmlns:xlink="http://www.w3.org/1999/xlink">
    <title>切片</title>
    <g id="完整" stroke="none" stroke-width="1" fill="none" fill-rule="evenodd">
        <g id="个人中心/我的比赛" transform="translate(-288.000000, -697.000000)" fill="#555555" fill-rule="nonzero">
            <g id="个人中心菜单/我的消息" transform="translate(240.000000, 120.000000)">
                <g id="ico-/-24-/-ui-/-lock_open_outlined备份" transform="translate(48.000000, 577.000000)">
                    <path d="M19,2 L7,2 C5.34314575,2 4,3.34314575 4,5 L4,19 C4,20.6568542 5.34314575,22 7,22 L19.5,22 C19.7761424,22 20,21.7761424 20,21.5 L20,3 C20,2.44771525 19.5522847,2 19,2 Z M6,5 C6,4.44771525 6.44771525,4 7,4 L18,4 L18,16 L7,16 C6.65943364,15.9994948 6.32126757,16.056983 6,16.17 L6,5 Z M6,19 C6,18.4477153 6.44771525,18 7,18 L18,18 L18,20 L7,20 C6.44771525,20 6,19.5522847 6,19 Z M8.5,8 L15.5,8 C15.7761424,8 16,7.77614237 16,7.5 L16,6.5 C16,6.22385763 15.7761424,6 15.5,6 L8.5,6 C8.22385763,6 8,6.22385763 8,6.5 L8,7.5 C8,7.77614237 8.22385763,8 8.5,8 Z M8.5,12 L11.5,12 C11.7761424,12 12,11.7761424 12,11.5 L12,10.5 C12,10.2238576 11.7761424,10 11.5,10 L8.5,10 C8.22385763,10 8,10.2238576 8,10.5 L8,11.5 C8,11.7761424 8.22385763,12 8.5,12 Z" id="Icon-color"></path>
                </g>
            </g>
        </g>
    </g>
</svg>