<?xml version="1.0" encoding="UTF-8"?>
<svg width="48px" height="48px" viewBox="0 0 48 48" version="1.1" xmlns="http://www.w3.org/2000/svg" xmlns:xlink="http://www.w3.org/1999/xlink">
    <title>编组 40</title>
    <g id="页面-1" stroke="none" stroke-width="1" fill="none" fill-rule="evenodd">
        <g id="产业/产业首页-电力专区" transform="translate(-653.000000, -536.000000)">
            <g id="编组-40" transform="translate(653.000000, 536.000000)">
                <rect id="矩形" fill="#96CDFF" x="0" y="0" width="48" height="48" rx="8"></rect>
                <g id="自然语言处理" transform="translate(10.000000, 11.000000)" fill="#000000" fill-rule="nonzero">
                    <path d="M22.6925717,0.104990638 L22.7601397,0.154535864 L24.7601397,1.82120253 C25.0586533,2.06996393 25.0785543,2.5144682 24.8198424,2.78932865 L24.7601397,2.84549757 L22.7601397,4.51216425 C22.4772884,4.74787365 22.0569119,4.70965758 21.8212025,4.42680632 C21.6036247,4.16571284 21.6194507,3.78743813 21.8456431,3.54539514 L21.9065605,3.4878692 L22.4913333,3 L1.33333333,3.00001672 L1.33333333,21.0000167 L5.18214047,21.0000167 C5.41777573,21.0000167 5.6359078,21.1244071 5.755898,21.3272033 L6.46815907,22.5190239 L6.951685,23.3080272 L7.19362033,23.6920854 L7.33733333,23.9146834 L7.48833793,23.6870747 L7.92034667,23.0095955 L8.45498173,22.1461448 L8.95632653,21.3218483 C9.06196727,21.1470579 9.24086307,21.0317484 9.4403032,21.0056521 L9.52688173,21.0000167 L26.6666667,21.0000167 L26.6666667,7.57166925 C26.6666667,7.20347938 26.9651435,6.90500258 27.3333333,6.90500258 C27.6752239,6.90500258 27.9570048,7.16236272 27.9955149,7.49392178 L28,7.57166925 L28,21.0000167 C28,21.7029246 27.4560815,22.2787935 26.7661749,22.3296929 L26.6666667,22.3333501 L9.90266667,22.3333501 L8.92679993,23.932277 L8.6444058,24.3800627 L8.40564927,24.7443072 L8.25120653,24.9677529 L8.11474413,25.1525296 L7.99344807,25.302204 L7.91962007,25.3842472 L7.85044833,25.4533315 C7.83926133,25.4638244 7.82823367,25.4738213 7.81734793,25.4833444 L7.75359707,25.5349721 C7.7432094,25.5426877 7.73292887,25.5499733 7.72273813,25.5568511 L7.66253227,25.5934002 L7.60364747,25.6212178 L7.54525,25.6413609 L7.48650607,25.6548863 L7.42658193,25.6628509 L7.33333333,25.6666834 L7.2368748,25.6626872 L7.17550173,25.6544007 C7.1654072,25.6525659 7.1553676,25.6504886 7.1453646,25.6481451 L7.0856384,25.6307001 L7.02590873,25.6057309 C7.0059004,25.5960277 6.9857446,25.5848813 6.9652946,25.5721025 L6.90291487,25.5286803 L6.83788847,25.4743292 C6.8267812,25.4642969 6.815527,25.4537619 6.8041074,25.4427007 L6.733459,25.3698285 L6.65796127,25.2831903 L6.53369467,25.1249393 L6.4422188,24.9989211 L6.289855,24.7762804 L6.05379773,24.410723 L5.69593007,23.8305933 L4.802,22.3333501 L1.33333333,22.3333501 C0.630425467,22.3333501 0.0545565867,21.7894315 0.00365716,21.0995249 L0,21.0000167 L0,3.00001672 C0,2.29710885 0.543918527,1.72123997 1.23382511,1.67034054 L1.33333333,1.66668338 L22.4913333,1.66666667 L21.9065605,1.1788309 C21.645467,0.961253011 21.5928201,0.586325644 21.7716573,0.307461778 L21.8212025,0.239893784 C22.0387804,-0.0211996888 22.4137078,-0.0738465888 22.6925717,0.104990638 Z M14.8190104,6.08792978 L18.4492187,15.1634507 L16.9440104,15.1634507 L16.0143229,12.7285548 L11.9856771,12.7285548 L11.0559896,15.1634507 L9.55078127,15.1634507 L13.1809896,6.08792978 L14.8190104,6.08792978 Z M14.0221354,7.28324232 L13.9778646,7.28324232 L13.7122396,8.08011732 C13.6827257,8.13914505 13.2252604,9.31970065 12.3398437,11.621784 L12.3398437,11.621784 L15.6601563,11.621784 C14.7747396,9.31970065 14.3172743,8.13914505 14.2877604,8.08011732 C14.2877604,8.05060338 14.2730035,7.99157565 14.2434896,7.90303398 C14.0959201,7.54886732 14.0221354,7.34227005 14.0221354,7.28324232 L14.0221354,7.28324232 Z" id="group1"></path>
                    <path d="M18.4731183,16.3161087 C18.7492607,16.3161087 18.9731183,16.5399663 18.9731183,16.8161087 C18.9731183,17.0692392 18.7850157,17.278436 18.5409653,17.3115443 L18.4731183,17.3161087 L9.52688173,17.3161087 C9.25073933,17.3161087 9.02688173,17.0922511 9.02688173,16.8161087 C9.02688173,16.5629782 9.21498433,16.3537814 9.45903467,16.3206731 L9.52688173,16.3161087 L18.4731183,16.3161087 Z" id="group2"></path>
                </g>
            </g>
        </g>
    </g>
</svg>