<?xml version="1.0" encoding="UTF-8"?>
<svg width="48px" height="48px" viewBox="0 0 48 48" version="1.1" xmlns="http://www.w3.org/2000/svg" xmlns:xlink="http://www.w3.org/1999/xlink">
    <title></title>
    <g id="页面-1" stroke="none" stroke-width="1" fill="none" fill-rule="evenodd">
        <g id="他人模型/模型卡片无文件" transform="translate(-704.000000, -509.000000)" fill="#E5E5E5" fill-rule="nonzero">
            <g id="编组-3" transform="translate(651.000000, 509.000000)">
                <g id="ico-/-24-/-files-/-folder_outlined备份-3" transform="translate(53.000000, 0.000000)">
                    <path d="M11.9999987,43.9999987 L35.9999987,43.9999987 C38.209139,43.9999987 39.9999987,42.209139 39.9999987,39.9999987 L39.9999987,7.99999874 C39.9999987,5.790861 38.209139,3.99999874 35.9999987,3.99999874 L21.66,3.99999874 C20.5939108,3.99915525 19.5715928,4.4239212 18.82,5.18 L9.18,14.82 C8.4239212,15.5715928 7.99915525,16.5939108 7.99999874,17.66 L7.99999874,39.9999987 C7.99999874,42.209139 9.790861,43.9999987 11.9999987,43.9999987 Z M22,7.64 L22,16 C22,17.1045695 21.1045695,18 20,18 L11.64,18 L22,7.64 Z" id="Icon-color"></path>
                </g>
            </g>
        </g>
    </g>
</svg>