<?xml version="1.0" encoding="UTF-8"?>
<svg width="40px" height="40px" viewBox="0 0 40 40" version="1.1" xmlns="http://www.w3.org/2000/svg" xmlns:xlink="http://www.w3.org/1999/xlink">
    <title>Icon color</title>
    <g id="完整" stroke="none" stroke-width="1" fill="none" fill-rule="evenodd">
        <g id="大模型/悟空-在线体验2" transform="translate(-1759.000000, -930.000000)" fill="#0D8DFF" fill-rule="nonzero">
            <g id="编组-5备份-2" transform="translate(1739.000000, 910.000000)">
                <path d="M59,48 L58,48 L58,28 C58,25.790861 56.209139,24 54,24 L42,24 L42,21 C42,20.4477153 41.5522847,20 41,20 L39,20 C38.4477153,20 38,20.4477153 38,21 L38,24 L26,24 C23.790861,24 22,25.790861 22,28 L22,48 L21,48 C20.4477153,48 20,48.4477153 20,49 L20,51 C20,51.5522847 20.4477153,52 21,52 L30.62,52 L26.28,58.2 C26.1015666,58.451615 26.0039091,58.7515631 26,59.06 L26,59.5 C26,59.7761424 26.2238576,60 26.5,60 L28.86,60 C29.5144473,59.998923 30.1269654,59.6777245 30.5,59.14 L35.5,52 L44.5,52 L49.5,59.14 C49.8730346,59.6777245 50.4855527,59.998923 51.14,60 L53.5,60 C53.7761424,60 54,59.7761424 54,59.5 L54,59.06 C53.9960909,58.7515631 53.8984334,58.451615 53.72,58.2 L49.38,52 L59,52 C59.5522847,52 60,51.5522847 60,51 L60,49 C60,48.4477153 59.5522847,48 59,48 Z M54,46.72 C54,47.4269245 53.4269245,48 52.72,48 L52.72,48 C52.3329825,47.9919515 51.9683544,47.81693 51.72,47.52 L44.38,38.38 C44.1902032,38.1434287 43.9032965,38.0057795 43.6,38.0057795 C43.2967035,38.0057795 43.0097968,38.1434287 42.82,38.38 L38.24,44.14 C38.0505737,44.3840794 37.7589613,44.5268932 37.45,44.5268932 C37.1410387,44.5268932 36.8494263,44.3840794 36.66,44.14 L34.66,41.42 C34.4669997,41.1678216 34.167558,41.0199193 33.85,41.0199193 C33.532442,41.0199193 33.2330003,41.1678216 33.04,41.42 L28.58,47.42 C28.2967184,47.7977088 27.852136,48.02 27.38,48.02 C27.0200492,48.0482709 26.6648999,47.9232053 26.4020884,47.6756293 C26.1392769,47.4280532 25.9932499,47.0809962 25.9997759,46.72 L25.9997759,28 L54,28 L54,46.72 Z M35,38 C36.6568542,38 38,36.6568542 38,35 C38,33.3431458 36.6568542,32 35,32 C33.3431458,32 32,33.3431458 32,35 C32,36.6568542 33.3431458,38 35,38 Z" id="Icon-color"></path>
            </g>
        </g>
    </g>
</svg>