<!-- Generated by IcoMoon.io -->
<svg version="1.1" xmlns="http://www.w3.org/2000/svg" width="32" height="32" viewBox="0 0 32 32">
<title>play</title>
<path fill="currentColor" d="M16 2.667c-7.364 0-13.333 5.97-13.333 13.333s5.97 13.333 13.333 13.333c7.364 0 13.333-5.97 13.333-13.333 0-3.536-1.405-6.928-3.905-9.428s-5.892-3.905-9.428-3.905zM21.333 16.853l-7.773 4.853c-0.308 0.208-0.707 0.228-1.034 0.052s-0.53-0.52-0.526-0.892v-9.733c0.002-0.363 0.201-0.697 0.52-0.871s0.707-0.163 1.014 0.031l7.8 4.853c0.291 0.186 0.467 0.508 0.467 0.853s-0.176 0.667-0.467 0.853z"></path>
</svg>
