<?xml version="1.0" encoding="UTF-8"?>
<svg width="24px" height="24px" viewBox="0 0 24 24" version="1.1" xmlns="http://www.w3.org/2000/svg" xmlns:xlink="http://www.w3.org/1999/xlink">
    <title></title>
    <g id="页面-1" stroke="none" stroke-width="1" fill="none" fill-rule="evenodd">
        <g id="我的数据集/创建新数据集备份" transform="translate(-1236.000000, -426.000000)" fill="#CCCCCC" fill-rule="nonzero">
            <g id="ico-/-24-/-files-/-files_outlined" transform="translate(1236.000000, 426.000000)">
                <path d="M12,2 C6.4771525,2 2,6.4771525 2,12 C2,17.5228475 6.4771525,22 12,22 C17.5228475,22 22,17.5228475 22,12 C22,9.3478351 20.9464316,6.80429597 19.0710678,4.92893219 C17.195704,3.0535684 14.6521649,2 12,2 Z M12,20 C7.581722,20 4,16.418278 4,12 C4,7.581722 7.581722,4 12,4 C16.418278,4 20,7.581722 20,12 C20,14.1217319 19.1571453,16.1565632 17.6568542,17.6568542 C16.1565632,19.1571453 14.1217319,20 12,20 Z M13,12.5 C13,12.2238576 12.7761424,12 12.5,12 L11.5,12 C11.2238576,12 11,12.2238576 11,12.5 L11,15.5 C11,15.7761424 11.2238576,16 11.5,16 L12.5,16 C12.7761424,16 13,15.7761424 13,15.5 L13,12.5 Z M13,8.5 C13,8.22385763 12.7761424,8 12.5,8 L11.5,8 C11.2238576,8 11,8.22385763 11,8.5 L11,9.5 C11,9.77614237 11.2238576,10 11.5,10 L12.5,10 C12.7761424,10 13,9.77614237 13,9.5 L13,8.5 Z" id="Icon-color"></path>
            </g>
        </g>
    </g>
</svg>