<!-- Generated by IcoMoon.io -->
<svg version="1.1" xmlns="http://www.w3.org/2000/svg" width="32" height="32" viewBox="0 0 32 32">
<title>cv</title>
<path fill="currentColor" d="M26.307 18.667h1.027c0.368 0 0.667 0.298 0.667 0.667v2c0 4.418-3.582 8-8 8h-8c-4.418 0-8-3.582-8-8v-2c0-0.368 0.298-0.667 0.667-0.667h1.027c0.629-0.001 1.239 0.221 1.72 0.627l7.133 6.040h0.12v-8c-4.418 0-8-3.582-8-8v-4.667c0-0.368 0.298-0.667 0.667-0.667h0.507c0.53 0 1.039 0.212 1.413 0.587l2.080 2.080 3.707-3.707c0.187-0.188 0.442-0.293 0.707-0.293h0.507c0.265 0 0.519 0.106 0.707 0.293l3.707 3.707 2.080-2.080c0.375-0.375 0.883-0.586 1.413-0.587h0.507c0.368 0 0.667 0.298 0.667 0.667v4.667c0 4.418-3.582 8-8 8v8h0.12l7.133-6.040c0.481-0.405 1.091-0.627 1.72-0.627z"></path>
</svg>
