<!-- Generated by IcoMoon.io -->
<svg version="1.1" xmlns="http://www.w3.org/2000/svg" width="32" height="32" viewBox="0 0 32 32">
<title>nlp</title>
<path fill="currentColor" d="M20.017 21.307c2.948 0 5.338-2.384 5.338-5.326v-7.989c0-2.941-2.39-5.326-5.338-5.326h-13.345c-2.948 0-5.338 2.384-5.338 5.326v16.643c0 0.368 0.299 0.666 0.667 0.666 0.176-0.001 0.345-0.073 0.467-0.2l2.669-2.663c0.766-0.745 1.8-1.152 2.869-1.132h12.011zM28.024 7.992v10.651c0 2.941-2.39 5.326-5.338 5.326h-16.015c0 1.471 1.195 2.663 2.669 2.663h14.68c1.066-0.003 2.089 0.419 2.843 1.172l2.669 2.663c0.122 0.127 0.291 0.199 0.467 0.2 0.369 0 0.667-0.298 0.667-0.666v-19.346c0-1.46-1.179-2.648-2.642-2.663z"></path>
</svg>
