<?xml version="1.0" encoding="UTF-8"?>
<svg width="32px" height="32px" viewBox="0 0 32 32" version="1.1" xmlns="http://www.w3.org/2000/svg" xmlns:xlink="http://www.w3.org/1999/xlink">
    <g id="页面-1" stroke="none" stroke-width="1" fill="none" fill-rule="evenodd">
        <g id="我的模型/模型卡片tab无文件状态备份" transform="translate(-1384.000000, -651.000000)" fill="#E5E5E5">
            <g id="ico-/-24-/-files-/-folder_outlined" transform="translate(1384.000000, 651.000000)">
                <path d="M26.6666667,9.33333333 L22.6666667,9.33333333 L22.6666667,6.66666667 C22.6666667,5.19390733 21.4727593,4 20,4 L12,4 C10.5272407,4 9.33333333,5.19390733 9.33333333,6.66666667 L9.33333333,9.33333333 L5.33333333,9.33333333 C3.860574,9.33333333 2.66666667,10.5272407 2.66666667,12 L2.66666667,25.3333333 C2.66666667,26.8060927 3.860574,28 5.33333333,28 L26.6666667,28 C28.139426,28 29.3333333,26.8060927 29.3333333,25.3333333 L29.3333333,12 C29.3333333,10.5272407 28.139426,9.33333333 26.6666667,9.33333333 Z M18.6666667,18.6666667 C18.6666667,19.4030463 18.069713,20 17.3333333,20 L14.6666667,20 C13.930287,20 13.3333333,19.4030463 13.3333333,18.6666667 L13.3333333,18 C13.3333333,17.6318102 13.6318102,17.3333333 14,17.3333333 L18,17.3333333 C18.3681898,17.3333333 18.6666667,17.6318102 18.6666667,18 L18.6666667,18.6666667 Z M20,9.33333333 L12,9.33333333 L12,6.66666667 L20,6.66666667 L20,9.33333333 Z" id="Icon-color"></path>
            </g>
        </g>
    </g>
</svg>