<?xml version="1.0" encoding="UTF-8"?>
<svg width="24px" height="24px" viewBox="0 0 24 24" version="1.1" xmlns="http://www.w3.org/2000/svg" xmlns:xlink="http://www.w3.org/1999/xlink">
    <g id="完整" stroke="none" stroke-width="1" fill="none" fill-rule="evenodd">
        <g id="我的项目/文件" transform="translate(-264.000000, -385.000000)" fill="#004C8A" fill-rule="nonzero">
            <g id="ico-/-24-/-files-/-folder_outlined" transform="translate(264.000000, 385.000000)">
                <path d="M20,7 L17,7 L17,5 C17,3.8954305 16.1045695,3 15,3 L9,3 C7.8954305,3 7,3.8954305 7,5 L7,7 L4,7 C2.8954305,7 2,7.8954305 2,9 L2,19 C2,20.1045695 2.8954305,21 4,21 L20,21 C21.1045695,21 22,20.1045695 22,19 L22,9 C22,7.8954305 21.1045695,7 20,7 Z M14,14 C14,14.5522847 13.5522847,15 13,15 L11,15 C10.4477153,15 10,14.5522847 10,14 L10,13.5 C10,13.2238576 10.2238576,13 10.5,13 L13.5,13 C13.7761424,13 14,13.2238576 14,13.5 L14,14 Z M15,7 L9,7 L9,5 L15,5 L15,7 Z" id="Icon-color"></path>
            </g>
        </g>
    </g>
</svg>