<?xml version="1.0" encoding="UTF-8"?>
<svg width="48px" height="48px" viewBox="0 0 48 48" version="1.1" xmlns="http://www.w3.org/2000/svg" xmlns:xlink="http://www.w3.org/1999/xlink">
    <title>切片</title>
    <g id="完整" stroke="none" stroke-width="1" fill="none" fill-rule="evenodd">
        <g id="大模型/悟空-画作管理-我的公开空" transform="translate(-1273.000000, -458.000000)" fill="#999999">
            <g id="编组-11" transform="translate(1250.000000, 458.000000)">
                <g id="ico-/-24-/-actions-/-clear" transform="translate(23.000000, 0.000000)">
                    <path d="M40,12 L28.82,12 C28.2953202,11.9977908 27.7925213,11.7894883 27.42,11.42 L24.58,8.58 C24.2074787,8.21051167 23.7046798,8.00220924 23.18,8 L8,8 C5.790861,8 4,9.790861 4,12 L4,36 C4,38.209139 5.790861,40 8,40 L40,40 C42.209139,40 44,38.209139 44,36 L44,16 C44,13.790861 42.209139,12 40,12 Z M19,14 C20.6568542,14 22,15.3431458 22,17 C22,18.6568542 20.6568542,20 19,20 C17.3431458,20 16,18.6568542 16,17 C16,15.3431458 17.3431458,14 19,14 L19,14 Z M37.9999951,33 C37.9999951,33.5522847 37.5522847,34 36.9999951,34 L10.9999951,34 C10.4477153,34 9.9999951,33.5522847 9.9999951,33 L9.9999951,32.32 C9.99928262,32.1001371 10.0773278,31.8872867 10.22,31.72 L15.9999951,24.38 C16.1736623,24.1654618 16.4254855,24.0287577 16.7,24 C17.0009245,23.9965183 17.2874156,24.1287449 17.48,24.36 L20.38,27.86 C20.5663558,28.0881199 20.8454375,28.2203165 21.14,28.22 C21.4540243,28.2169287 21.7491284,28.0693767 21.94,27.82 L27.7,20.38 C27.8934539,20.1354203 28.1881608,19.9927717 28.4999951,19.9927717 C28.8118392,19.9927717 29.1065461,20.1354203 29.3,20.38 L37.8,31.72 C37.9285544,31.8937578 37.9985888,32.1038612 37.9999951,32.32 L37.9999951,33 Z" id="Icon-color"></path>
                </g>
            </g>
        </g>
    </g>
</svg>