<?xml version="1.0" encoding="UTF-8"?>
<svg width="16px" height="16px" viewBox="0 0 16 16" version="1.1" xmlns="http://www.w3.org/2000/svg" xmlns:xlink="http://www.w3.org/1999/xlink">
    <g id="页面-1" stroke="none" stroke-width="1" fill="none" fill-rule="evenodd">
        <g id="我的项目/训练-训练列表" transform="translate(-1206.000000, -487.000000)" fill="#0D8DFF" fill-rule="nonzero">
            <g id="Group-20" transform="translate(240.000000, 373.000000)">
                <g id="编组-13" transform="translate(0.000000, 14.000000)">
                    <g id="编组-5备份" transform="translate(962.000000, 100.000000)">
                        <g id="ico-/-24-/-files-/-folder_outlined备份-2" transform="translate(4.000000, 0.000000)">
                            <path d="M15.2333333,7.76642723 L15.1,7.89989738 C15.0372829,7.96506979 14.9503905,8.00131211 14.86,8 L13.3333333,8 C13.3313811,9.90639371 12.3140823,11.6670868 10.6643003,12.6194373 C9.01451839,13.5717879 6.98262658,13.5712657 5.33333333,12.6180673 C5.24604735,12.5635973 5.18743196,12.4731392 5.17333333,12.3711475 C5.15917758,12.2682701 5.19367887,12.16466 5.26666667,12.0908602 L5.75333333,11.6036941 C5.8568229,11.4989493 6.01668645,11.4745383 6.14666667,11.5436326 C6.71767213,11.8461609 7.3539481,12.0042476 8,12.0041046 C9.06086596,12.0041046 10.0782816,11.5822448 10.8284271,10.8313295 C11.5785726,10.0804142 12,9.06195457 12,8 L10.4266667,8 C10.3362761,8.00131211 10.2493837,7.96506979 10.1866667,7.89989738 L10.0533333,7.76642723 C9.99022912,7.70377414 9.95473389,7.61848809 9.95473389,7.52951771 C9.95473389,7.44054733 9.99022912,7.35526128 10.0533333,7.29260819 L12.4066667,4.93018647 C12.5385425,4.80219974 12.7481242,4.80219974 12.88,4.93018647 L15.2333333,7.29260819 C15.2964376,7.35526128 15.3319328,7.44054733 15.3319328,7.52951771 C15.3319328,7.61848809 15.2964376,7.70377414 15.2333333,7.76642723 Z M5.94666667,8.23357277 L5.81333333,8.10010262 C5.75061627,8.03493021 5.66372388,7.99868789 5.57333333,8 L4,8 C4,5.78859409 5.790861,3.99589539 8,3.99589539 C8.64924567,3.99365488 9.28870881,4.15425829 9.86,4.46304093 C9.9903478,4.5299223 10.1488338,4.50572166 10.2533333,4.40297936 L10.7466667,3.90913979 C10.8196545,3.83533999 10.8541557,3.73172992 10.84,3.62885247 C10.8228703,3.52438892 10.7590437,3.43346547 10.6666667,3.38193268 C9.01737342,2.42873432 6.98548161,2.42821214 5.33569965,3.38056266 C3.68591769,4.33291318 2.66861891,6.09360629 2.66666667,8 L1.14,8 C1.04960946,7.99868789 0.96271706,8.03493021 0.9,8.10010262 L0.766666667,8.23357277 C0.70356245,8.29622586 0.668067225,8.38151191 0.668067225,8.47048229 C0.668067225,8.55945267 0.70356245,8.64473872 0.766666667,8.70739181 L3.12,11.0698135 C3.25187578,11.1978003 3.46145755,11.1978003 3.59333333,11.0698135 L5.94666667,8.70739181 C6.00977088,8.64473872 6.04526611,8.55945267 6.04526611,8.47048229 C6.04526611,8.38151191 6.00977088,8.29622586 5.94666667,8.23357277 Z" id="Icon-color"></path>
                        </g>
                    </g>
                </g>
            </g>
        </g>
    </g>
</svg>