<!-- Generated by IcoMoon.io -->
<svg version="1.1" xmlns="http://www.w3.org/2000/svg" width="32" height="32" viewBox="0 0 32 32">
<title>recommendation</title>
<path fill="currentColor" d="M27.596 4.979l-0.573-0.573c-0.307-0.317-0.751-0.462-1.186-0.386l-7.328 1.332c-1.242 0.223-2.36 0.891-3.144 1.879l-2.878 3.704c-1.688-0.605-3.573-0.011-4.61 1.452l-3.757 5.33c-0.206 0.299-0.135 0.708 0.16 0.919l0.546 0.386c0.869 0.608 1.944 0.846 2.989 0.661s1.973-0.778 2.58-1.647l0.839-1.186 3.877 3.877-1.186 0.839c-0.87 0.607-1.462 1.536-1.647 2.58s0.053 2.12 0.661 2.989l0.386 0.546c0.212 0.295 0.62 0.366 0.919 0.16l5.329-3.757c1.464-1.037 2.057-2.922 1.452-4.61l3.664-2.878c1.010-0.761 1.706-1.865 1.959-3.104l1.332-7.328c0.076-0.435-0.069-0.879-0.386-1.186zM22.067 12.76c-0.571 0.572-1.431 0.744-2.178 0.434s-1.234-1.038-1.234-1.847c0-0.809 0.487-1.537 1.234-1.847s1.607-0.138 2.178 0.434c0.378 0.373 0.59 0.882 0.59 1.412s-0.212 1.039-0.59 1.412zM10.422 22.513c0.126 0.125 0.197 0.295 0.197 0.473s-0.071 0.348-0.197 0.473l-4.343 4.344c-0.125 0.126-0.295 0.197-0.473 0.197s-0.348-0.071-0.473-0.197l-0.933-0.933c-0.126-0.125-0.197-0.295-0.197-0.473s0.071-0.348 0.197-0.473l4.343-4.344c0.125-0.126 0.295-0.197 0.473-0.197s0.348 0.071 0.473 0.197l0.933 0.933z"></path>
</svg>
