<!-- Generated by IcoMoon.io -->
<svg version="1.1" xmlns="http://www.w3.org/2000/svg" width="32" height="32" viewBox="0 0 32 32">
<title>iconre-fresh</title>
<path fill='currentColor' d="M16 3c2.929 0 5.697 0.975 7.931 2.698l1.715-2.044c0.047-0.056 0.131-0.064 0.188-0.016 0.020 0.017 0.035 0.039 0.042 0.065l1.899 6.49c0.021 0.071-0.020 0.145-0.091 0.165-0.017 0.005-0.035 0.007-0.052 0.005l-6.721-0.743c-0.073-0.008-0.126-0.074-0.118-0.147 0.003-0.026 0.013-0.051 0.030-0.071l1.82-2.169c-1.879-1.426-4.195-2.232-6.644-2.232-6.075 0-11 4.925-11 11s4.925 11 11 11c4.549 0 8.579-2.787 10.229-6.945 0.204-0.513 0.785-0.764 1.298-0.561s0.764 0.785 0.561 1.298c-1.95 4.914-6.712 8.207-12.088 8.207-7.18 0-13-5.82-13-13s5.82-13 13-13z"></path>
</svg>
