<?xml version="1.0" encoding="UTF-8"?>
<svg width="12px" height="12px" viewBox="0 0 12 12" version="1.1" xmlns="http://www.w3.org/2000/svg" xmlns:xlink="http://www.w3.org/1999/xlink">
    <title>切片</title>
    <g id="完整" stroke="none" stroke-width="1" fill="none" fill-rule="evenodd">
        <g id="大模型/紫东太初-在线体验" transform="translate(-640.000000, -1000.000000)" fill="#008EFF" fill-rule="nonzero">
            <g id="编组-5" transform="translate(252.000000, 673.000000)">
                <g id="编组-10" transform="translate(388.000000, 324.000000)">
                    <g id="ico-/-24-/-files-/-folder_outlined备份-5" transform="translate(0.000000, 3.000000)">
                        <path d="M6.53054386,0.575 L8.30236015,2.34 C8.39835019,2.43890684 8.39835019,2.59609316 8.30236015,2.695 L6.53054386,4.46 C6.48355404,4.50732816 6.41958951,4.53394958 6.35286172,4.53394958 C6.28613393,4.53394958 6.2221694,4.50732816 6.17517958,4.46 L6.07507696,4.36 C6.02619766,4.3129622 5.99901592,4.24779291 6,4.18 L6,3 C4.34144557,3 2.99692154,4.34314575 2.99692154,6 C2.99599618,6.48623021 3.1145853,6.96525118 3.34227557,7.395 C3.39409628,7.49248516 3.37578803,7.61238283 3.29722939,7.69 L2.93185484,8.055 C2.876505,8.10974085 2.79879744,8.13561681 2.72163935,8.125 C2.64423125,8.11327958 2.57621714,8.06737121 2.53644951,8 C1.82155074,6.76303006 1.82115911,5.23911121 2.53542199,4.00177474 C3.24968488,2.76443827 4.57020471,2.00146418 6,2 L6,0.855 C5.99901592,0.787207092 6.02619766,0.722037795 6.07507696,0.675 L6.17517958,0.575 C6.2221694,0.527671837 6.28613393,0.501050419 6.35286172,0.501050419 C6.41958951,0.501050419 6.48355404,0.527671837 6.53054386,0.575 Z M5.46945614,7.54 L3.69763985,9.305 C3.60164981,9.40390684 3.60164981,9.56109316 3.69763985,9.66 L5.46945614,11.425 C5.51644596,11.4723282 5.58041049,11.4989496 5.64713828,11.4989496 C5.71386607,11.4989496 5.7778306,11.4723282 5.82482042,11.425 L5.92492304,11.325 C5.97380234,11.2779622 6.00098408,11.2127929 6,11.145 L6,10 C7.42979529,9.99853582 8.75031512,9.23556173 9.46457801,7.99822526 C10.1788409,6.76088879 10.1784493,5.23696994 9.46355049,4 C9.42269796,3.93453551 9.35485437,3.89057397 9.27836065,3.88 C9.20120256,3.86938319 9.123495,3.89525915 9.06814516,3.95 L8.69776548,4.32 C8.62070876,4.39837464 8.60255828,4.51723915 8.6527193,4.615 C8.8826902,5.04049115 9.00309195,5.51644963 9.00307846,6 C9.00307846,7.65685425 7.65855443,9 6,9 L6,7.82 C6.00098408,7.75220709 5.97380234,7.6870378 5.92492304,7.64 L5.82482042,7.54 C5.7778306,7.49267184 5.71386607,7.46605042 5.64713828,7.46605042 C5.58041049,7.46605042 5.51644596,7.49267184 5.46945614,7.54 Z" id="Icon-color"></path>
                    </g>
                </g>
            </g>
        </g>
    </g>
</svg>