
<svg version="1.1" xmlns="http://www.w3.org/2000/svg" width="32" height="32" viewBox="0 0 32 32">
<title>icon-relative</title>
<path fill="currentColor" d="M28 18v7.333c0 1.473-1.194 2.667-2.667 2.667h-18.667c-1.473 0-2.667-1.194-2.667-2.667v-18.667c0-1.473 1.194-2.667 2.667-2.667h7.333c0.368 0 0.667 0.298 0.667 0.667v1.333c0 0.368-0.298 0.667-0.667 0.667h-7.333v18.667h18.667v-7.333c0-0.368 0.298-0.667 0.667-0.667h1.333c0.368 0 0.667 0.298 0.667 0.667zM27.707 4.667l-0.36-0.36c-0.179-0.186-0.422-0.296-0.68-0.307h-8.667c-0.368 0-0.667 0.298-0.667 0.667v1.333c0 0.368 0.298 0.667 0.667 0.667h5.453l-11.253 11.253c-0.126 0.125-0.197 0.296-0.197 0.473s0.071 0.348 0.197 0.473l0.933 0.933c0.125 0.126 0.296 0.197 0.473 0.197s0.348-0.071 0.473-0.197l11.253-11.24v5.44c0 0.368 0.298 0.667 0.667 0.667h1.333c0.368 0 0.667-0.298 0.667-0.667v-8.667c-0.007-0.256-0.112-0.499-0.293-0.68v0.013z"></path>
</svg>

