<?xml version="1.0" encoding="UTF-8"?>
<svg width="24px" height="24px" viewBox="0 0 24 24" version="1.1" xmlns="http://www.w3.org/2000/svg" xmlns:xlink="http://www.w3.org/1999/xlink">
    <g id="页面-1" stroke="none" stroke-width="1" fill="none" fill-rule="evenodd">
        <g id="我的项目/训练代码-创建配置文件" transform="translate(-1262.000000, -1070.000000)" fill="#0D8DFF">
            <g id="编组-3" transform="translate(590.000000, 408.000000)">
                <g id="编组-13备份-2" transform="translate(12.000000, 654.000000)">
                    <g id="Input/Single/Normal" transform="translate(112.000000, 0.000000)">
                        <g id="ico-/-24-/-files-/-folder_outlined备份" transform="translate(548.000000, 8.000000)">
                            <path d="M20,4.5 L20,5.5 C20,5.77614237 19.7761424,6 19.5,6 L4.5,6 C4.22385763,6 4,5.77614237 4,5.5 L4,4.5 C4,4.22385763 4.22385763,4 4.5,4 L9,4 L9,3 C9,2.44771525 9.44771525,2 10,2 L14,2 C14.5522847,2 15,2.44771525 15,3 L15,4 L19.5,4 C19.7761424,4 20,4.22385763 20,4.5 Z M16.28,18 L7.72,18 L7,8 L5,8 L5.87,20.14 C5.94364604,21.1895509 6.81787161,22.0025807 7.87,22 L16.15,22 C17.2021284,22.0025807 18.076354,21.1895509 18.15,20.14 L19,8 L17,8 L16.28,18 Z" id="Icon-color"></path>
                        </g>
                    </g>
                </g>
            </g>
        </g>
    </g>
</svg>