<?xml version="1.0" encoding="UTF-8"?>
<svg width="16px" height="16px" viewBox="0 0 16 16" version="1.1" xmlns="http://www.w3.org/2000/svg" xmlns:xlink="http://www.w3.org/1999/xlink">
    <title>切片</title>
    <g id="页面-1" stroke="none" stroke-width="1" fill="none" fill-rule="evenodd">
        <g id="我的项目/训练-训练列表" transform="translate(-420.000000, -497.000000)" fill="#33B3FF">
            <g id="Group-20" transform="translate(240.000000, 373.000000)">
                <g id="编组-13" transform="translate(0.000000, 14.000000)">
                    <g id="ico-/-24-/-files-/-files_outlined备份-4" transform="translate(180.000000, 110.000000)">
                        <path d="M8,1.33333333 C4.31810167,1.33333333 1.33333333,4.31810167 1.33333333,8 C1.33333333,11.6818983 4.31810167,14.6666667 8,14.6666667 C11.6818983,14.6666667 14.6666667,11.6818983 14.6666667,8 C14.6666667,6.23189007 13.9642877,4.53619732 12.7140452,3.28595479 C11.4638027,2.03571227 9.76810993,1.33333333 8,1.33333333 Z M10.6666667,8.42666667 L6.78,10.8533333 C6.6258964,10.9575141 6.42669749,10.9675348 6.26291672,10.8793451 C6.09913596,10.7911555 5.99785106,10.6193358 5.99996647,10.4333333 L5.99996647,5.56666667 C6.00107033,5.3850806 6.10050683,5.21834922 6.25976416,5.13110389 C6.4190215,5.04385857 6.61306139,5.04981593 6.76666667,5.14666667 L10.6666667,7.57333333 C10.8121059,7.66647761 10.9000813,7.82729095 10.9000813,8 C10.9000813,8.17270905 10.8121059,8.33352239 10.6666667,8.42666667 Z" id="Icon-color"></path>
                    </g>
                </g>
            </g>
        </g>
    </g>
</svg>