<?xml version="1.0" encoding="UTF-8"?>
<svg width="450px" height="304px" viewBox="0 0 450 304" version="1.1" xmlns="http://www.w3.org/2000/svg" xmlns:xlink="http://www.w3.org/1999/xlink">
    <title>编组</title>
    <defs>
        <polygon id="path-1" points="0 303 449.23 303 449.23 0.928 0 0.928"></polygon>
    </defs>
    <g id="页面-1" stroke="none" stroke-width="1" fill="none" fill-rule="evenodd">
        <g id="羲和/搜索详情404" transform="translate(-563.000000, -356.000000)">
            <g id="编组" transform="translate(563.000000, 356.000000)">
                <polygon id="Fill-1" fill="#FFC609" points="300.627 72.052 314.529 72.052 314.529 64.307 300.627 64.307"></polygon>
                <polygon id="Stroke-2" stroke="#000000" stroke-width="1.5" points="300.627 72.052 314.529 72.052 314.529 64.307 300.627 64.307"></polygon>
                <polygon id="Fill-3" fill="#FFC609" points="304.499 64.307 310.754 64.307 310.754 58.051 304.499 58.051"></polygon>
                <polygon id="Stroke-4" stroke="#000000" stroke-width="1.5" points="304.499 64.307 310.754 64.307 310.754 58.051 304.499 58.051"></polygon>
                <g transform="translate(0.000000, 0.072000)">
                    <path d="M307.5779,57.9792 L307.5779,12.1042 C307.5779,6.6432 312.0459,2.1742 317.5079,2.1742 L409.9529,2.1742 C415.4139,2.1742 419.8829,6.6432 419.8829,12.1042 L419.8829,221.2242 C419.8829,226.6852 415.4139,231.1532 409.9529,231.1532 L362.9859,231.1532" id="Stroke-5" stroke="#000000" stroke-width="1.5"></path>
                    <mask id="mask-2" fill="white">
                        <use xlink:href="#path-1"></use>
                    </mask>
                    <g id="Clip-8"></g>
                    <polygon id="Fill-7" fill="#FFC609" mask="url(#mask-2)" points="362.985 238.104 370.73 238.104 370.73 224.202 362.985 224.202"></polygon>
                    <polygon id="Stroke-9" stroke="#000000" stroke-width="1.5" mask="url(#mask-2)" points="362.985 238.104 370.73 238.104 370.73 224.202 362.985 224.202"></polygon>
                    <polygon id="Fill-10" fill="#FFC609" mask="url(#mask-2)" points="370.631 234.232 376.886 234.232 376.886 227.976 370.631 227.976"></polygon>
                    <polygon id="Stroke-11" stroke="#000000" stroke-width="1.5" mask="url(#mask-2)" points="370.631 234.232 376.886 234.232 376.886 227.976 370.631 227.976"></polygon>
                    <polygon id="Fill-12" fill="#FFC609" mask="url(#mask-2)" points="23.588 101.869 37.49 101.869 37.49 94.124 23.588 94.124"></polygon>
                    <polygon id="Stroke-13" stroke="#000000" stroke-width="1.5" mask="url(#mask-2)" points="23.588 101.869 37.49 101.869 37.49 94.124 23.588 94.124"></polygon>
                    <polygon id="Fill-14" fill="#FFC609" mask="url(#mask-2)" points="27.362 108.025 33.618 108.025 33.618 101.769 27.362 101.769"></polygon>
                    <polygon id="Stroke-15" stroke="#000000" stroke-width="1.5" mask="url(#mask-2)" points="27.362 108.025 33.618 108.025 33.618 101.769 27.362 101.769"></polygon>
                    <polygon id="Fill-16" fill="#FFC609" mask="url(#mask-2)" points="116.431 278.716 130.332 278.716 130.332 270.971 116.431 270.971"></polygon>
                    <polygon id="Stroke-17" stroke="#000000" stroke-width="1.5" mask="url(#mask-2)" points="116.431 278.716 130.332 278.716 130.332 270.971 116.431 270.971"></polygon>
                    <polygon id="Fill-18" fill="#FFC609" mask="url(#mask-2)" points="120.204 284.873 126.46 284.873 126.46 278.617 120.204 278.617"></polygon>
                    <polygon id="Stroke-19" stroke="#000000" stroke-width="1.5" mask="url(#mask-2)" points="120.204 284.873 126.46 284.873 126.46 278.617 120.204 278.617"></polygon>
                    <path d="M30.4402,108.0251 L30.4402,291.6251 C30.4402,296.7881 34.7102,301.0581 39.8732,301.0581 L113.9492,301.0581 C119.1122,301.0581 123.3822,296.7881 123.3822,291.6251 L123.3822,284.8731" id="Stroke-20" stroke="#000000" stroke-width="1.5" mask="url(#mask-2)"></path>
                    <polygon id="Fill-21" fill="#000000" mask="url(#mask-2)" points="342.033 289.143 430.804 289.143 430.804 284.873 342.033 284.873"></polygon>
                    <polygon id="Stroke-22" stroke="#000000" stroke-width="1.5" mask="url(#mask-2)" points="342.033 289.143 430.804 289.143 430.804 284.873 342.033 284.873"></polygon>
                    <polygon id="Fill-23" fill="#FFFFFF" mask="url(#mask-2)" points="359.709 302.25 448.48 302.25 448.48 297.98 359.709 297.98"></polygon>
                    <polygon id="Stroke-24" stroke="#000000" stroke-width="1.5" mask="url(#mask-2)" points="359.709 302.25 448.48 302.25 448.48 297.98 359.709 297.98"></polygon>
                    <path d="M447.6853,57.9792 C447.6853,73.4702 435.0743,86.0802 419.5843,86.0802 C404.0943,86.0802 391.4833,73.4702 391.4833,57.9792 C391.4833,42.4892 404.0943,29.8782 419.5843,29.8782 C435.0743,29.8782 447.6853,42.4892 447.6853,57.9792" id="Fill-25" fill="#FFFFFF" mask="url(#mask-2)"></path>
                    <path d="M447.6853,57.9792 C447.6853,73.4702 435.0743,86.0802 419.5843,86.0802 C404.0943,86.0802 391.4833,73.4702 391.4833,57.9792 C391.4833,42.4892 404.0943,29.8782 419.5843,29.8782 C435.0743,29.8782 447.6853,42.4892 447.6853,57.9792 Z" id="Stroke-26" stroke="#000000" stroke-width="1.5" mask="url(#mask-2)"></path>
                    <g mask="url(#mask-2)">
                        <g transform="translate(86.000000, 71.000000)">
                            <path d="M266.2614,199.9714 L11.0684,199.9714 C5.1104,199.9714 0.2444,195.1054 0.2444,189.1484 L0.2444,11.2084 C0.2444,5.2504 5.1104,0.3844 11.0684,0.3844 L266.2614,0.3844 C272.2194,0.3844 277.0844,5.2504 277.0844,11.2084 L277.0844,189.1484 C277.0844,195.2054 272.2194,199.9714 266.2614,199.9714" id="Fill-27" stroke="none" fill="#FFFFFF" fill-rule="evenodd"></path>
                            <path d="M266.2614,199.9714 L11.0684,199.9714 C5.1104,199.9714 0.2444,195.1054 0.2444,189.1484 L0.2444,11.2084 C0.2444,5.2504 5.1104,0.3844 11.0684,0.3844 L266.2614,0.3844 C272.2194,0.3844 277.0844,5.2504 277.0844,11.2084 L277.0844,189.1484 C277.0844,195.2054 272.2194,199.9714 266.2614,199.9714 Z" id="Stroke-28" stroke="#000000" stroke-width="1.5" fill="none"></path>
                        </g>
                    </g>
                    <path d="M335.8772,82.1086 C335.8772,83.5976 334.6852,84.8886 333.0972,84.8886 C331.5092,84.8886 330.3172,83.6976 330.3172,82.1086 C330.3172,80.5196 331.5092,79.3286 333.0972,79.3286 C334.6852,79.3286 335.8772,80.6196 335.8772,82.1086" id="Fill-29" fill="#FFAEAE" mask="url(#mask-2)"></path>
                    <path d="M335.8772,82.1086 C335.8772,83.5976 334.6852,84.8886 333.0972,84.8886 C331.5092,84.8886 330.3172,83.6976 330.3172,82.1086 C330.3172,80.5196 331.5092,79.3286 333.0972,79.3286 C334.6852,79.3286 335.8772,80.6196 335.8772,82.1086 Z" id="Stroke-30" stroke="#000000" stroke-width="1.5" mask="url(#mask-2)"></path>
                    <path d="M342.0334,79.3284 C343.5694,79.3284 344.8134,80.5734 344.8134,82.1084 C344.8134,83.6444 343.5694,84.8894 342.0334,84.8894 C340.4974,84.8894 339.2534,83.6444 339.2534,82.1084 C339.2534,80.5734 340.4974,79.3284 342.0334,79.3284" id="Fill-31" fill="#FFFFFF" mask="url(#mask-2)"></path>
                    <path d="M342.0334,79.3284 C343.5694,79.3284 344.8134,80.5734 344.8134,82.1084 C344.8134,83.6444 343.5694,84.8894 342.0334,84.8894 C340.4974,84.8894 339.2534,83.6444 339.2534,82.1084 C339.2534,80.5734 340.4974,79.3284 342.0334,79.3284 Z" id="Stroke-32" stroke="#000000" stroke-width="1.5" mask="url(#mask-2)"></path>
                    <path d="M350.4734,79.3284 C352.0094,79.3284 353.2534,80.5734 353.2534,82.1084 C353.2534,83.6444 352.0094,84.8894 350.4734,84.8894 C348.9384,84.8894 347.6934,83.6444 347.6934,82.1084 C347.6934,80.5734 348.9384,79.3284 350.4734,79.3284" id="Fill-33" fill="#7CC996" mask="url(#mask-2)"></path>
                    <path d="M350.4734,79.3284 C352.0094,79.3284 353.2534,80.5734 353.2534,82.1084 C353.2534,83.6444 352.0094,84.8894 350.4734,84.8894 C348.9384,84.8894 347.6934,83.6444 347.6934,82.1084 C347.6934,80.5734 348.9384,79.3284 350.4734,79.3284 Z" id="Stroke-34" stroke="#000000" stroke-width="1.5" mask="url(#mask-2)"></path>
                    <path d="M266.7663,193.7185 C265.6743,193.8175 264.4833,193.9175 263.1913,193.9175 C229.5303,195.6055 208.0813,186.3705 197.8543,175.4475 C191.8963,169.0935 189.8113,162.2405 191.4003,156.5815 C195.6693,141.3885 218.4093,150.2265 224.0693,128.4805 L278.2853,139.3035 C275.8023,156.9785 314.6273,189.7465 266.7663,193.7185" id="Fill-35" fill="#000000" mask="url(#mask-2)"></path>
                    <path d="M158.7317,269.6804 L115.9347,269.6804 C111.9627,269.6804 108.6857,266.5034 108.6857,262.4314 L108.6857,260.8434 C108.6857,256.8714 111.8627,253.5944 115.9347,253.5944 L158.7317,253.5944 L158.7317,269.6804 Z" id="Fill-36" fill="#FFFFFF" mask="url(#mask-2)"></path>
                    <polygon id="Fill-37" fill="#8DD9EA" mask="url(#mask-2)" points="109.579 259.552 158.83 259.552 158.83 258.658 109.579 258.658"></polygon>
                    <polygon id="Fill-38" fill="#8DD9EA" mask="url(#mask-2)" points="109.579 262.134 158.83 262.134 158.83 261.24 109.579 261.24"></polygon>
                    <polygon id="Fill-39" fill="#8DD9EA" mask="url(#mask-2)" points="109.579 267.298 158.83 267.298 158.83 266.404 109.579 266.404"></polygon>
                    <polygon id="Fill-40" fill="#8DD9EA" mask="url(#mask-2)" points="109.579 256.971 158.83 256.971 158.83 256.077 109.579 256.077"></polygon>
                    <polygon id="Fill-41" fill="#8DD9EA" mask="url(#mask-2)" points="109.579 264.716 158.83 264.716 158.83 263.822 109.579 263.822"></polygon>
                    <path d="M158.7317,270.4748 L112.4597,270.4748 C109.9767,270.4748 107.8917,268.4888 107.8917,265.9068 L107.8917,257.3678 C107.8917,254.8848 109.8777,252.7998 112.4597,252.7998 L158.7317,252.7998 L158.7317,254.3888 L112.4597,254.3888 C110.7717,254.3888 109.4807,255.6798 109.4807,257.3678 L109.4807,265.9068 C109.4807,267.5948 110.7717,268.8858 112.4597,268.8858 L158.7317,268.8858 L158.7317,270.4748 Z" id="Fill-42" fill="#40ADFF" mask="url(#mask-2)"></path>
                    <path d="M311.8474,227.2805 L294.9664,234.9265 L281.3634,223.4075 C280.7664,235.3235 271.2344,263.5235 271.2344,263.5235 L199.3434,263.5235 C206.5924,228.9685 206.6914,222.0175 206.6914,222.0175 L198.8474,230.0605 L175.6114,212.2865 C176.8034,210.7975 177.8954,209.5065 178.5904,208.7115 C179.3854,207.8185 179.7824,207.4215 179.7824,207.4215 C179.7824,207.4215 197.3584,186.8665 210.0684,180.9085 C215.7284,178.3265 220.6934,176.5395 224.5654,175.4475 C229.3314,174.0575 232.3104,173.5605 232.3104,173.5605 L233.7994,173.2625 L259.2204,174.9505 L260.9084,175.5465 C260.9084,175.5465 264.0854,176.3415 268.4544,177.5325 C276.2004,179.7175 284.5414,185.2785 287.8174,188.0585 C296.0594,194.9095 311.8474,227.2805 311.8474,227.2805" id="Fill-43" fill="#40ADFF" mask="url(#mask-2)"></path>
                    <path d="M207.5857,262.8288 C183.1587,262.8288 183.7537,262.7298 175.6117,259.5518 C168.6607,256.8708 164.3917,252.3038 162.7027,244.9548 C161.7107,240.3878 162.6037,235.4228 164.4907,230.5578 C167.2707,223.4078 172.0367,216.6558 175.6117,212.2868 C178.0937,209.2088 179.7827,207.3218 179.7827,207.3218 L198.8477,229.9618 C193.6837,235.5228 194.5777,235.8198 194.5777,235.8198 C202.5217,252.1048 207.5857,262.8288 207.5857,262.8288" id="Fill-44" fill="#40ADFF" mask="url(#mask-2)"></path>
                    <polyline id="Stroke-45" stroke="#36B0C2" mask="url(#mask-2)" points="183.9529 237.7068 194.5779 235.8198 186.0379 233.1398"></polyline>
                    <path d="M175.6115,259.552 C168.6605,256.871 164.3915,252.303 162.7025,244.955 C161.7105,240.388 162.6035,235.423 164.4905,230.557 C169.7535,231.054 165.0865,239.296 171.4415,245.353 C177.7965,251.509 177.6965,255.779 175.6115,259.552" id="Fill-46" fill="#8DD9EA" mask="url(#mask-2)"></path>
                    <path d="M241.0486,266.3044 C243.8286,266.3044 244.1276,270.4744 241.3466,270.6734 L240.9496,270.6734 L135.6946,270.6734 C133.2126,270.6734 131.2266,268.6874 131.2266,266.2044 L114.8426,219.9324 C113.5516,216.3574 116.2326,212.6834 120.0056,212.6834 L188.3216,212.6834 C190.6056,212.6834 192.6916,214.1734 193.4856,216.2584 L211.1606,266.2044 L241.0486,266.2044 L241.0486,266.3044 Z" id="Fill-47" fill="#5576B5" mask="url(#mask-2)"></path>
                    <path d="M241.0486,266.3044 C243.8286,266.3044 244.1276,270.4744 241.3466,270.6734 L240.9496,270.6734 L135.6946,270.6734 C133.2126,270.6734 131.2266,268.6874 131.2266,266.2044 L114.8426,219.9324 C113.5516,216.3574 116.2326,212.6834 120.0056,212.6834 L188.3216,212.6834 C190.6056,212.6834 192.6916,214.1734 193.4856,216.2584 L211.1606,266.2044 L241.0486,266.2044 L241.0486,266.3044 Z" id="Stroke-48" stroke="#000000" stroke-width="1.5" mask="url(#mask-2)"></path>
                    <path d="M227.2463,252.4026 L224.1673,251.0126 L233.8983,229.3656 C234.2953,228.4726 235.2883,228.0746 236.1823,228.4726 C237.0763,228.8696 237.4733,229.8626 237.0763,230.7566 L227.2463,252.4026 Z" id="Fill-49" fill="#FF844D" mask="url(#mask-2)"></path>
                    <path d="M227.2463,252.4026 L224.1673,251.0126 L233.8983,229.3656 C234.2953,228.4726 235.2883,228.0746 236.1823,228.4726 C237.0763,228.8696 237.4733,229.8626 237.0763,230.7566 L227.2463,252.4026 Z" id="Stroke-50" stroke="#000000" stroke-width="1.5" mask="url(#mask-2)"></path>
                    <path d="M241.2468,249.7219 L241.2468,250.9129 L240.8498,265.6089 C240.8498,265.6089 233.0058,265.7089 226.2528,265.0139 C222.0818,264.6169 218.4088,264.0199 217.2168,262.9279 C214.1388,260.1479 217.1178,257.7649 217.1178,257.7649 C212.8478,254.1899 217.4148,251.5089 217.4148,251.5089 C217.4148,251.5089 215.3298,246.9409 218.9048,245.4519 C220.7908,244.6579 223.8698,244.6579 227.9408,245.4519 C228.5368,245.5509 229.2318,245.7499 229.9268,245.8489 C232.2108,246.4449 234.6928,247.1399 237.3738,248.1329 C238.5658,248.6299 239.8568,249.2249 241.2468,249.7219" id="Fill-51" fill="#FFFFFF" mask="url(#mask-2)"></path>
                    <path d="M241.2468,249.7219 L241.2468,250.9129 L240.8498,265.6089 C240.8498,265.6089 233.0058,265.7089 226.2528,265.0139 C222.0818,264.6169 218.4088,264.0199 217.2168,262.9279 C214.1388,260.1479 217.1178,257.7649 217.1178,257.7649 C212.8478,254.1899 217.4148,251.5089 217.4148,251.5089 C217.4148,251.5089 215.3298,246.9409 218.9048,245.4519 C220.7908,244.6579 223.8698,244.6579 227.9408,245.4519 C228.5368,245.5509 229.2318,245.7499 229.9268,245.8489 C232.2108,246.4449 234.6928,247.1399 237.3738,248.1329 C238.5658,248.6299 239.8568,249.2249 241.2468,249.7219 Z" id="Stroke-52" stroke="#000000" stroke-width="1.5" stroke-linecap="round" stroke-linejoin="round" mask="url(#mask-2)"></path>
                    <path d="M220.6931,251.4099 C220.6931,251.4099 219.8991,251.1119 217.3171,251.5089" id="Stroke-53" stroke="#000000" stroke-width="1.5" mask="url(#mask-2)"></path>
                    <line x1="219.7986" y1="257.7649" x2="217.0186" y2="257.7649" id="Stroke-54" stroke="#000000" stroke-width="1.5" mask="url(#mask-2)"></line>
                    <path d="M167.6682,238.3025 C168.8592,241.8775 167.4692,245.6505 164.5902,246.6435 C161.6112,247.6365 158.2352,245.5515 157.0432,241.9765 C155.8522,238.4015 157.2422,234.6285 160.1212,233.6355 C163.0012,232.6425 166.4772,234.7275 167.6682,238.3025" id="Fill-55" fill="#FFFFFF" mask="url(#mask-2)"></path>
                    <path d="M327.238,268.9851 L327.238,268.9851 C333.693,264.6161 335.281,255.8781 330.912,249.4241 L294.768,196.4991 C290.4,190.0441 281.661,188.4551 275.207,192.8241 C268.753,197.1931 267.164,205.9321 271.532,212.3861 L307.676,265.3111 C312.046,271.7661 320.784,273.3551 327.238,268.9851" id="Fill-56" fill="#40ADFF" mask="url(#mask-2)"></path>
                    <path d="M243.1335,270.6736 C241.9415,270.6736 240.9485,269.6806 240.9485,268.4886 L240.9485,245.9486 C240.9485,244.7566 241.9415,243.7646 243.1335,243.7646 L319.3935,243.7646 C326.7415,243.7646 332.6985,249.7216 332.6985,257.0696 L332.6985,257.4666 C332.6985,264.8146 326.7415,270.7726 319.3935,270.7726 L243.1335,270.6736 Z" id="Fill-57" fill="#FFFFFF" mask="url(#mask-2)"></path>
                    <path d="M319.2946,242.9695 L243.0346,242.9695 C241.4456,242.9695 240.0556,244.2605 240.0556,245.9485 L240.0556,268.4895 C240.0556,270.0775 241.3466,271.4675 243.0346,271.4675 L319.2946,271.4675 C327.0396,271.4675 333.2956,265.2125 333.2956,257.4665 L333.2956,257.0695 C333.3946,249.3245 327.0396,242.9695 319.2946,242.9695 M319.2946,244.4595 C326.2456,244.4595 331.8056,250.1185 331.8056,256.9705 L331.8056,257.3675 C331.8056,264.3185 326.1456,269.8795 319.2946,269.8795 L243.0346,269.8795 C242.2406,269.8795 241.5446,269.2835 241.5446,268.3895 L241.5446,245.8495 C241.5446,245.0545 242.1406,244.3605 243.0346,244.3605 L319.2946,244.4595" id="Fill-58" fill="#000000" mask="url(#mask-2)"></path>
                    <path d="M235.2893,164.7234 L255.0493,165.9154 L254.6523,173.5604 L269.1493,177.6324 C269.1493,177.6324 258.8233,191.4344 241.9423,189.3494 C225.8563,187.4624 219.9973,176.9374 219.9973,176.9374 L231.2183,173.5614 C233.4023,172.8664 234.8923,170.8804 234.9913,168.5964 L235.2893,164.7234 Z" id="Fill-59" fill="#FFFFFF" mask="url(#mask-2)"></path>
                    <path d="M235.2893,164.7234 L255.0493,165.9154 L254.6523,173.5604 L269.1493,177.6324 C269.1493,177.6324 258.8233,191.4344 241.9423,189.3494 C225.8563,187.4624 219.9973,176.9374 219.9973,176.9374 L231.2183,173.5614 C233.4023,172.8664 234.8923,170.8804 234.9913,168.5964 L235.2893,164.7234 Z" id="Stroke-60" stroke="#000000" stroke-width="1.5" stroke-linecap="round" stroke-linejoin="round" mask="url(#mask-2)"></path>
                    <path d="M236.1828,164.823 L255.2478,167.504 C255.2478,167.504 249.0918,172.965 235.3888,171.178 L235.3888,171.078 C235.7858,170.086 235.8848,169.39 235.9848,168.298 L236.1828,164.823 Z" id="Fill-61" fill="#DBDBDB" mask="url(#mask-2)"></path>
                    <path d="M274.7102,149.2336 C271.0362,155.4886 265.1772,160.3546 258.7232,162.8376 C254.2552,164.5256 249.4892,165.1206 244.8222,164.4256 C242.1412,163.9296 239.5592,163.0356 237.1762,161.8436 C236.9772,161.7446 236.7782,161.6456 236.4812,161.4466 C235.8842,161.1496 235.3882,160.7516 234.8922,160.3546 C227.9402,155.4886 223.4722,147.0486 223.1752,137.6156 C223.0752,135.3316 223.2742,133.0476 223.6712,130.6646 C223.9692,128.9766 224.3662,127.3876 224.8632,125.8986 C227.8422,116.9626 234.3962,110.1106 242.3392,107.0326 C246.4112,105.4436 250.7792,104.8476 255.3472,105.6426 C266.9652,107.4296 274.4132,114.2806 277.4902,123.2176 C277.5892,123.4166 277.5892,123.7136 277.6892,123.9126 C277.8882,124.6076 278.0862,125.4016 278.2852,126.0976 C278.2852,126.1966 278.2852,126.2956 278.3842,126.3956 C278.3842,126.5936 278.4832,126.6926 278.4832,126.8916 C278.5832,127.2886 278.5832,127.6866 278.6832,128.0836 C278.7822,128.7776 278.8812,129.3746 278.8812,130.0686 C279.1792,133.0476 278.9812,136.1266 278.3852,139.2046 C278.1862,140.3956 277.8882,141.5876 277.5902,142.6796 C276.8952,145.1626 275.9012,147.2476 274.7102,149.2336" id="Fill-62" fill="#000000" mask="url(#mask-2)"></path>
                    <path d="M262.5959,162.3406 L262.5959,162.3406 C262.3969,162.6386 262.0989,162.9366 261.9009,163.2346 C258.6239,167.4046 253.9569,170.0856 247.5029,169.6886 C238.7639,169.1926 233.7999,164.9226 231.2179,159.1626 C230.7209,158.1696 230.4239,157.1766 230.0259,156.0846 C225.7569,141.8846 232.3099,121.8266 232.3099,121.8266 L269.9429,127.7846 C269.8449,127.8846 271.1359,150.3256 262.5959,162.3406" id="Fill-63" fill="#FFFFFF" mask="url(#mask-2)"></path>
                    <path d="M262.5959,162.3406 L262.5959,162.3406 C262.3969,162.6386 262.0989,162.9366 261.9009,163.2346 C258.6239,167.4046 253.9569,170.0856 247.5029,169.6886 C238.7639,169.1926 233.7999,164.9226 231.2179,159.1626 C230.7209,158.1696 230.4239,157.1766 230.0259,156.0846 C225.7569,141.8846 232.3099,121.8266 232.3099,121.8266 L269.9429,127.7846 C269.8449,127.8846 271.1359,150.3256 262.5959,162.3406 Z" id="Stroke-64" stroke="#000000" stroke-width="1.5" stroke-linecap="round" stroke-linejoin="round" mask="url(#mask-2)"></path>
                    <path d="M228.6364,143.5735 C223.4724,137.4175 229.0334,125.7995 229.0334,125.7995 L232.3104,121.8275 L233.6004,120.1395 C233.6004,120.1395 233.8984,129.2745 232.2114,135.7295 C230.7214,141.4885 228.6364,143.5735 228.6364,143.5735" id="Fill-65" fill="#000000" mask="url(#mask-2)"></path>
                    <path d="M268.0573,149.9285 C274.7103,145.4605 274.6113,132.0545 274.6113,132.0545 L271.1353,128.3815 L268.6533,126.3955 C268.6533,126.3955 267.1633,135.0335 266.9653,142.1835 C266.9653,147.1485 268.0573,149.9285 268.0573,149.9285" id="Fill-66" fill="#000000" mask="url(#mask-2)"></path>
                    <path d="M232.509,118.948 C232.509,118.948 231.516,129.374 252.368,133.644 L250.68,128.282 C250.68,128.282 255.446,139.006 275.008,138.41 L270.043,119.147 L240.751,114.48 L232.509,118.948 Z" id="Fill-67" fill="#000000" mask="url(#mask-2)"></path>
                    <path d="M253.8581,109.0183 C253.8581,109.0183 249.2901,99.8833 252.5671,99.6843 C255.8441,99.4853 255.1491,107.5283 255.1491,107.5283 C255.1491,107.5283 255.1491,102.6633 257.4331,102.5633 C259.7161,102.4643 256.7371,108.5213 256.7371,108.5213 L253.8581,109.0183 Z" id="Fill-68" fill="#000000" mask="url(#mask-2)"></path>
                    <path d="M228.1404,137.5163 C228.1404,137.5163 223.3744,137.0193 222.0824,140.0983 C220.7924,143.1763 222.0824,149.0353 228.1404,149.2333 L228.1404,137.5163 Z" id="Fill-69" fill="#FFFFFF" mask="url(#mask-2)"></path>
                    <path d="M228.1404,137.5163 C228.1404,137.5163 223.3744,137.0193 222.0824,140.0983 C220.7924,143.1763 222.0824,149.0353 228.1404,149.2333 L228.1404,137.5163 Z" id="Stroke-70" stroke="#000000" stroke-width="1.5" stroke-linecap="round" stroke-linejoin="round" mask="url(#mask-2)"></path>
                    <g mask="url(#mask-2)">
                        <g transform="translate(224.000000, 142.000000)">
                            <path d="M0.0691,0.1833 C0.0691,0.1833 3.3451,0.5803 4.2391,2.5663" id="Fill-71" stroke="none" fill="#FFFFFF" fill-rule="evenodd"></path>
                            <path d="M0.0691,0.1833 C0.0691,0.1833 3.3451,0.5803 4.2391,2.5663" id="Stroke-72" stroke="#000000" stroke-width="1.5" fill="none" stroke-linecap="round" stroke-linejoin="round"></path>
                        </g>
                    </g>
                    <path d="M269.6462,144.6658 C269.6462,144.6658 274.3132,145.3608 274.9082,148.7368 C275.5042,152.1128 272.7242,157.4758 266.7662,156.0848 L269.6462,144.6658 Z" id="Fill-73" fill="#FFFFFF" mask="url(#mask-2)"></path>
                    <path d="M269.6462,144.6658 C269.6462,144.6658 274.3132,145.3608 274.9082,148.7368 C275.5042,152.1128 272.7242,157.4758 266.7662,156.0848 L269.6462,144.6658 Z" id="Stroke-74" stroke="#000000" stroke-width="1.5" stroke-linecap="round" stroke-linejoin="round" mask="url(#mask-2)"></path>
                    <g mask="url(#mask-2)">
                        <g transform="translate(267.000000, 150.000000)">
                            <path d="M5.5256,0.2263 C5.5256,0.2263 2.2486,-0.1707 0.9576,1.5173" id="Fill-75" stroke="none" fill="#FFFFFF" fill-rule="evenodd"></path>
                            <path d="M5.5256,0.2263 C5.5256,0.2263 2.2486,-0.1707 0.9576,1.5173" id="Stroke-76" stroke="#000000" stroke-width="1.5" fill="none" stroke-linecap="round" stroke-linejoin="round"></path>
                        </g>
                    </g>
                    <polygon id="Fill-77" fill="#DBDBDB" mask="url(#mask-2)" points="248.5949 155.489 245.9139 154.993 248.7939 143.375 243.3319 154.496"></polygon>
                    <polyline id="Stroke-78" stroke="#000000" stroke-width="1.5" stroke-linecap="round" stroke-linejoin="round" mask="url(#mask-2)" points="248.7937 143.3747 245.9147 154.9927 248.5947 155.4887"></polyline>
                    <g mask="url(#mask-2)">
                        <g transform="translate(242.000000, 160.000000)">
                            <path d="M0.24,0.6526 C0.24,0.6526 2.325,2.5396 4.708,2.6386" id="Fill-79" stroke="none" fill="#FFFFFF" fill-rule="evenodd"></path>
                            <path d="M0.24,0.6526 C0.24,0.6526 2.325,2.5396 4.708,2.6386" id="Stroke-80" stroke="#000000" stroke-width="1.5" fill="none" stroke-linecap="round" stroke-linejoin="round"></path>
                        </g>
                    </g>
                    <path d="M237.2751,133.6438 C241.9361,133.6438 245.7151,137.4228 245.7151,142.0838 C245.7151,146.7458 241.9361,150.5238 237.2751,150.5238 C232.6141,150.5238 228.8351,146.7458 228.8351,142.0838 C228.8351,137.4228 232.6141,133.6438 237.2751,133.6438" id="Fill-81" fill="#FFFFFF" mask="url(#mask-2)"></path>
                    <path d="M237.2751,133.6438 C241.9361,133.6438 245.7151,137.4228 245.7151,142.0838 C245.7151,146.7458 241.9361,150.5238 237.2751,150.5238 C232.6141,150.5238 228.8351,146.7458 228.8351,142.0838 C228.8351,137.4228 232.6141,133.6438 237.2751,133.6438 Z" id="Stroke-82" stroke="#000000" stroke-width="1.5" stroke-linecap="round" stroke-linejoin="round" mask="url(#mask-2)"></path>
                    <path d="M260.1135,137.9133 C264.7745,137.9133 268.5535,141.6923 268.5535,146.3533 C268.5535,151.0153 264.7745,154.7933 260.1135,154.7933 C255.4515,154.7933 251.6735,151.0153 251.6735,146.3533 C251.6735,141.6923 255.4515,137.9133 260.1135,137.9133" id="Fill-83" fill="#FFFFFF" mask="url(#mask-2)"></path>
                    <path d="M260.1135,137.9133 C264.7745,137.9133 268.5535,141.6923 268.5535,146.3533 C268.5535,151.0153 264.7745,154.7933 260.1135,154.7933 C255.4515,154.7933 251.6735,151.0153 251.6735,146.3533 C251.6735,141.6923 255.4515,137.9133 260.1135,137.9133 Z" id="Stroke-84" stroke="#000000" stroke-width="1.5" stroke-linecap="round" stroke-linejoin="round" mask="url(#mask-2)"></path>
                    <line x1="245.5173" y1="143.5735" x2="251.8713" y2="144.7645" id="Stroke-85" stroke="#000000" stroke-width="1.5" mask="url(#mask-2)"></line>
                    <path d="M147.511,13.1965 L147.511,83.1015 C147.511,89.1585 142.645,94.0245 136.588,94.0245 L11.673,94.0245 C5.615,94.0245 0.75,89.1585 0.75,83.1015 L0.75,13.1965 C0.75,6.8415 5.913,1.6775 12.269,1.6775 L135.992,1.6775 C142.347,1.7775 147.511,6.8415 147.511,13.1965" id="Fill-86" fill="#FFFFFF" mask="url(#mask-2)"></path>
                    <path d="M147.511,13.1965 L147.511,83.1015 C147.511,89.1585 142.645,94.0245 136.588,94.0245 L11.673,94.0245 C5.615,94.0245 0.75,89.1585 0.75,83.1015 L0.75,13.1965 C0.75,6.8415 5.913,1.6775 12.269,1.6775 L135.992,1.6775 C142.347,1.7775 147.511,6.8415 147.511,13.1965 Z" id="Stroke-87" stroke="#000000" stroke-width="1.5" mask="url(#mask-2)"></path>
                    <polygon id="Fill-88" fill="#FFC609" mask="url(#mask-2)" points="147.511 78.335 155.256 78.335 155.256 64.434 147.511 64.434"></polygon>
                    <polygon id="Stroke-89" stroke="#000000" stroke-width="1.5" mask="url(#mask-2)" points="147.511 78.335 155.256 78.335 155.256 64.434 147.511 64.434"></polygon>
                    <polygon id="Fill-90" fill="#FFC609" mask="url(#mask-2)" points="155.156 74.562 161.412 74.562 161.412 68.306 155.156 68.306"></polygon>
                    <polygon id="Stroke-91" stroke="#000000" stroke-width="1.5" mask="url(#mask-2)" points="155.156 74.562 161.412 74.562 161.412 68.306 155.156 68.306"></polygon>
                    <line x1="269.5466" y1="209.5066" x2="280.7676" y2="226.1886" id="Stroke-92" stroke="#000000" stroke-width="1.5" stroke-linecap="round" stroke-linejoin="round" mask="url(#mask-2)"></line>
                    <line x1="218.4089" y1="208.3152" x2="206.7909" y2="221.9192" id="Stroke-93" stroke="#000000" stroke-width="1.5" stroke-linecap="round" stroke-linejoin="round" mask="url(#mask-2)"></line>
                    <path d="M69.861,75.754 L80.188,75.754 L80.188,65.526 L69.861,65.526 L69.861,75.754 Z M79.195,60.263 L70.854,60.263 L70.854,57.483 C70.754,52.617 72.939,48.546 77.407,45.269 C82.074,41.992 84.259,38.815 84.06,35.737 C83.564,31.665 81.181,29.382 76.812,29.084 C71.449,28.985 68.173,32.261 66.782,38.716 L57.448,36.63 C59.534,25.708 66.485,20.445 78.201,20.842 C88.032,21.339 93.394,25.906 94.288,34.545 C94.685,40.007 91.607,44.773 85.252,48.943 C82.868,50.532 81.28,52.022 80.386,53.412 C79.492,54.702 79.095,56.291 79.095,58.078 C79.195,58.972 79.195,59.668 79.195,60.263 L79.195,60.263 Z" id="Fill-94" fill="#FF844D" mask="url(#mask-2)"></path>
                    <polyline id="Stroke-95" stroke="#000000" stroke-width="1.5" mask="url(#mask-2)" points="146.6174 116.0681 140.4604 122.5221 146.6174 128.4801"></polyline>
                    <polyline id="Stroke-96" stroke="#000000" stroke-width="1.5" mask="url(#mask-2)" points="163.7956 116.0681 169.9516 122.5221 163.7956 128.4801"></polyline>
                    <line x1="160.4196" y1="113.3869" x2="149.9936" y2="130.4659" id="Stroke-97" stroke="#000000" stroke-width="1.5" mask="url(#mask-2)"></line>
                    <polygon id="Fill-98" fill="#FFFFFF" mask="url(#mask-2)" points="12.269 263.723 48.81 263.723 48.81 198.187 12.269 198.187"></polygon>
                    <polygon id="Stroke-99" stroke="#000000" stroke-width="1.5" mask="url(#mask-2)" points="12.269 263.723 48.81 263.723 48.81 198.187 12.269 198.187"></polygon>
                    <polygon id="Fill-100" fill="#F2F2F2" mask="url(#mask-2)" points="15.943 259.254 44.839 259.254 44.839 246.643 15.943 246.643"></polygon>
                    <polygon id="Fill-101" fill="#F2F2F2" mask="url(#mask-2)" points="16.042 244.261 44.938 244.261 44.938 231.65 16.042 231.65"></polygon>
                    <polygon id="Fill-102" fill="#DBDBDB" mask="url(#mask-2)" points="16.042 229.266 44.938 229.266 44.938 216.656 16.042 216.656"></polygon>
                    <polygon id="Fill-103" fill="#DBDBDB" mask="url(#mask-2)" points="15.943 214.174 44.839 214.174 44.839 201.563 15.943 201.563"></polygon>
                    <polygon id="Fill-104" fill="#FFC609" mask="url(#mask-2)" points="23.588 271.468 37.49 271.468 37.49 263.723 23.588 263.723"></polygon>
                    <polygon id="Stroke-105" stroke="#000000" stroke-width="1.5" mask="url(#mask-2)" points="23.588 271.468 37.49 271.468 37.49 263.723 23.588 263.723"></polygon>
                    <polygon id="Fill-106" fill="#FFC609" mask="url(#mask-2)" points="27.362 277.624 33.618 277.624 33.618 271.368 27.362 271.368"></polygon>
                    <polygon id="Stroke-107" stroke="#000000" stroke-width="1.5" mask="url(#mask-2)" points="27.362 277.624 33.618 277.624 33.618 271.368 27.362 271.368"></polygon>
                    <polygon id="Fill-108" fill="#FFC609" mask="url(#mask-2)" points="23.588 198.088 37.49 198.088 37.49 190.342 23.588 190.342"></polygon>
                    <polygon id="Stroke-109" stroke="#000000" stroke-width="1.5" mask="url(#mask-2)" points="23.588 198.088 37.49 198.088 37.49 190.342 23.588 190.342"></polygon>
                    <polygon id="Fill-110" fill="#FFC609" mask="url(#mask-2)" points="27.362 190.442 33.618 190.442 33.618 184.186 27.362 184.186"></polygon>
                    <polygon id="Stroke-111" stroke="#000000" stroke-width="1.5" mask="url(#mask-2)" points="27.362 190.442 33.618 190.442 33.618 184.186 27.362 184.186"></polygon>
                    <path d="M268.4543,147.9426 C267.5603,152.5106 263.1913,155.4886 258.6233,154.5956 C254.9503,153.9006 252.5663,150.4246 253.2623,146.7516 C253.8583,143.8716 256.6383,141.8856 259.5173,142.4816 C261.8013,142.8786 263.3903,145.1626 262.9933,147.5456 C262.5963,149.4316 260.8083,150.6236 259.0213,150.3256 C257.5313,150.0276 256.5383,148.6376 256.8363,147.1486 C257.0353,145.9566 258.2263,145.1626 259.4183,145.3606" id="Stroke-112" stroke="#000000" stroke-width="1.5" mask="url(#mask-2)"></path>
                    <path d="M245.5173,143.5735 C244.6233,148.1415 240.2543,151.1205 235.6863,150.2265 C232.0123,149.5315 229.6293,146.0555 230.3253,142.3825 C230.9203,139.5025 233.7013,137.5165 236.5803,138.1125 C238.8643,138.5095 240.4533,140.7935 240.0563,143.1765 C239.6583,145.0635 237.8713,146.2545 236.0833,145.9565 C234.5943,145.6585 233.6013,144.2685 233.8993,142.7795 C234.0983,141.5875 235.2893,140.7935 236.4813,140.9915" id="Stroke-113" stroke="#000000" stroke-width="1.5" mask="url(#mask-2)"></path>
                    <path d="M423.5564,43.78 C418.4924,38.716 410.2504,38.815 405.1864,43.88 C400.1224,48.944 400.2214,57.086 405.2854,62.15 C409.7544,66.618 416.9034,67.015 421.8684,63.639 L434.2804,76.051 L437.6564,72.676 L425.2444,60.263 C428.7204,55.001 428.0244,48.248 423.5564,43.78" id="Fill-114" fill="#B8ECFF" mask="url(#mask-2)"></path>
                    <polygon id="Fill-115" fill="#FFC609" mask="url(#mask-2)" points="422.6237 67.3244 428.5217 61.4264 436.4557 69.3604 430.5577 75.2584"></polygon>
                    <path d="M421.4709,45.8654 C425.4429,49.8374 425.4429,56.3904 421.4709,60.3624 C417.4989,64.3344 410.9459,64.3344 406.9729,60.3624 C403.0019,56.3904 403.0019,49.8374 406.9729,45.8654 C410.9459,41.7944 417.4989,41.7944 421.4709,45.8654" id="Fill-116" fill="#40ADFF" mask="url(#mask-2)"></path>
                </g>
            </g>
        </g>
    </g>
</svg>