<!-- Generated by IcoMoon.io -->
<svg version="1.1" xmlns="http://www.w3.org/2000/svg" width="32" height="32" viewBox="0 0 32 32">
<path fill="currentColor" d="M28 25.337c0 2.207-1.791 3.997-4 3.997s-4-1.789-4-3.997c-0.007-0.111-0.007-0.222 0-0.333 0.023-0.257-0.101-0.504-0.32-0.639l-8.72-5.089c-0.219-0.141-0.501-0.141-0.72 0-0.654 0.468-1.436 0.724-2.24 0.733-2.209 0-4-1.789-4-3.997s1.791-3.997 4-3.997c0.801 0.001 1.583 0.247 2.24 0.706 0.219 0.141 0.501 0.141 0.72 0l8.733-5.089c0.205-0.134 0.323-0.368 0.307-0.613-0.007-0.111-0.007-0.222 0-0.333-0.011-1.876 1.287-3.507 3.118-3.921s3.705 0.502 4.503 2.2c0.798 1.699 0.306 3.723-1.183 4.866s-3.573 1.098-5.011-0.109l-9.12 5.329c-0.219 0.135-0.343 0.383-0.32 0.639 0.018 0.222 0.018 0.444 0 0.666-0.023 0.257 0.101 0.504 0.32 0.639l8.733 5.089c0.219 0.141 0.501 0.141 0.72 0 0.652-0.473 1.434-0.733 2.24-0.746 2.209 0 4 1.789 4 3.997z"></path>
</svg>
