<?xml version="1.0" encoding="UTF-8"?>
<svg width="24px" height="24px" viewBox="0 0 24 24" version="1.1" xmlns="http://www.w3.org/2000/svg" xmlns:xlink="http://www.w3.org/1999/xlink">
    <g id="完整" stroke="none" stroke-width="1" fill="none" fill-rule="evenodd">
        <g id="大模型/悟空-画作管理-我的收藏" transform="translate(-946.000000, -431.000000)" fill="#FFFFFF">
            <g id="编组-11备份-2" transform="translate(938.000000, 423.000000)">
                <g id="ico-/-24-/-ui-/-download_to备份" transform="translate(8.000000, 8.000000)">
                    <path d="M21.0001732,19.002563 C21.0001732,20.6580018 19.6568542,22 18,22 C16.3431458,22 15,20.6580018 15,19.002563 C14.9950115,18.9193755 14.9950115,18.8359642 15,18.7527766 C15.0174548,18.560383 14.9245194,18.374671 14.76,18.2731867 L8.22,14.4564503 C8.05547529,14.3509838 7.84452471,14.3509838 7.68,14.4564503 C7.18968141,14.8074849 6.60316185,14.9993362 6,15.0059804 C4.34314575,15.0059804 3,13.6639822 3,12.0085434 C3,10.3531047 4.34314575,9.01110646 6,9.01110646 C6.6010089,9.01190262 7.18733633,9.19671694 7.68,9.54065366 C7.84452471,9.64612013 8.05547529,9.64612013 8.22,9.54065366 L14.77,5.72391725 C14.9240264,5.62338031 15.0119175,5.44774822 15,5.26431024 C14.9950115,5.1811227 14.9950115,5.09771138 15,5.01452383 C14.9921137,3.60732064 15.9650416,2.38409901 17.3388462,2.0739903 C18.7126508,1.7638816 20.1173995,2.45039061 20.7157573,3.72430675 C21.3141151,4.99822289 20.9449587,6.51651124 19.8283328,7.37415866 C18.7117069,8.23180607 17.148292,8.19786878 16.07,7.29257593 L9.23,11.2891586 C9.06548057,11.3906428 8.97254516,11.5763548 8.99,11.7687485 C9.00333333,11.9350063 9.00333333,12.1020635 8.99,12.2683213 C8.97254516,12.460715 9.06548057,12.646427 9.23,12.7479112 L15.78,16.5646476 C15.9445247,16.6701141 16.1554753,16.6701141 16.32,16.5646476 C16.8091364,16.2100574 17.3957548,16.014685 18,16.0051261 C19.6568542,16.0051261 21.0001732,17.3471243 21.0001732,19.002563 Z" id="Icon-color"></path>
                </g>
            </g>
        </g>
    </g>
</svg>