<?xml version="1.0" encoding="UTF-8"?>
<svg width="280px" height="269px" viewBox="0 0 280 269" version="1.1" xmlns="http://www.w3.org/2000/svg" xmlns:xlink="http://www.w3.org/1999/xlink">
    <title>编组</title>
    <defs>
        <polygon id="path-1" points="0 0.94132422 279.283068 0.94132422 279.283068 267.304333 0 267.304333"></polygon>
        <path d="M75.1241772,0.941 C44.0255696,0.985 0.113417722,41.642 0,112.437 L0,112.437 L0,112.997 C0,113.34 0,113.684 0.00443037975,114.028 L0.00443037975,114.028 C0.594556962,191.177 0.00443037975,209.8 30.6502532,239.063 L30.6502532,239.063 C30.6502532,239.063 84.244557,302.606 233.373797,239.063 L233.373797,239.063 C267.878481,224.36 279.243291,207.522 279.283165,190.957 L279.283165,190.957 L279.283165,190.778 C279.25481,179.678 274.159873,168.707 267.553291,158.588 L267.553291,158.588 C251.052785,133.315 228.658101,108.707 226.301139,68.802 L226.301139,68.802 C223.944177,28.897 193.889367,15.595 162.65519,15.595 L162.65519,15.595 C131.421899,15.595 113.153671,8.28 81.9194937,1.629 L81.9194937,1.629 C79.7751899,1.172 77.5325316,0.944 75.2225316,0.941 L75.2225316,0.941" id="path-3"></path>
        <path d="M75.1241772,0.941 C44.0255696,0.985 0.113417722,41.642 0,112.437 L0,112.437 L0,112.997 C0,113.34 0,113.684 0.00443037975,114.028 L0.00443037975,114.028 C0.594556962,191.177 0.00443037975,209.8 30.6502532,239.063 L30.6502532,239.063 C30.6502532,239.063 84.244557,302.606 233.373797,239.063 L233.373797,239.063 C267.878481,224.36 279.243291,207.522 279.283165,190.957 L279.283165,190.957 L279.283165,190.778 C279.25481,179.678 274.159873,168.707 267.553291,158.588 L267.553291,158.588 C251.052785,133.315 228.658101,108.707 226.301139,68.802 L226.301139,68.802 C223.944177,28.897 193.889367,15.595 162.65519,15.595 L162.65519,15.595 C131.421899,15.595 113.153671,8.28 81.9194937,1.629 L81.9194937,1.629 C79.7751899,1.172 77.5325316,0.944 75.2225316,0.941 L75.2225316,0.941" id="path-5"></path>
        <path d="M75.1241772,0.941 C44.0255696,0.985 0.113417722,41.642 0,112.437 L0,112.437 L0,112.997 C0,113.34 0,113.684 0.00443037975,114.028 L0.00443037975,114.028 C0.594556962,191.177 0.00443037975,209.8 30.6502532,239.063 L30.6502532,239.063 C30.6502532,239.063 84.244557,302.606 233.373797,239.063 L233.373797,239.063 C267.878481,224.36 279.243291,207.522 279.283165,190.957 L279.283165,190.957 L279.283165,190.778 C279.25481,179.678 274.159873,168.707 267.553291,158.588 L267.553291,158.588 C251.052785,133.315 228.658101,108.707 226.301139,68.802 L226.301139,68.802 C223.944177,28.897 193.889367,15.595 162.65519,15.595 L162.65519,15.595 C131.421899,15.595 113.153671,8.28 81.9194937,1.629 L81.9194937,1.629 C79.7751899,1.172 77.5325316,0.944 75.2225316,0.941 L75.2225316,0.941 L75.1241772,0.941 Z" id="path-7"></path>
        <path d="M75.1241772,0.941 C44.0255696,0.985 0.113417722,41.642 0,112.437 L0,112.437 L0,112.997 C0,113.34 0,113.684 0.00443037975,114.028 L0.00443037975,114.028 C0.594556962,191.177 0.00443037975,209.8 30.6502532,239.063 L30.6502532,239.063 C30.6502532,239.063 84.244557,302.606 233.373797,239.063 L233.373797,239.063 C267.878481,224.36 279.243291,207.522 279.283165,190.957 L279.283165,190.957 L279.283165,190.778 C279.25481,179.678 274.159873,168.707 267.553291,158.588 L267.553291,158.588 C251.052785,133.315 228.658101,108.707 226.301139,68.802 L226.301139,68.802 C223.944177,28.897 193.889367,15.595 162.65519,15.595 L162.65519,15.595 C131.421899,15.595 113.153671,8.28 81.9194937,1.629 L81.9194937,1.629 C79.7751899,1.172 77.5325316,0.944 75.2225316,0.941 L75.2225316,0.941" id="path-9"></path>
        <path d="M75.1241772,0.941 C44.0255696,0.985 0.113417722,41.642 0,112.437 L0,112.437 L0,112.997 C0,113.34 0,113.684 0.00443037975,114.028 L0.00443037975,114.028 C0.594556962,191.177 0.00443037975,209.8 30.6502532,239.063 L30.6502532,239.063 C30.6502532,239.063 84.244557,302.606 233.373797,239.063 L233.373797,239.063 C267.878481,224.36 279.243291,207.522 279.283165,190.957 L279.283165,190.957 L279.283165,190.778 C279.25481,179.678 274.159873,168.707 267.553291,158.588 L267.553291,158.588 C251.052785,133.315 228.658101,108.707 226.301139,68.802 L226.301139,68.802 C223.944177,28.897 193.889367,15.595 162.65519,15.595 L162.65519,15.595 C131.421899,15.595 113.153671,8.28 81.9194937,1.629 L81.9194937,1.629 C79.7751899,1.172 77.5325316,0.944 75.2225316,0.941 L75.2225316,0.941 L75.1241772,0.941 Z" id="path-11"></path>
        <path d="M0.250759494,91.581 C2.71139241,94.348 5.45113924,97.154 8.49835443,100.063 L8.49835443,100.063 C8.49835443,100.063 62.0926582,163.606 211.221899,100.063 L211.221899,100.063 C213.712658,99.002 216.083797,97.929 218.337975,96.846 L218.337975,96.846 C205.921392,41.534 161.521013,0.609 108.650633,0.609 L108.650633,0.609 C57.4726582,0.609 14.2294937,38.959 0.250759494,91.581" id="path-13"></path>
        <path d="M0.250759494,91.581 C2.71139241,94.348 5.45113924,97.154 8.49835443,100.063 L8.49835443,100.063 C8.49835443,100.063 62.0926582,163.606 211.221899,100.063 L211.221899,100.063 C213.712658,99.002 216.083797,97.929 218.337975,96.846 L218.337975,96.846 C205.921392,41.534 161.521013,0.609 108.650633,0.609 L108.650633,0.609 C57.4726582,0.609 14.2294937,38.959 0.250759494,91.581" id="path-15"></path>
        <path d="M0.250759494,91.581 C2.71139241,94.348 5.45113924,97.154 8.49835443,100.063 L8.49835443,100.063 C8.49835443,100.063 62.0926582,163.606 211.221899,100.063 L211.221899,100.063 C213.712658,99.002 216.083797,97.929 218.337975,96.846 L218.337975,96.846 C205.921392,41.534 161.521013,0.609 108.650633,0.609 L108.650633,0.609 C57.4726582,0.609 14.2294937,38.959 0.250759494,91.581 L0.250759494,91.581 Z" id="path-17"></path>
        <path d="M0.250759494,91.581 C2.71139241,94.348 5.45113924,97.154 8.49835443,100.063 L8.49835443,100.063 C8.49835443,100.063 62.0926582,163.606 211.221899,100.063 L211.221899,100.063 C213.712658,99.002 216.083797,97.929 218.337975,96.846 L218.337975,96.846 C205.921392,41.534 161.521013,0.609 108.650633,0.609 L108.650633,0.609 C57.4726582,0.609 14.2294937,38.959 0.250759494,91.581 L0.250759494,91.581 Z" id="path-19"></path>
    </defs>
    <g id="页面-1备份" stroke="none" stroke-width="1" fill="none" fill-rule="evenodd">
        <g id="个人主页/我的粉丝/缺省页" transform="translate(-1064.000000, -662.000000)">
            <g id="编组-2备份" transform="translate(944.000000, 662.000000)">
                <g id="编组" transform="translate(120.000000, 0.000000)">
                    <g transform="translate(0.000000, 0.059000)">
                        <path d="M44.3076076,194.4024 C44.3076076,195.7504 44.1516582,197.0974 43.857481,198.4254 C42.9581139,199.9104 41.7114051,201.2774 40.240519,202.5474 C41.1230506,200.9064 41.7291266,199.2264 42.0578608,197.5074 C43.0963418,195.9454 43.6324177,194.3434 43.6324177,192.6834 C43.6324177,192.4884 43.6324177,192.2734 43.6155823,192.0584 L43.6155823,192.0194 C43.5978608,191.8244 43.5633038,191.6294 43.5287468,191.4334 L43.5287468,191.3944 C44.0479873,192.3324 44.3076076,193.3474 44.3076076,194.4024" id="Fill-1" fill="#8A278E"></path>
                        <path d="M43.6326835,192.6837 C43.6326835,192.4887 43.6326835,192.2737 43.614962,192.0587 C43.614962,192.2737 43.6326835,192.4687 43.6326835,192.6837" id="Fill-3" fill="#00445D"></path>
                        <path d="M43.598038,192.0587 C43.6157595,192.2537 43.6157595,192.4687 43.6157595,192.6837 C43.6157595,194.3437 43.0787975,195.9457 42.0403165,197.5077 C42.2485443,196.4927 42.3522152,195.4567 42.3522152,194.4027 C42.3522152,193.6607 42.1094304,192.9177 41.6593038,192.2347 C41.5210759,190.6137 40.6385443,188.9727 39.0639873,187.3517 C41.2100633,188.5817 42.6632278,189.9107 43.5112025,191.3747 L43.5112025,191.4337 C43.5457595,191.6287 43.563481,191.8247 43.598038,192.0197 L43.598038,192.0587 Z" id="Fill-5" fill="#8A278E"></path>
                        <path d="M43.5227215,191.3751 C43.5027215,191.2191 43.4637215,191.0821 43.4247215,190.9261 C43.4637215,191.0821 43.5027215,191.2191 43.5227215,191.3751 M43.6207215,192.0201 C43.6007215,191.8241 43.5617215,191.6291 43.5227215,191.4341 C43.5817215,191.6291 43.6007215,191.8241 43.6207215,192.0201" id="Fill-7" fill="#00445D"></path>
                        <path d="M43.3557848,190.6524 C43.3380633,190.5544 43.3035063,190.4574 43.2689494,190.3594 C43.3035063,190.4374 43.3212278,190.5544 43.3557848,190.6524" id="Fill-9" fill="#00445D"></path>
                        <path d="M42.3693165,194.4024 C42.3693165,195.4574 42.2656456,196.4924 42.0574177,197.5074 C41.2617215,198.7384 40.1364051,199.9294 38.7523544,201.0824 C39.4966582,199.6174 39.9981772,198.1134 40.2577975,196.6094 C41.209443,195.3004 41.7118481,193.9724 41.7118481,192.6644 C41.7118481,192.5074 41.7118481,192.3714 41.6941266,192.2144 C42.1274177,192.9184 42.3693165,193.6604 42.3693165,194.4024" id="Fill-11" fill="#8A278E"></path>
                        <path d="M42.1096962,187.918 C42.0228608,187.781 41.9537468,187.664 41.8500759,187.547 C41.9369114,187.664 42.0405823,187.781 42.1096962,187.918" id="Fill-13" fill="#00445D"></path>
                        <path d="M41.0081392,186.3946 C40.8521392,186.2186 40.6761392,186.0626 40.5001392,185.9066 C40.6761392,186.0626 40.8321392,186.2186 41.0081392,186.3946 M41.3791392,186.7856 C41.2621392,186.6486 41.1451392,186.5316 41.0081392,186.3946 C41.1451392,186.5316 41.2621392,186.6486 41.3791392,186.7856" id="Fill-15" fill="#00445D"></path>
                        <path d="M39.496481,184.9102 C39.3236962,184.7542 39.1331899,184.5782 38.9426835,184.4222 C39.1331899,184.5982 39.3059747,184.7542 39.496481,184.9102" id="Fill-17" fill="#00445D"></path>
                        <path d="M38.3543291,183.9532 L37.7314177,183.4842 C37.956481,183.6212 38.1469873,183.7772 38.3543291,183.9532 M38.9426835,184.4412 C38.7521772,184.2852 38.5616709,184.1092 38.3543291,183.9532 C38.5616709,184.1092 38.7521772,184.2652 38.9426835,184.4412" id="Fill-19" fill="#00445D"></path>
                        <g>
                            <mask id="mask-2" fill="white">
                                <use xlink:href="#path-1"></use>
                            </mask>
                            <g id="Clip-22"></g>
                            <path d="M30.6496329,239.063 C30.6496329,239.063 84.2439367,302.606 233.373177,239.063 C291.125835,214.455 284.054063,183.861 267.552671,158.588 C251.052165,133.315 228.658367,108.707 226.301405,68.802 C223.943557,28.897 193.889633,15.595 162.656342,15.595 C131.422165,15.595 113.153051,8.279 81.9197595,1.629 C50.6855823,-5.022 -0.584544304,36.878 0.00469620253,114.028 C0.593936709,191.177 0.00469620253,209.799 30.6496329,239.063" id="Fill-21" fill="#E8F3FB" mask="url(#mask-2)"></path>
                        </g>
                    </g>
                    <g transform="translate(0.000000, 0.059000)">
                        <g>
                            <mask id="mask-4" fill="white">
                                <use xlink:href="#path-3"></use>
                            </mask>
                            <g id="Clip-24"></g>
                            <path d="M243.949823,267.3043 C243.949823,337.8283 193.291975,395.0003 130.802354,395.0003 C68.3118481,395.0003 17.6531139,337.8283 17.6531139,267.3043 C17.6531139,196.7803 68.3118481,139.6083 130.802354,139.6083 C193.291975,139.6083 243.949823,196.7803 243.949823,267.3043" id="Fill-23" fill="#ADB5BC" mask="url(#mask-4)"></path>
                        </g>
                        <g>
                            <mask id="mask-6" fill="white">
                                <use xlink:href="#path-5"></use>
                            </mask>
                            <g id="Clip-26"></g>
                            <path d="M220.129709,206.5734 C224.156038,214.4444 222.663886,223.9244 216.797177,227.7484 C210.929582,231.5714 202.908823,228.2894 198.882494,220.4174 C194.856165,212.5464 196.34743,203.0664 202.215025,199.2434 C208.081734,195.4204 216.102494,198.7024 220.129709,206.5734" id="Fill-25" fill="#F2F2F2" mask="url(#mask-6)"></path>
                        </g>
                        <g>
                            <mask id="mask-8" fill="white">
                                <use xlink:href="#path-7"></use>
                            </mask>
                            <g id="Clip-28"></g>
                            <path d="M220.129709,206.5734 C224.156038,214.4444 222.663886,223.9244 216.797177,227.7484 C210.929582,231.5714 202.908823,228.2894 198.882494,220.4174 C194.856165,212.5464 196.34743,203.0664 202.215025,199.2434 C208.081734,195.4204 216.102494,198.7024 220.129709,206.5734 Z" id="Stroke-27" stroke="#6D7278" stroke-width="2" mask="url(#mask-8)"></path>
                        </g>
                        <g>
                            <mask id="mask-10" fill="white">
                                <use xlink:href="#path-9"></use>
                            </mask>
                            <g id="Clip-30"></g>
                            <path d="M89.4395316,255.2393 C89.4395316,270.5633 78.4318101,282.9863 64.8535823,282.9863 C51.2744684,282.9863 40.2667468,270.5633 40.2667468,255.2393 C40.2667468,239.9153 51.2744684,227.4923 64.8535823,227.4923 C78.4318101,227.4923 89.4395316,239.9153 89.4395316,255.2393" id="Fill-29" fill="#F2F2F2" mask="url(#mask-10)"></path>
                        </g>
                        <g>
                            <mask id="mask-12" fill="white">
                                <use xlink:href="#path-11"></use>
                            </mask>
                            <g id="Clip-32"></g>
                            <path d="M89.4395316,255.2393 C89.4395316,270.5633 78.4318101,282.9863 64.8535823,282.9863 C51.2744684,282.9863 40.2667468,270.5633 40.2667468,255.2393 C40.2667468,239.9153 51.2744684,227.4923 64.8535823,227.4923 C78.4318101,227.4923 89.4395316,239.9153 89.4395316,255.2393 Z" id="Stroke-31" stroke="#6D7278" stroke-width="2" mask="url(#mask-12)"></path>
                        </g>
                    </g>
                    <g transform="translate(22.151899, 139.059000)">
                        <g>
                            <mask id="mask-14" fill="white">
                                <use xlink:href="#path-13"></use>
                            </mask>
                            <g id="Clip-34"></g>
                            <path d="M141.056025,89.3436 L131.783241,94.8906 L131.525392,95.0456 L131.010582,95.3536 C127.798557,97.6476 126.588177,102.0956 128.363873,105.8746 C129.591975,108.4906 131.836405,109.7546 134.320962,110.1296 C134.320962,110.1296 138.883367,110.0066 140.056532,122.3386 C140.208937,123.3646 140.360456,124.3906 140.770709,125.2626 C142.545519,129.0416 146.880203,130.5436 150.486532,128.3866 C152.031848,127.4616 153.304253,125.9556 153.788051,124.1766 C157.497165,114.5106 157.521975,103.3246 152.879823,93.4416 L152.742481,93.1506 C150.694759,88.7906 145.434127,86.7236 141.056025,89.3436 M121.082987,94.5896 C120.537165,93.4266 120.642608,92.2466 120.748051,91.0666 C121.111342,89.7326 122.005392,88.8256 122.778051,88.3626 C123.807671,87.7466 125.111089,87.7116 125.899696,87.9846 C127.081722,88.3946 127.748937,89.1126 128.295646,90.2756 C128.841468,91.4376 128.736025,92.6186 128.630582,93.7986 C128.267291,95.1326 127.374127,96.0396 126.601468,96.5026 C125.570076,97.1186 124.267544,97.1536 123.478937,96.8806 C122.296911,96.4706 121.629696,95.7526 121.082987,94.5896 M130.339823,88.3066 C129.930456,87.4346 129.778051,86.4086 130.020835,85.5196 C130.262734,84.6296 130.898937,83.8766 131.671595,83.4146 C132.444253,82.9516 133.354253,82.7806 134.141975,83.0536 C134.929696,83.3266 135.597797,84.0446 136.007165,84.9166 C136.416532,85.7886 136.568937,86.8146 136.326152,87.7046 C136.085139,88.5936 135.448051,89.3476 134.675392,89.8096 C133.902734,90.2716 132.99362,90.4436 132.205899,90.1706 C131.417291,89.8966 130.750076,89.1786 130.339823,88.3066 M138.356152,85.0006 C138.083241,84.4196 137.930835,83.3936 138.172734,82.5036 C138.415519,81.6146 138.792987,81.0156 139.565646,80.5526 C140.338304,80.0906 140.991342,80.0736 141.778177,80.3466 C142.566785,80.6196 143.09843,81.0466 143.507797,81.9186 C143.917165,82.7906 143.932228,83.5266 143.691215,84.4156 C143.44843,85.3056 143.06919,85.9046 142.296532,86.3666 C141.523873,86.8286 140.872608,86.8466 140.084,86.5736 C139.296278,86.3006 138.765519,85.8726 138.356152,85.0006 M145.933873,85.6806 C145.660962,85.0986 145.645899,84.3636 145.629949,83.6276 C146.00919,83.0296 146.387544,82.4306 146.902354,82.1216 C147.418051,81.8136 148.069316,81.7966 148.720582,81.7786 C149.372734,81.7616 149.782101,82.6336 150.055013,83.2146 C150.32881,83.7966 150.343873,84.5316 150.359823,85.2666 C149.980582,85.8656 149.602228,86.4646 149.086532,86.7726 C148.571722,87.0816 147.920456,87.0986 147.26919,87.1166 C146.737544,86.6886 146.206785,86.2616 145.933873,85.6806" id="Fill-33" fill="#F2F2F2" mask="url(#mask-14)"></path>
                        </g>
                        <g>
                            <mask id="mask-16" fill="white">
                                <use xlink:href="#path-15"></use>
                            </mask>
                            <g id="Clip-36"></g>
                            <path d="M112.763089,14.7149 L107.385494,17.9319 L107.235747,18.0219 L106.937139,18.1999 C105.074608,19.5309 104.371949,22.1099 105.40157,24.3019 C106.114861,25.8189 107.41562,26.5529 108.857266,26.7699 C108.857266,26.7699 111.503089,26.6989 112.183595,33.8499 C112.271316,34.4459 112.359924,35.0409 112.597392,35.5469 C113.627013,37.7379 116.141696,38.6099 118.232835,37.3579 C119.128658,36.8219 119.866759,35.9489 120.147646,34.9169 C122.298152,29.3109 122.312329,22.8229 119.619544,17.0909 L119.540684,16.9229 C118.353342,14.3939 115.302582,13.1959 112.763089,14.7149 M101.180304,17.7579 C100.863089,17.0829 100.924228,16.3989 100.985367,15.7139 C101.195367,14.9399 101.713722,14.4139 102.162076,14.1459 C102.760177,13.7889 103.515114,13.7679 103.973215,13.9269 C104.659038,14.1639 105.045367,14.5809 105.361696,15.2549 C105.678911,15.9299 105.618658,16.6139 105.556633,17.2989 C105.346633,18.0719 104.828278,18.5989 104.379924,18.8669 C103.781823,19.2239 103.026886,19.2439 102.568785,19.0859 C101.883848,18.8479 101.496633,18.4319 101.180304,17.7579 M106.548152,14.1139 C106.310684,13.6079 106.222962,13.0129 106.362962,12.4969 C106.503848,11.9809 106.872456,11.5439 107.319924,11.2759 C107.768278,11.0079 108.29638,10.9089 108.753595,11.0669 C109.209924,11.2249 109.597139,11.6419 109.834608,12.1479 C110.072076,12.6529 110.159797,13.2479 110.019797,13.7639 C109.879797,14.2799 109.510304,14.7169 109.062835,14.9849 C108.614481,15.2529 108.087266,15.3529 107.630051,15.1939 C107.172835,15.0359 106.786506,14.6199 106.548152,14.1139 M111.196506,12.1959 C111.038785,11.8589 110.950177,11.2639 111.091063,10.7479 C111.231063,10.2319 111.451696,9.8849 111.899165,9.6169 C112.346633,9.3489 112.724987,9.3389 113.183089,9.4969 C113.639418,9.6549 113.946886,9.9029 114.184354,10.4089 C114.422709,10.9149 114.43157,11.3409 114.29157,11.8569 C114.150684,12.3729 113.930937,12.7199 113.482582,12.9889 C113.035114,13.2569 112.656759,13.2669 112.199544,13.1079 C111.743215,12.9499 111.434861,12.7019 111.196506,12.1959 M115.592329,12.5899 C115.433722,12.2529 115.424861,11.8269 115.416,11.3999 C115.634861,11.0529 115.854608,10.7049 116.153215,10.5269 C116.452709,10.3479 116.830177,10.3379 117.208532,10.3279 C117.586,10.3179 117.824354,10.8229 117.982962,11.1609 C118.140684,11.4979 118.149544,11.9239 118.158405,12.3509 C117.939544,12.6979 117.719797,13.0449 117.42119,13.2239 C117.121696,13.4029 116.744228,13.4129 116.365873,13.4229 C116.058405,13.1749 115.750937,12.9279 115.592329,12.5899" id="Fill-35" fill="#F2F2F2" mask="url(#mask-16)"></path>
                        </g>
                        <g>
                            <mask id="mask-18" fill="white">
                                <use xlink:href="#path-17"></use>
                            </mask>
                            <g id="Clip-38"></g>
                            <path d="M74.547519,0.4445 C72.0089114,-1.0745 68.9572658,0.1235 67.7699241,2.6525 L67.6910633,2.8205 C64.9982785,8.5525 65.0124557,15.0405 67.1638481,20.6465 C67.4438481,21.6785 68.1819494,22.5515 69.0786582,23.0875 C71.1689114,24.3395 73.6835949,23.4675 74.7132152,21.2765 C74.9506835,20.7705 75.0392911,20.1755 75.1270127,19.5795 C75.807519,12.4285 78.4533418,12.4995 78.4533418,12.4995 C79.8949873,12.2825 81.1957468,11.5485 81.909038,10.0315 C82.9386582,7.8395 82.2368861,5.2605 80.3734684,3.9295 L80.0748608,3.7515 L79.9251139,3.6615 L74.547519,0.4445 Z M84.7418228,4.8155 C84.2846076,4.9735 83.5287848,4.9535 82.9306835,4.5965 C82.4832152,4.3285 81.9648608,3.8015 81.7539747,3.0285 C81.6919494,2.3435 81.6316962,1.6595 81.9489114,0.9845 C82.2652405,0.3105 82.6515696,-0.1065 83.3382785,-0.3435 C83.7954937,-0.5025 84.5504304,-0.4815 85.1485316,-0.1245 C85.5968861,0.1435 86.1152405,0.6695 86.3252405,1.4435 C86.3863797,2.1285 86.4484051,2.8125 86.1311899,3.4875 C85.8139747,4.1615 85.4267595,4.5775 84.7418228,4.8155 L84.7418228,4.8155 Z M79.680557,0.9235 C79.2233418,1.0825 78.6961266,0.9825 78.2486582,0.7145 C77.8003038,0.4465 77.4308101,0.0095 77.2908101,-0.5065 C77.1508101,-1.0225 77.2385316,-1.6175 77.476,-2.1225 C77.7134684,-2.6285 78.1006835,-3.0455 78.5570127,-3.2035 C79.0151139,-3.3615 79.5423291,-3.2625 79.9906835,-2.9945 C80.4381519,-2.7265 80.8067595,-2.2895 80.9476456,-1.7735 C81.0885316,-1.2575 80.9999241,-0.6625 80.7624557,-0.1565 C80.5249873,0.3485 80.1377722,0.7655 79.680557,0.9235 L79.680557,0.9235 Z M75.1110633,-1.1625 C74.6538481,-1.0035 74.2754937,-1.0135 73.8280253,-1.2825 C73.3796709,-1.5505 73.1608101,-1.8975 73.019038,-2.4135 C72.879038,-2.9295 72.8887848,-3.3555 73.1262532,-3.8615 C73.3637215,-4.3675 73.6711899,-4.6155 74.1284051,-4.7735 C74.5856203,-4.9315 74.9639747,-4.9215 75.4123291,-4.6535 C75.8589114,-4.3855 76.0795443,-4.0385 76.2195443,-3.5225 C76.3604304,-3.0065 76.2718228,-2.4115 76.1141013,-2.0745 C75.8757468,-1.5685 75.5682785,-1.3205 75.1110633,-1.1625 L75.1110633,-1.1625 Z M70.9447342,-0.8475 C70.5663797,-0.8575 70.1889114,-0.8675 69.8894177,-1.0465 C69.5908101,-1.2255 69.3710633,-1.5725 69.1522025,-1.9195 C69.1610633,-2.3465 69.1699241,-2.7725 69.3285316,-3.1105 C69.4871392,-3.4475 69.7246076,-3.9525 70.1020759,-3.9425 C70.4804304,-3.9325 70.8578987,-3.9225 71.1573924,-3.7435 C71.456,-3.5655 71.6757468,-3.2175 71.8946076,-2.8705 C71.8857468,-2.4435 71.8768861,-2.0175 71.7191646,-1.6805 C71.560557,-1.3425 71.2522025,-1.0955 70.9447342,-0.8475 L70.9447342,-0.8475 Z" id="Fill-37" fill="#F2F2F2" mask="url(#mask-18)"></path>
                        </g>
                        <g>
                            <mask id="mask-20" fill="white">
                                <use xlink:href="#path-19"></use>
                            </mask>
                            <g id="Clip-40"></g>
                            <path d="M89.9993544,73.846 C85.0470759,74.048 81.4070759,78.806 81.5647975,83.738 L81.5754304,84.066 C81.9334051,95.245 86.9113797,104.919 94.4058101,111.197 C95.6126456,112.465 97.3821392,113.051 99.1303671,112.98 C103.208089,112.813 106.297835,109.066 106.160494,104.791 C106.128595,103.805 105.806063,102.831 105.483532,101.856 C101.03543,90.515 105.040494,88.047 105.040494,88.047 C107.027076,86.32 108.409354,83.959 108.31543,81 C108.178975,76.725 105.159228,73.556 101.361506,73.382 L100.779354,73.406 L100.487835,73.418 L89.9993544,73.846 Z M108.560873,70.455 C107.999101,71.136 106.854291,71.841 105.689101,71.889 C104.81543,71.924 103.639608,71.643 102.734038,70.692 C102.119987,69.73 101.505051,68.767 101.463405,67.452 C101.421759,66.137 101.68138,65.139 102.523152,64.117 C103.084924,63.435 104.229734,62.73 105.394038,62.683 C106.268595,62.647 107.443532,62.928 108.349987,63.879 C108.964038,64.841 109.578975,65.804 109.62062,67.119 C109.662266,68.434 109.402646,69.433 108.560873,70.455 L108.560873,70.455 Z M98.0298608,69.568 C97.4689747,70.249 96.6050506,70.613 95.7313797,70.649 C94.8568228,70.685 93.972519,70.392 93.3691013,69.758 C92.7656835,69.124 92.4422658,68.149 92.4112532,67.163 C92.3793544,66.177 92.6389747,65.179 93.2007468,64.497 C93.762519,63.816 94.625557,63.451 95.5001139,63.416 C96.3737848,63.38 97.2580886,63.673 97.8615063,64.307 C98.4658101,64.941 98.7883418,65.915 98.8202405,66.902 C98.8512532,67.888 98.5916329,68.886 98.0298608,69.568 L98.0298608,69.568 Z M89.6130253,70.899 C89.0521392,71.58 88.4797342,71.933 87.6060633,71.968 C86.7315063,72.004 86.1387215,71.699 85.5353038,71.065 C84.931,70.431 84.6191013,69.786 84.5872025,68.799 C84.5553038,67.813 84.825557,67.143 85.3873291,66.462 C85.9491013,65.781 86.5206203,65.428 87.3951772,65.393 C88.2688481,65.357 88.862519,65.662 89.4659367,66.296 C90.0693544,66.929 90.3927722,67.904 90.414038,68.562 C90.4450506,69.548 90.1747975,70.217 89.6130253,70.899 L89.6130253,70.899 Z M83.6320127,75.423 C83.0604937,75.775 82.4880886,76.128 81.9050506,76.152 C81.3228987,76.175 80.7292278,75.87 80.136443,75.565 C79.8245443,74.92 79.5117595,74.274 79.4904937,73.617 C79.4692278,72.959 79.4382152,71.973 80.0106203,71.62 C80.5821392,71.267 81.1545443,70.915 81.7375823,70.891 C82.3197342,70.867 82.912519,71.172 83.5061899,71.477 C83.8180886,72.123 84.1308734,72.769 84.1512532,73.426 C84.1734051,74.084 83.9022658,74.753 83.6320127,75.423 L83.6320127,75.423 Z" id="Fill-39" fill="#F2F2F2" mask="url(#mask-20)"></path>
                        </g>
                    </g>
                    <g transform="translate(11.518987, 23.059000)">
                        <path d="M244.677557,49.5352 C244.677557,52.8482 242.297557,55.5332 239.362873,55.5332 C236.426418,55.5332 234.047304,52.8482 234.047304,49.5352 C234.047304,46.2222 236.426418,43.5372 239.362873,43.5372 C242.297557,43.5372 244.677557,46.2222 244.677557,49.5352" id="Fill-41" fill="#F2F2F2"></path>
                        <path d="M244.677557,49.5352 C244.677557,52.8482 242.297557,55.5332 239.362873,55.5332 C236.426418,55.5332 234.047304,52.8482 234.047304,49.5352 C234.047304,46.2222 236.426418,43.5372 239.362873,43.5372 C242.297557,43.5372 244.677557,46.2222 244.677557,49.5352 Z" id="Stroke-43" stroke="#6D7278" stroke-width="2"></path>
                        <path d="M239.362873,66.6202 C238.902114,67.4352 242.367557,100.8702 219.235658,102.1342 C196.103759,103.3972 262.846544,69.5772 219.127557,117.1312" id="Stroke-45" stroke="#6D7278" stroke-width="2" stroke-linecap="round" stroke-linejoin="round"></path>
                        <path d="M102.729785,47.8615 L102.316873,52.1405 L102.305354,52.2585 L102.282316,52.4965 C102.238013,54.0545 103.177253,55.3725 104.546241,55.5405 C105.493456,55.6575 106.288266,55.1535 106.895228,54.3865 C106.895228,54.3865 107.792823,52.8135 111.317633,54.9295 C111.622443,55.0875 111.927253,55.2455 112.242696,55.2835 C113.611684,55.4525 114.895608,54.2875 115.056873,52.6235 C115.125101,51.9105 114.983329,51.1715 114.608519,50.6445 C112.789405,47.4145 109.813076,45.1245 106.232443,44.6845 L106.127886,44.6715 C104.548013,44.4775 102.924722,45.8415 102.729785,47.8615 M100.053835,55.7105 C99.6329494,55.6585 99.3405443,55.3815 99.0472532,55.1055 C98.765481,54.7105 98.7061139,54.2215 98.7406709,53.8655 C98.7867468,53.3895 99.0428228,52.9405 99.2767468,52.7285 C99.6267468,52.4105 99.9537089,52.3305 100.375481,52.3825 C100.796367,52.4345 101.088772,52.7105 101.382063,52.9875 C101.663835,53.3825 101.723203,53.8705 101.688646,54.2275 C101.64257,54.7025 101.386494,55.1525 101.153456,55.3645 C100.80257,55.6815 100.475608,55.7615 100.053835,55.7105 M100.268266,51.2865 C99.9519367,51.2485 99.6471266,51.0905 99.4601646,50.8265 C99.2723165,50.5635 99.2014304,50.1935 99.2359873,49.8375 C99.2705443,49.4805 99.4096582,49.1375 99.6435823,48.9255 C99.8766203,48.7135 100.203582,48.6335 100.519911,48.6725 C100.836241,48.7115 101.140165,48.8685 101.328013,49.1325 C101.515861,49.3955 101.586747,49.7655 101.55219,50.1215 C101.518519,50.4785 101.378519,50.8225 101.144595,51.0335 C100.910671,51.2455 100.583709,51.3255 100.268266,51.2865 M101.02143,47.8925 C100.81143,47.8665 100.50662,47.7085 100.318772,47.4445 C100.130924,47.1815 100.049405,46.9305 100.083962,46.5745 C100.117633,46.2175 100.246114,45.9925 100.479152,45.7815 C100.713076,45.5695 100.935481,45.4765 101.250924,45.5155 C101.567253,45.5545 101.765734,45.6985 101.953582,45.9625 C102.14143,46.2255 102.223835,46.4765 102.190165,46.8335 C102.155608,47.1895 102.027127,47.4145 101.793203,47.6265 C101.560165,47.8385 101.337759,47.9305 101.02143,47.8925 M102.748392,45.4585 C102.537506,45.4325 102.339025,45.2885 102.139658,45.1435 C102.057253,44.8925 101.973962,44.6425 101.997886,44.4045 C102.020038,44.1665 102.149405,43.9415 102.277,43.7175 C102.405481,43.4925 102.720924,43.5315 102.93181,43.5575 C103.142696,43.5835 103.341177,43.7275 103.540544,43.8725 C103.622949,44.1235 103.706241,44.3735 103.682316,44.6115 C103.660165,44.8495 103.530797,45.0735 103.403203,45.2985 C103.180797,45.3915 102.959278,45.4845 102.748392,45.4585" id="Fill-47" fill="#ADB5BC"></path>
                        <path d="M82.7342405,65.2072 C81.1428481,66.1592 80.6209494,68.3662 81.3652532,69.9502 L81.4148734,70.0562 C83.101962,73.6472 86.0871519,75.9202 89.4196835,76.6332 C89.9920886,76.8312 90.6539873,76.7062 91.2148734,76.3702 C92.5253797,75.5872 93.0091772,73.8092 92.3641139,72.4362 C92.2152532,72.1192 91.9724684,71.8582 91.7296835,71.5972 C88.6833544,68.6842 89.646519,67.1612 89.646519,67.1612 C90.0541139,66.2412 90.1737342,65.2212 89.728038,64.2712 C89.0829747,62.8972 87.6510759,62.4012 86.3839873,63.0232 L86.1970253,63.1352 L86.1039873,63.1912 L82.7342405,65.2072 Z M88.3271519,60.7792 C88.2394304,61.1022 87.9638608,61.5372 87.5890506,61.7612 C87.3090506,61.9292 86.8855063,62.0472 86.4548734,61.8982 C86.1190506,61.6932 85.7832278,61.4892 85.5847468,61.0662 C85.3862658,60.6442 85.3313291,60.2712 85.4633544,59.7862 C85.5510759,59.4632 85.8257595,59.0272 86.2005696,58.8032 C86.4814557,58.6352 86.905,58.5172 87.3347468,58.6662 C87.6705696,58.8712 88.0072785,59.0762 88.2057595,59.4982 C88.4033544,59.9212 88.4591772,60.2942 88.3271519,60.7792 L88.3271519,60.7792 Z M84.7589241,62.3722 C84.6720886,62.6952 84.4408228,62.9692 84.1590506,63.1372 C83.8790506,63.3052 83.5485443,63.3672 83.2623418,63.2682 C82.9752532,63.1682 82.7333544,62.9072 82.5844937,62.5912 C82.4356329,62.2742 82.3806962,61.9012 82.4675316,61.5782 C82.5561392,61.2542 82.7874051,60.9812 83.0682911,60.8132 C83.3482911,60.6452 83.6787975,60.5822 83.9658861,60.6822 C84.2520886,60.7812 84.4939873,61.0422 84.6428481,61.3592 C84.7917089,61.6762 84.8475316,62.0492 84.7589241,62.3722 L84.7589241,62.3722 Z M82.1946203,64.3122 C82.1060127,64.6362 81.9686709,64.8532 81.6877848,65.0212 C81.4068987,65.1892 81.1694304,65.1962 80.8832278,65.0962 C80.5970253,64.9972 80.4047468,64.8422 80.2558861,64.5252 C80.1070253,64.2082 80.1008228,63.9412 80.1894304,63.6182 C80.2771519,63.2942 80.4144937,63.0772 80.6953797,62.9092 C80.9762658,62.7412 81.2128481,62.7342 81.4990506,62.8342 C81.7861392,62.9332 82.028038,63.1942 82.1272785,63.4052 C82.2761392,63.7222 82.2814557,63.9892 82.1946203,64.3122 L82.1946203,64.3122 Z M80.873481,66.8612 C80.7361392,67.0792 80.5987975,67.2972 80.4109494,67.4092 C80.2239873,67.5212 79.986519,67.5272 79.7508228,67.5332 C79.5576582,67.3782 79.3644937,67.2232 79.2652532,67.0112 C79.1668987,66.8002 79.018038,66.4832 79.1553797,66.2662 C79.2927215,66.0482 79.4300633,65.8312 79.6170253,65.7192 C79.8039873,65.6072 80.0414557,65.6002 80.2789241,65.5942 C80.4703165,65.7492 80.663481,65.9042 80.7627215,66.1162 C80.8628481,66.3272 80.8681646,66.5942 80.873481,66.8612 L80.873481,66.8612 Z" id="Fill-49" fill="#ADB5BC"></path>
                        <path d="M14.627519,78.4866 C21.020557,74.3206 25.2799241,69.1406 24.1422025,66.9156 C23.004481,64.6916 16.8985316,66.2646 10.5063797,70.4306 C4.11334177,74.5956 -0.147797468,79.7766 0.990810127,82.0016 C2.12941772,84.2256 8.23359494,82.6526 14.627519,78.4866" id="Fill-51" fill="#F2F2F2"></path>
                        <path d="M3.78779747,74.9056 C3.78779747,80.1626 7.56513924,84.4246 12.2232405,84.4246 C16.8804557,84.4246 20.6569114,80.1626 20.6569114,74.9056 C20.6569114,69.6486 16.8804557,65.3866 12.2232405,65.3866 C7.56513924,65.3866 3.78779747,69.6486 3.78779747,74.9056" id="Fill-53" fill="#ADB5BC"></path>
                        <path d="M3.78779747,74.9056 C3.78779747,80.1626 7.56513924,84.4246 12.2232405,84.4246 C16.8804557,84.4246 20.6569114,80.1626 20.6569114,74.9056 C20.6569114,69.6486 16.8804557,65.3866 12.2232405,65.3866 C7.56513924,65.3866 3.78779747,69.6486 3.78779747,74.9056 Z" id="Stroke-55" stroke="#6D7278" stroke-width="2"></path>
                        <path d="M3.83458228,75.908 C1.49002532,78.417 0.329265823,80.709 0.991164557,82.002 C1.64065823,83.273 3.91255696,83.304 6.93318987,82.319 C9.19977215,81.581 11.8872405,80.273 14.6269873,78.487 C16.9511646,76.974 18.9917975,75.325 20.5947089,73.735 C23.4035696,70.946 24.866481,68.332 24.1416709,66.916 C23.4053418,65.476 20.5947089,65.627 16.9715443,67.037" id="Stroke-57" stroke="#6D7278" stroke-width="2"></path>
                        <path d="M181.789557,43.184 C179.219937,52.536 169.855,57.569 160.873734,54.425 C151.890696,51.282 146.692975,41.152 149.261709,31.8 C151.831329,22.448 161.196266,17.415 170.178418,20.559 C179.16057,23.703 184.359177,33.832 181.789557,43.184" id="Fill-59" fill="#ADB5BC"></path>
                        <path d="M181.789557,43.184 C179.219937,52.536 169.855,57.569 160.873734,54.425 C151.890696,51.282 146.692975,41.152 149.261709,31.8 C151.831329,22.448 161.196266,17.415 170.178418,20.559 C179.16057,23.703 184.359177,33.832 181.789557,43.184 Z" id="Stroke-61" stroke="#6D7278" stroke-width="2"></path>
                        <path d="M198.681266,47.0515 C196.871899,53.6355 180.790506,53.8615 162.762405,47.5525 C144.73519,41.2435 131.588481,30.7885 133.397848,24.2035 C133.496203,23.8485 133.636203,23.5115 133.814304,23.1935 C133.871899,28.8075 146.771392,37.7065 163.827468,43.6755 C180.88443,49.6455 195.981392,50.5445 198.844304,45.9525 C198.831899,46.3285 198.777848,46.6955 198.681266,47.0515" id="Fill-63" fill="#ADB5BC"></path>
                        <path d="M198.681266,47.0515 C196.871899,53.6355 180.790506,53.8615 162.762405,47.5525 C144.73519,41.2435 131.588481,30.7885 133.397848,24.2035 C133.496203,23.8485 133.636203,23.5115 133.814304,23.1935 C133.871899,28.8075 146.771392,37.7065 163.827468,43.6755 C180.88443,49.6455 195.981392,50.5445 198.844304,45.9525 C198.831899,46.3285 198.777848,46.6955 198.681266,47.0515 Z" id="Stroke-65" stroke="#6D7278" stroke-width="2"></path>
                        <path d="M198.843949,45.9521 C195.981924,50.5441 180.884076,49.6451 163.827114,43.6761 C146.771038,37.7071 133.87243,28.8081 133.813949,23.1931 C136.901038,17.7021 151.758759,17.7331 168.471038,23.4111 C168.754582,23.5061 169.03281,23.6041 169.316354,23.7031 C169.599013,23.8021 169.878127,23.8991 170.159013,24.0021 C186.785342,29.9911 199.052177,39.4531 198.843949,45.9521" id="Fill-67" fill="#ADB5BC"></path>
                        <path d="M198.843949,45.9521 C195.981924,50.5441 180.884076,49.6451 163.827114,43.6761 C146.771038,37.7071 133.87243,28.8081 133.813949,23.1931 C136.901038,17.7021 151.758759,17.7331 168.471038,23.4111 C168.754582,23.5061 169.03281,23.6041 169.316354,23.7031 C169.599013,23.8021 169.878127,23.8991 170.159013,24.0021 C186.785342,29.9911 199.052177,39.4531 198.843949,45.9521 Z" id="Stroke-69" stroke="#6D7278" stroke-width="2"></path>
                        <path d="M199.213443,45.1131 C199.131038,45.4111 199.006987,45.6911 198.843949,45.9521 C195.981924,50.5441 180.884076,49.6451 163.827114,43.6761 C146.771038,37.7071 133.87243,28.8081 133.813719,23.1931 C133.810405,22.8731 133.84762,22.5641 133.930025,22.2651 C135.423063,16.8341 150.797367,17.3741 168.471038,23.4111 C168.754582,23.5061 169.03281,23.6041 169.316354,23.7031 C169.599013,23.8021 169.878127,23.8991 170.159013,24.0021 C187.758253,30.3091 200.706481,39.6821 199.213443,45.1131" id="Fill-71" fill="#F2F2F2"></path>
                        <path d="M199.213443,45.1131 C199.131038,45.4111 199.006987,45.6911 198.843949,45.9521 C195.981924,50.5441 180.884076,49.6451 163.827114,43.6761 C146.771038,37.7071 133.87243,28.8081 133.813719,23.1931 C133.810405,22.8731 133.84762,22.5641 133.930025,22.2651 C135.423063,16.8341 150.797367,17.3741 168.471038,23.4111 C168.754582,23.5061 169.03281,23.6041 169.316354,23.7031 C169.599013,23.8021 169.878127,23.8991 170.159013,24.0021 C187.758253,30.3091 200.706481,39.6821 199.213443,45.1131 Z" id="Stroke-73" stroke="#6D7278" stroke-width="2"></path>
                        <g transform="translate(171.898734, 3.000000)">
                            <line x1="3.09905063" y1="0.0113" x2="0.851962025" y2="8.1913" id="Fill-75" fill="#ADB5BC"></line>
                            <line x1="3.09905063" y1="0.0113" x2="0.851962025" y2="8.1913" id="Stroke-77" stroke="#6D7278" stroke-width="2"></line>
                        </g>
                        <path d="M176.939532,3.009 C176.636494,4.111 175.598899,4.728 174.622443,4.386 C173.645987,4.044 173.099278,2.874 173.402316,1.771 C173.705354,0.669 174.742949,0.052 175.719405,0.394 C176.696747,0.736 177.24257,1.907 176.939532,3.009" id="Fill-78" fill="#F2F2F2"></path>
                        <path d="M176.939532,3.009 C176.636494,4.111 175.598899,4.728 174.622443,4.386 C173.645987,4.044 173.099278,2.874 173.402316,1.771 C173.705354,0.669 174.742949,0.052 175.719405,0.394 C176.696747,0.736 177.24257,1.907 176.939532,3.009 Z" id="Stroke-80" stroke="#6D7278" stroke-width="2"></path>
                        <path d="M186.271861,39.3644 C186.083127,40.0514 185.86781,40.7204 185.625911,41.3704 C179.361354,41.1954 172.506671,39.9354 165.527937,37.4924 C158.544772,35.0484 152.260722,31.7114 147.008063,27.8554 C147.134772,27.1644 147.292494,26.4754 147.481228,25.7884 C150.803127,13.7004 162.181228,6.9414 172.892114,10.6904 C183.603886,14.4384 189.593759,27.2754 186.271861,39.3644" id="Fill-82" fill="#ADB5BC"></path>
                        <path d="M186.271861,39.3644 C186.083127,40.0514 185.86781,40.7204 185.625911,41.3704 C179.361354,41.1954 172.506671,39.9354 165.527937,37.4924 C158.544772,35.0484 152.260722,31.7114 147.008063,27.8554 C147.134772,27.1644 147.292494,26.4754 147.481228,25.7884 C150.803127,13.7004 162.181228,6.9414 172.892114,10.6904 C183.603886,14.4384 189.593759,27.2754 186.271861,39.3644 Z" id="Stroke-84" stroke="#6D7278" stroke-width="2"></path>
                    </g>
                </g>
            </g>
        </g>
    </g>
</svg>