<?xml version="1.0" encoding="UTF-8"?>
<svg width="16px" height="16px" viewBox="0 0 16 16" version="1.1" xmlns="http://www.w3.org/2000/svg" xmlns:xlink="http://www.w3.org/1999/xlink">
    <title>切片</title>
    <g id="完整" stroke="none" stroke-width="1" fill="none" fill-rule="evenodd">
        <g id="我的项目/训练-训练列表" transform="translate(-420.000000, -783.000000)" fill="#FFB45C">
            <g id="ico-/-24-/-files-/-files_outlined备份-9" transform="translate(420.000000, 783.000000)">
                <path d="M8,1.33333333 C4.31810167,1.33333333 1.33333333,4.31810167 1.33333333,8 C1.33333333,11.6818983 4.31810167,14.6666667 8,14.6666667 C11.6818983,14.6666667 14.6666667,11.6818983 14.6666667,8 C14.6666667,6.23189007 13.9642877,4.53619732 12.7140452,3.28595479 C11.4638027,2.03571227 9.76810993,1.33333333 8,1.33333333 Z M10.6666667,9.83333333 C10.6666667,10.2935706 10.2935706,10.6666667 9.83333333,10.6666667 L6.16666667,10.6666667 C5.70642938,10.6666667 5.33333333,10.2935706 5.33333333,9.83333333 L5.33333333,6.16666667 C5.33333333,5.70642938 5.70642938,5.33333333 6.16666667,5.33333333 L9.83333333,5.33333333 C10.2935706,5.33333333 10.6666667,5.70642938 10.6666667,6.16666667 L10.6666667,9.83333333 Z" id="Icon-color"></path>
            </g>
        </g>
    </g>
</svg>