<?xml version="1.0" encoding="UTF-8"?>
<svg width="24px" height="24px" viewBox="0 0 24 24" version="1.1" xmlns="http://www.w3.org/2000/svg" xmlns:xlink="http://www.w3.org/1999/xlink">
    <title>切片</title>
    <g id="完整" stroke="none" stroke-width="1" fill="none" fill-rule="evenodd">
        <g id="比赛/比赛详情-代码提交-已报名" transform="translate(-316.000000, -612.000000)" fill="#002FA7" fill-rule="nonzero">
            <g id="Group-20" transform="translate(292.000000, 600.000000)">
                <g id="Group-21" transform="translate(0.000000, 12.000000)">
                    <g id="ico-/-24-/-files-/-folder_outlined" transform="translate(24.000000, 0.000000)">
                        <path d="M19,2 L5,2 C3.8954305,2 3,2.8954305 3,4 L3,18 C3,19.1045695 3.8954305,20 5,20 L19,20 C20.1045695,20 21,19.1045695 21,18 L21,4 C21,2.8954305 20.1045695,2 19,2 Z M15.89,12.39 L15.68,12.6 C15.5860667,12.6905426 15.4604638,12.7407837 15.33,12.74 L14,12.74 L14,16.5 C14,16.7761424 13.7761424,17 13.5,17 L10.5,17 C10.2238576,17 10,16.7761424 10,16.5 L10,12.74 L8.67,12.74 C8.53953619,12.7407837 8.41393328,12.6905426 8.32,12.6 L8.11,12.39 C7.91821671,12.1921863 7.91821671,11.8778137 8.11,11.68 L11.65,8.15 C11.7407333,8.05332277 11.8674141,7.99848135 12,7.99848135 C12.1325859,7.99848135 12.2592667,8.05332277 12.35,8.15 L15.89,11.68 C16.0817833,11.8778137 16.0817833,12.1921863 15.89,12.39 Z M19,6 L5,6 L5,4 L19,4 L19,6 Z" id="Icon-color"></path>
                    </g>
                </g>
            </g>
        </g>
    </g>
</svg>