<?xml version="1.0" encoding="UTF-8"?>
<svg width="16px" height="16px" viewBox="0 0 16 16" version="1.1" xmlns="http://www.w3.org/2000/svg" xmlns:xlink="http://www.w3.org/1999/xlink">
    <title>切片</title>
    <g id="完整" stroke="none" stroke-width="1" fill="none" fill-rule="evenodd">
        <g id="比赛/比赛详情-报名-报名表" transform="translate(-632.000000, -569.000000)" fill="#0D8DFF" fill-rule="nonzero">
            <g id="编组" transform="translate(616.000000, 558.000000)">
                <g id="ico-/-24-/-files-/-folder_outlined备份-4" transform="translate(16.000000, 11.000000)">
                    <path d="M8,1.33333333 C4.31810167,1.33333333 1.33333333,4.31810167 1.33333333,8 C1.33333333,11.6818983 4.31810167,14.6666667 8,14.6666667 C11.6818983,14.6666667 14.6666667,11.6818983 14.6666667,8 C14.6666667,6.23189007 13.9642877,4.53619732 12.7140452,3.28595479 C11.4638027,2.03571227 9.76810993,1.33333333 8,1.33333333 Z M8,13.3333333 C5.05448133,13.3333333 2.66666667,10.9455187 2.66666667,8 C2.66666667,5.05448133 5.05448133,2.66666667 8,2.66666667 C10.9455187,2.66666667 13.3333333,5.05448133 13.3333333,8 C13.3333333,9.41448795 12.7714302,10.7710421 11.7712362,11.7712362 C10.7710421,12.7714302 9.41448795,13.3333333 8,13.3333333 Z M8.33333333,9.33333333 L7.66666667,9.33333333 C7.48257175,9.33333333 7.33333333,9.48257175 7.33333333,9.66666667 L7.33333333,10.3333333 C7.33333333,10.5174282 7.48257175,10.6666667 7.66666667,10.6666667 L8.33333333,10.6666667 C8.51742825,10.6666667 8.66666667,10.5174282 8.66666667,10.3333333 L8.66666667,9.66666667 C8.66666667,9.48257175 8.51742825,9.33333333 8.33333333,9.33333333 Z M8.45333333,5.33332461 L7.54666667,5.33332461 C7.45087339,5.3326408 7.35941253,5.37319502 7.29561102,5.4446527 C7.23180952,5.51611038 7.20183534,5.61156342 7.21333333,5.70666667 L7.48,7.85333333 C7.49017057,7.93749418 7.56189572,8.00061231 7.64666667,8.00000442 L8.35333333,8.00000442 C8.43810428,8.00061231 8.50982943,7.93749418 8.52,7.85333333 L8.78666667,5.70666667 C8.79816466,5.61156342 8.76819048,5.51611038 8.70438898,5.4446527 C8.64058747,5.37319502 8.54912661,5.3326408 8.45333333,5.33332461 Z" id="Icon-color"></path>
                </g>
            </g>
        </g>
    </g>
</svg>