<?xml version="1.0" encoding="UTF-8"?>
<svg width="48px" height="48px" viewBox="0 0 48 48" version="1.1" xmlns="http://www.w3.org/2000/svg" xmlns:xlink="http://www.w3.org/1999/xlink">
    <g id="完整" stroke="none" stroke-width="1" fill="none" fill-rule="evenodd" opacity="0.479999989">
        <g id="我的项目/无训练实例" transform="translate(-704.000000, -517.000000)" fill="#E5E5E5">
            <g id="编组-3" transform="translate(623.000000, 517.000000)">
                <g id="ico-/-24-/-files-/-folder_outlined" transform="translate(81.000000, 0.000000)">
                    <path d="M28,38 C28,40.209139 26.209139,42 24,42 C21.790861,42 20,40.209139 20,38 C20,35.790861 21.790861,34 24,34 C26.209139,34 28,35.790861 28,38 Z M35,22 C31.1340068,22 28,25.1340068 28,29 C28,32.8659932 31.1340068,36 35,36 C38.8659932,36 42,32.8659932 42,29 C42,25.1340068 38.8659932,22 35,22 L35,22 Z M28,17 C28,10.9248678 23.0751322,6 17,6 C10.9248678,6 6,10.9248678 6,17 C6,23.0751322 10.9248678,28 17,28 C19.9173814,28 22.7152744,26.8410748 24.7781746,24.7781746 C26.8410748,22.7152744 28,19.9173814 28,17 Z" id="Icon-color"></path>
                </g>
            </g>
        </g>
    </g>
</svg>