<!-- Generated by IcoMoon.io -->
<svg version="1.1" xmlns="http://www.w3.org/2000/svg" width="32" height="32" viewBox="0 0 32 32">
<path fill="currentColor" d="M8.001 5.995c0-1.838 1.493-3.328 3.334-3.328s3.334 1.49 3.334 3.328c0 1.838-1.493 3.328-3.334 3.328-0.884 0-1.732-0.351-2.358-0.975s-0.977-1.471-0.977-2.353zM18.525 16.711l-1.334-2.529c-0.669-1.326-2.020-2.172-3.508-2.196h-4.695c-1.512-0-2.894 0.849-3.575 2.196l-1.267 2.529c-0.208 0.412-0.187 0.902 0.054 1.295s0.67 0.633 1.133 0.635h12.004c0.462-0.001 0.891-0.242 1.133-0.635s0.262-0.883 0.054-1.295zM20.672 9.323c1.842 0 3.334-1.49 3.334-3.328s-1.493-3.328-3.334-3.328c-1.842 0-3.334 1.49-3.334 3.328-0.004 0.884 0.347 1.732 0.973 2.357s1.476 0.974 2.362 0.971zM27.861 16.711l-1.267-2.529c-0.68-1.347-2.063-2.197-3.575-2.196h-4.001c0.244 0.317 0.458 0.656 0.64 1.012l1.267 2.516c0.482 0.976 0.545 2.105 0.173 3.128h5.575c0.462-0.001 0.891-0.242 1.133-0.635s0.262-0.883 0.054-1.295zM23.34 21.303h-5.188c-0.267 0.004-0.506 0.166-0.607 0.412s-0.046 0.529 0.14 0.719l1.947 1.957c-1.628 1.803-4.11 2.579-6.477 2.025s-4.245-2.35-4.9-4.688c-0.102-0.263-0.358-0.434-0.64-0.426h-1.334c-0.203-0.001-0.396 0.092-0.52 0.253-0.122 0.159-0.17 0.362-0.133 0.559 0.783 3.377 3.379 6.041 6.74 6.916s6.93-0.184 9.266-2.749l1.334 1.331c0.185 0.201 0.476 0.265 0.729 0.161s0.414-0.354 0.404-0.627v-5.178c-0.006-0.191-0.092-0.371-0.236-0.497s-0.334-0.187-0.524-0.169z"></path>
</svg>
