<svg id="icon-upload" viewBox="0 0 24 24">
    <path fill="currentColor"
        d="M12 2c-5.523 0-10 4.477-10 10s4.477 10 10 10c5.523 0 10-4.477 10-10 0-2.652-1.054-5.196-2.929-7.071s-4.419-2.929-7.071-2.929zM12 20c-4.418 0-8-3.582-8-8s3.582-8 8-8c4.418 0 8 3.582 8 8 0 2.122-0.843 4.157-2.343 5.657s-3.535 2.343-5.657 2.343zM12.72 6.22c-0.142-0.139-0.332-0.218-0.53-0.22h-0.38c-0.199 0-0.389 0.079-0.53 0.22l-3.13 3.14c-0.095 0.094-0.148 0.222-0.148 0.355s0.053 0.261 0.148 0.355l0.7 0.71c0.094 0.095 0.222 0.148 0.355 0.148s0.261-0.053 0.355-0.148l1.44-1.45v8.17c0 0.276 0.224 0.5 0.5 0.5h1c0.276 0 0.5-0.224 0.5-0.5v-8.17l1.44 1.44c0.092 0.094 0.218 0.147 0.35 0.147s0.258-0.053 0.35-0.147l0.71-0.71c0.095-0.094 0.148-0.222 0.148-0.355s-0.053-0.261-0.148-0.355l-3.13-3.13z">
    </path>
</svg>