<!-- Generated by IcoMoon.io -->
<svg version="1.1" xmlns="http://www.w3.org/2000/svg" width="32" height="32" viewBox="0 0 32 32">
<title>icon-video</title>
<path fill="currentColor" d="M29.333 7.333c0-1.473-1.194-2.667-2.667-2.667h-21.333c-1.473 0-2.667 1.194-2.667 2.667v16c0 1.473 1.194 2.667 2.667 2.667h6.787c0.35 0.001 0.685 0.14 0.933 0.387l1.987 1.987c0.187 0.188 0.442 0.293 0.707 0.293h0.507c0.265 0 0.519-0.106 0.707-0.293l1.987-1.987c0.248-0.246 0.584-0.385 0.933-0.387h6.787c1.473 0 2.667-1.194 2.667-2.667v-16zM26.667 23.333h-6.787c-1.061 0.001-2.077 0.423-2.827 1.173l-1.053 1.053-1.053-1.053c-0.749-0.75-1.766-1.172-2.827-1.173h-6.787v-16h21.333v16zM13.333 18.8c0.001 0.37 0.205 0.709 0.532 0.882s0.722 0.152 1.028-0.055l5.187-3.467c0.279-0.182 0.448-0.493 0.448-0.827s-0.169-0.645-0.448-0.827l-5.187-3.467c-0.306-0.207-0.702-0.228-1.028-0.055s-0.531 0.512-0.532 0.882v6.933z"></path>
</svg>
