<!-- Generated by IcoMoon.io -->
<svg version="1.1" xmlns="http://www.w3.org/2000/svg" width="32" height="32" viewBox="0 0 32 32">
<title>vision</title>
<path fill="currentColor" d="M26.667 5.333h-21.333c-1.473 0-2.667 1.194-2.667 2.667v16c0 1.473 1.194 2.667 2.667 2.667h21.333c1.473 0 2.667-1.194 2.667-2.667v-16c0-1.473-1.194-2.667-2.667-2.667zM26.667 12.467c-1.076 0.266-2.174 0.431-3.28 0.493-0.192-1.688-0.563-3.351-1.107-4.96h4.387v4.467zM5.333 14.44c1.669-0.773 3.494-1.151 5.333-1.107 0.813-0.004 1.624 0.058 2.427 0.187 0.087 0.824 0.132 1.652 0.133 2.48 0 0 0 0 0 0.080-0.407-0.047-0.817-0.074-1.227-0.080-2.276-0.003-4.534 0.404-6.667 1.2v-2.76zM15.48 14.067l1.333 0.467c1.401 0.544 2.866 0.902 4.36 1.067 0 0.133 0 0.267 0 0.4-0.002 1.183-0.091 2.364-0.267 3.533-1.574-1.386-3.43-2.414-5.44-3.013 0-0.173 0-0.347 0-0.52 0.093-0.667 0.053-1.333 0.013-1.933zM15.107 11.2c-0.202-1.084-0.478-2.154-0.827-3.2h5.52c0.602 1.58 1.009 3.228 1.213 4.907-1.119-0.182-2.214-0.486-3.267-0.907-0.8-0.253-1.667-0.56-2.64-0.8zM20.28 22.587c-0.16 0.507-0.32 0.987-0.48 1.413h-6.76c0.979-1.465 1.697-3.089 2.12-4.8 1.947 0.715 3.7 1.875 5.12 3.387zM11.8 8c0.347 0.903 0.628 1.83 0.84 2.773-0.655-0.072-1.314-0.107-1.973-0.107-1.816-0.022-3.621 0.276-5.333 0.88v-3.547h6.467zM5.333 20.067c2.102-0.922 4.372-1.398 6.667-1.4 0.307 0 0.587 0 0.88 0-0.485 1.953-1.395 3.774-2.667 5.333h-4.88v-3.933zM24.76 24c-0.537-0.862-1.139-1.682-1.8-2.453 0.399-1.822 0.601-3.682 0.6-5.547 0-0.133 0-0.253 0-0.387 1.045-0.057 2.083-0.195 3.107-0.413v8.8h-1.907z"></path>
</svg>
