<!-- Generated by IcoMoon.io -->
<svg version="1.1" xmlns="http://www.w3.org/2000/svg" width="32" height="32" viewBox="0 0 32 32">
<title>voice</title>
<path fill="currentColor" d="M10.667 13.333v-5.333c0-2.946 2.388-5.333 5.333-5.333s5.333 2.388 5.333 5.333v5.333c0 2.946-2.388 5.333-5.333 5.333s-5.333-2.388-5.333-5.333zM25.44 17.933c-0.043-0.149-0.151-0.272-0.293-0.333l-1.4-0.653c-0.269-0.128-0.592-0.023-0.733 0.24-1.384 2.555-4.045 4.158-6.95 4.189s-5.599-1.517-7.037-4.042c-0.165-0.305-0.54-0.428-0.853-0.28l-1.213 0.56c-0.168 0.077-0.294 0.223-0.347 0.4-0.073 0.17-0.073 0.363 0 0.533 1.647 2.983 4.62 4.999 8 5.427v2.693h-1.947c-0.368 0-0.667 0.298-0.667 0.667v1.333c0 0.368 0.298 0.667 0.667 0.667h6.667c0.368 0 0.667-0.298 0.667-0.667v-1.333c0-0.368-0.298-0.667-0.667-0.667h-2v-2.76c3.38-0.427 6.353-2.444 8-5.427 0 0 0 0 0-0.107 0.103-0.122 0.142-0.285 0.107-0.44v0z"></path>
</svg>
