<?xml version="1.0" encoding="UTF-8"?>
<svg width="16px" height="16px" viewBox="0 0 16 16" version="1.1" xmlns="http://www.w3.org/2000/svg" xmlns:xlink="http://www.w3.org/1999/xlink">
    <title>切片</title>
    <g id="页面-1" stroke="none" stroke-width="1" fill="none" fill-rule="evenodd">
        <g id="他人项目/项目搜索页备份-4" transform="translate(-499.000000, -386.000000)" fill="#0D8DFF">
            <g id="ButtonToggle/mobile/+icon/select" transform="translate(487.000000, 380.000000)">
                <g id="ico-/-24-/-files-/-files_outlined" transform="translate(12.000000, 6.000000)">
                    <path d="M5.33333333,6.66666667 L5.33333333,4 C5.33333333,2.52724067 6.52724067,1.33333333 8,1.33333333 C9.47275933,1.33333333 10.6666667,2.52724067 10.6666667,4 L10.6666667,6.66666667 C10.6666667,8.139426 9.47275933,9.33333333 8,9.33333333 C6.52724067,9.33333333 5.33333333,8.139426 5.33333333,6.66666667 Z M12.72,8.96666667 C12.69848,8.89198167 12.6446761,8.83084091 12.5733333,8.8 L11.8733333,8.47333333 C11.7386565,8.40931488 11.5774358,8.46207802 11.5066667,8.59333333 C10.8146129,9.8707525 9.48433579,10.672495 8.03157771,10.6877288 C6.57881963,10.7029627 5.23202246,9.92929253 4.51333333,8.66666667 C4.43081379,8.51415044 4.24350434,8.45268953 4.08666667,8.52666667 L3.48,8.80666667 C3.39606891,8.84519764 3.33287717,8.91811118 3.30666667,9.00666667 C3.27035392,9.09184695 3.27035392,9.18815305 3.30666667,9.27333333 C4.13011601,10.7647247 5.61650123,11.7729894 7.30666667,11.9866667 L7.30666667,13.3333333 L6.33333333,13.3333333 C6.14923842,13.3333333 6,13.4825718 6,13.6666667 L6,14.3333333 C6,14.5174282 6.14923842,14.6666667 6.33333333,14.6666667 L9.66666667,14.6666667 C9.85076158,14.6666667 10,14.5174282 10,14.3333333 L10,13.6666667 C10,13.4825718 9.85076158,13.3333333 9.66666667,13.3333333 L8.66666667,13.3333333 L8.66666667,11.9533333 C10.3568321,11.7396561 11.8432173,10.7313914 12.6666667,9.24 C12.6666667,9.24 12.6666667,9.24 12.6666667,9.18666667 C12.7180423,9.12579595 12.7377973,9.04430656 12.72,8.96666667 L12.72,8.96666667 Z" id="Icon-color"></path>
                </g>
            </g>
        </g>
    </g>
</svg>