<?xml version="1.0" encoding="UTF-8"?>
<svg width="48px" height="48px" viewBox="0 0 48 48" version="1.1" xmlns="http://www.w3.org/2000/svg" xmlns:xlink="http://www.w3.org/1999/xlink">
    <g id="完整" stroke="none" stroke-width="1" fill="none" fill-rule="evenodd">
        <g id="大模型/紫东太初-视觉问答1" transform="translate(-1331.000000, -1465.000000)" fill="#555555" fill-rule="nonzero">
            <g id="编组-17备份" transform="translate(501.000000, 676.000000)">
                <g id="编组-8" transform="translate(40.000000, 789.000000)">
                    <g id="ico-/-24-/-files-/-folder_outlined备份-3" transform="translate(790.000000, 0.000000)">
                        <path d="M41.670949,6.81514917 L41.151663,6.29537296 C40.9640544,6.11436575 40.7131935,6.01392666 40.4526242,6.01549346 C40.3403874,5.99483551 40.2253279,5.99483551 40.113091,6.01549346 L6.6590895,18.010329 C6.23468205,18.1623415 5.96462647,18.5800941 5.99999573,19.02989 L5.99999573,19.3497523 C6.00007932,19.7423398 6.22535114,20.1000048 6.57919934,20.2693563 L20.9394543,27.0464384 L27.7101448,41.4202496 C27.8793366,41.7744319 28.2366643,42 28.6288816,42 L28.9484422,42 C29.3688941,42 29.7441978,41.7360611 29.8871515,41.340284 L41.9505646,7.85470158 C42.0676735,7.48325044 41.9585462,7.07753811 41.670949,6.81514917 Z M28.4291562,33.5636324 L25.972534,28.2459219 C25.2784737,26.7722827 25.5471094,25.0245021 26.6516003,23.8278242 L29.7673162,20.4492789 C30.1350648,20.0631468 30.1350648,19.4560048 29.7673162,19.0698728 L29.0083598,18.3101999 C28.6225919,17.9421042 28.0160225,17.9421042 27.6302546,18.3101999 L24.2548957,21.4288571 C23.018109,22.5449551 21.219346,22.7759877 19.741102,22.0086075 L14.4284069,19.5496662 L36.2583912,11.7130403 L28.4291562,33.5636324 Z" id="Icon-color"></path>
                    </g>
                </g>
            </g>
        </g>
    </g>
</svg>