<?xml version="1.0" encoding="UTF-8"?>
<svg width="16px" height="16px" viewBox="0 0 16 16" version="1.1" xmlns="http://www.w3.org/2000/svg" xmlns:xlink="http://www.w3.org/1999/xlink">
    <title>切片</title>
    <g id="完整" stroke="none" stroke-width="1" fill="none" fill-rule="evenodd">
        <g id="我的项目/训练-训练列表" transform="translate(-420.000000, -712.000000)" fill="#33B3FF">
            <g id="ico-/-24-/-files-/-files_outlined备份-7" transform="translate(420.000000, 712.000000)">
                <path d="M8,1.33333333 C4.31810167,1.33333333 1.33333333,4.31810167 1.33333333,8 C1.33333333,11.6818983 4.31810167,14.6666667 8,14.6666667 C11.6818983,14.6666667 14.6666667,11.6818983 14.6666667,8 C14.6666667,6.23189007 13.9642877,4.53619732 12.7140452,3.28595479 C11.4638027,2.03571227 9.76810993,1.33333333 8,1.33333333 Z M11.0066667,10.6666667 L10.6533333,11.02 C10.5214575,11.1478555 10.3118758,11.1478555 10.18,11.02 L7.51333333,8.35333333 C7.44822773,8.29061627 7.41202257,8.20372388 7.41329894,8.11333333 L7.41329894,4.33333333 C7.41329894,4.14923842 7.56257175,4 7.74666667,4 L8.25333333,4 C8.43742825,4 8.58666667,4.14923842 8.58666667,4.33333333 L8.58666667,7.76 L11.0066667,10.18 C11.0722327,10.2439844 11.1092032,10.3317205 11.1092032,10.4233333 C11.1092032,10.5149461 11.0722327,10.6026823 11.0066667,10.6666667 L11.0066667,10.6666667 Z" id="Icon-color"></path>
            </g>
        </g>
    </g>
</svg>