<?xml version="1.0" encoding="UTF-8"?>
<svg width="40px" height="40px" viewBox="0 0 40 40" version="1.1" xmlns="http://www.w3.org/2000/svg" xmlns:xlink="http://www.w3.org/1999/xlink">
    <title>切片</title>
    <g id="完整" stroke="none" stroke-width="1" fill="none" fill-rule="evenodd">
        <g id="我的项目/训练-自定义评估无AIM代码" transform="translate(-1367.000000, -922.000000)" fill="#E5E5E5" fill-rule="nonzero">
            <g id="编组-9" transform="translate(1140.000000, 820.000000)">
                <g id="ico-/-24-/-files-/-folder_outlined备份-3" transform="translate(227.000000, 102.000000)">
                    <path d="M20,3.33333333 C10.7952542,3.33333333 3.33333333,10.7952542 3.33333333,20 C3.33333333,29.2047458 10.7952542,36.6666667 20,36.6666667 C29.2047458,36.6666667 36.6666667,29.2047458 36.6666667,20 C36.6666667,15.5797252 34.9107193,11.3404933 31.785113,8.21488698 C28.6595067,5.08928067 24.4202748,3.33333333 20,3.33333333 Z M20,33.3333333 C12.6362033,33.3333333 6.66666667,27.3637967 6.66666667,20 C6.66666667,12.6362033 12.6362033,6.66666667 20,6.66666667 C27.3637967,6.66666667 33.3333333,12.6362033 33.3333333,20 C33.3333333,23.5362199 31.9285755,26.9276054 29.4280904,29.4280904 C26.9276054,31.9285755 23.5362199,33.3333333 20,33.3333333 Z M20.8333333,23.3333333 L19.1666667,23.3333333 C18.7064294,23.3333333 18.3333333,23.7064294 18.3333333,24.1666667 L18.3333333,25.8333333 C18.3333333,26.2935706 18.7064294,26.6666667 19.1666667,26.6666667 L20.8333333,26.6666667 C21.2935706,26.6666667 21.6666667,26.2935706 21.6666667,25.8333333 L21.6666667,24.1666667 C21.6666667,23.7064294 21.2935706,23.3333333 20.8333333,23.3333333 Z M21.1333333,13.3333115 L18.8666667,13.3333115 C18.6271835,13.331602 18.3985313,13.4329875 18.2390276,13.6116317 C18.0795238,13.790276 18.0045883,14.0289085 18.0333333,14.2666667 L18.7,19.6333333 C18.7254264,19.8437354 18.9047393,20.0015308 19.1166667,20.000011 L20.8833333,20.000011 C21.0952607,20.0015308 21.2745736,19.8437354 21.3,19.6333333 L21.9666667,14.2666667 C21.9954117,14.0289085 21.9204762,13.790276 21.7609724,13.6116317 C21.6014687,13.4329875 21.3728165,13.331602 21.1333333,13.3333115 Z" id="Icon-color"></path>
                </g>
            </g>
        </g>
    </g>
</svg>