<?xml version="1.0" encoding="UTF-8"?>
<svg width="24px" height="24px" viewBox="0 0 24 24" version="1.1" xmlns="http://www.w3.org/2000/svg" xmlns:xlink="http://www.w3.org/1999/xlink">
    <g id="完整" stroke="none" stroke-width="1" fill="none" fill-rule="evenodd">
        <g id="大模型/悟空-完成" transform="translate(-438.000000, -664.000000)" fill="#FFFFFF">
            <g id="编组-13" transform="translate(430.000000, 656.000000)">
                <g id="ico-/-24-/-actions-/-heart_outlined" transform="translate(8.000000, 8.000000)">
                    <path d="M16.5,3 C14.7819016,3.05353575 13.1586346,3.8002386 12,5.07 C10.8413654,3.8002386 9.21809836,3.05353575 7.5,3 C4.46243388,3 2,5.46243388 2,8.5 C2,12.42 6.75,16.75 9,19 L11.28,21.28 C11.4205174,21.4206925 11.6111546,21.5 11.81,21.5 L12.19,21.5 C12.3888454,21.5 12.5794826,21.4206925 12.72,21.28 L15,19 C17.25,16.75 22,12.42 22,8.5 C22,5.46243388 19.5375661,3 16.5,3 Z M14.2,17 L12,19.17 L9.8,17 C7.77,15 4,11.26 4,8.5 C4,6.56700338 5.56700338,4.99987125 7.5,4.99987125 L7.5,4.99987125 C9.00743345,5.13712384 10.3716031,5.94974241 11.21,7.21 C11.355645,7.39268909 11.5763606,7.49936827 11.81,7.5 L12.26,7.5 C12.4170122,7.49846435 12.5645642,7.42468834 12.66,7.3 C13.5119185,5.99151791 14.9153102,5.1443261 16.47,4.99987125 L16.47,4.99987125 C17.4034447,4.99199875 18.3014099,5.35721243 18.96429,6.01445898 C19.6271701,6.67170554 20,7.566521 20,8.5 C20,11.26 16.23,15 14.2,17 Z" id="Icon-color"></path>
                </g>
            </g>
        </g>
    </g>
</svg>