<?xml version="1.0" encoding="UTF-8"?>
<svg width="24px" height="24px" viewBox="0 0 24 24" version="1.1" xmlns="http://www.w3.org/2000/svg" xmlns:xlink="http://www.w3.org/1999/xlink">
    <g id="页面-1" stroke="none" stroke-width="1" fill="none" fill-rule="evenodd">
        <g id="大模型/悟空-AI画集大图" transform="translate(-1468.000000, -238.000000)" fill="#B2B2B2">
            <g id="编组-4" transform="translate(1460.000000, 182.000000)">
                <g id="ico-/-24-/-ui-/-download_to备份" transform="translate(8.000000, 56.000000)">
                    <path d="M11.3,16.8 C11.4,16.9 11.6,17 11.8,17 L12.2,17 C12.4,17 12.6,16.9 12.7,16.8 L17.8,11.7 C18,11.5 18,11.2 17.8,11 C17.8,11 17.8,11 17.8,11 L17.1,10.3 C16.9,10.1 16.6,10.1 16.4,10.3 C16.4,10.3 16.4,10.3 16.4,10.3 L13,13.7 L13,3.5 C13,3.2 12.8,3 12.5,3 L11.5,3 C11.2,3 11,3.2 11,3.5 L11,13.7 L7.6,10.3 C7.4,10 7,10 6.9,10.2 C6.9,10.2 6.9,10.2 6.9,10.2 L6.2,10.9 C6,11.1 6,11.4 6.2,11.6 C6.2,11.6 6.2,11.6 6.2,11.6 L11.3,16.8 Z M21,19 L3,19 L3,21 L21,21 L21,19 Z" id="Icon-color"></path>
                </g>
            </g>
        </g>
    </g>
</svg>