<?xml version="1.0" encoding="UTF-8"?>
<svg width="48px" height="48px" viewBox="0 0 48 48" version="1.1" xmlns="http://www.w3.org/2000/svg" xmlns:xlink="http://www.w3.org/1999/xlink">
    <g id="完整" stroke="none" stroke-width="1" fill="none" fill-rule="evenodd">
        <g id="大模型/悟空-在线体验2" transform="translate(-1755.000000, -927.000000)" fill="#0D8DFF" fill-rule="nonzero">
            <g id="ico-/-24-/-other-/-pet" transform="translate(1755.000000, 927.000000)">
                <path d="M44,10 C44,7.790861 42.209139,6 40,6 L8,6 C5.790861,6 4,7.790861 4,10 L4,34 C4,36.209139 5.790861,38 8,38 L18.18,38 C18.7046798,38.0022092 19.2074787,38.2105117 19.58,38.58 L22.56,41.56 C22.8410347,41.841385 23.2223093,42 23.62,42 L24.38,42 C24.7776907,42 25.1589653,41.841385 25.44,41.56 L28.42,38.58 C28.7925213,38.2105117 29.2953202,38.0022092 29.82,38 L40,38 C42.209139,38 44,36.209139 44,34 L44,10 Z M27,29.62 L25,31.62 C24.4143649,32.2049068 23.4656351,32.2049068 22.88,31.62 L20.88,29.62 C18.76,27.38 14,23 14,19.5 C14,16.4624339 16.4624339,14 19.5,14 C21.2077077,14.0353477 22.8294223,14.7561097 24,16 C25.1732183,14.7598374 26.7932897,14.0398056 28.5,14 C29.9586907,14 31.3576372,14.5794626 32.3890873,15.6109127 C33.4205374,16.6423628 34,18.0413093 34,19.5 C34,23 29.24,27.38 27,29.62 Z" id="Icon-color"></path>
            </g>
        </g>
    </g>
</svg>