<?xml version="1.0" encoding="UTF-8"?>
<svg width="48px" height="48px" viewBox="0 0 48 48" version="1.1" xmlns="http://www.w3.org/2000/svg" xmlns:xlink="http://www.w3.org/1999/xlink">
    <g id="完整" stroke="none" stroke-width="1" fill="none" fill-rule="evenodd">
        <g id="大模型/悟空-在线体验2" transform="translate(-1755.000000, -802.000000)" fill="#0D8DFF" fill-rule="nonzero">
            <g id="编组-5" transform="translate(1739.000000, 786.000000)">
                <g id="ico-/-24-/-communication-/-comment_image" transform="translate(16.000000, 16.000000)">
                    <path d="M40,6 L8,6 C5.790861,6 4,7.790861 4,10 L4,34 C4,36.209139 5.790861,38 8,38 L18.18,38 C18.7046798,38.0022092 19.2074787,38.2105117 19.58,38.58 L22.56,41.56 C22.8410347,41.841385 23.2223093,42 23.62,42 L24.38,42 C24.7776907,42 25.1589653,41.841385 25.44,41.56 L28.42,38.58 C28.7925213,38.2105117 29.2953202,38.0022092 29.82,38 L40,38 C42.209139,38 44,36.209139 44,34 L44,10 C44,7.790861 42.209139,6 40,6 Z M19,12 C20.6568542,12 22,13.3431458 22,15 C22,16.6568542 20.6568542,18 19,18 C17.3431458,18 16,16.6568542 16,15 C16,13.3431458 17.3431458,12 19,12 Z M37.9999951,31 C37.9999951,31.5522847 37.5522847,32 36.9999951,32 L10.9999951,32 C10.4477153,32 9.9999951,31.5522847 9.9999951,31 L9.9999951,30.32 C9.99928262,30.1001371 10.0773278,29.8872867 10.22,29.72 L15.9999951,22.38 C16.1736623,22.1654618 16.4254855,22.0287577 16.7,22 C17.0009245,21.9965183 17.2874156,22.1287449 17.48,22.36 L20.38,25.86 C20.5663558,26.0881199 20.8454375,26.2203165 21.14,26.22 C21.4540243,26.2169287 21.7491284,26.0693767 21.94,25.82 L27.7,18.38 C27.8934539,18.1354203 28.1881608,17.9927717 28.4999951,17.9927717 C28.8118392,17.9927717 29.1065461,18.1354203 29.3,18.38 L37.8,29.72 C37.9285544,29.8937578 37.9985888,30.1038612 37.9999951,30.32 L37.9999951,31 Z" id="Icon-color"></path>
                </g>
            </g>
        </g>
    </g>
</svg>